<svg width="86" height="89" viewBox="0 0 86 89" fill="none" xmlns="http://www.w3.org/2000/svg">
<path fill-rule="evenodd" clip-rule="evenodd" d="M44.9339 0.734192C69.3263 0.734192 85.361 23.9264 85.361 48.2893C85.361 70.608 67.2796 88.7342 44.9339 88.7342C21.3698 88.7342 0.199768 71.825 0.199768 48.2893C0.199768 22.8069 19.4207 0.734192 44.9339 0.734192Z" fill="#F99D1F"/>
<path d="M60.5729 21.8638C60.3594 21.8638 60.051 21.6766 59.8375 21.5712C59.4817 21.3956 59.1733 21.1264 58.8175 20.9625C58.4617 20.787 58.0584 20.705 57.7026 20.5529C57.3349 20.389 56.9317 20.3305 56.5759 20.19C56.2082 20.0379 55.8286 19.9208 55.461 19.7803C55.0933 19.6399 54.7493 19.4175 54.3817 19.2887C54.0021 19.16 53.6463 18.9961 53.2668 18.8791C52.8872 18.762 52.5195 18.5981 52.14 18.5045C51.7605 18.3992 51.3572 18.3406 50.9777 18.247C50.5863 18.1533 50.1949 18.1182 49.8035 18.0363C49.4121 17.9661 49.0088 18.0246 48.6174 17.9661C48.226 17.9075 47.8702 17.6266 47.4788 17.5798C47.0874 17.533 46.6841 17.5681 46.2927 17.533C45.9013 17.4979 45.4981 17.5213 45.1067 17.4979C44.7153 17.4745 44.3239 17.3457 43.9206 17.334C43.5292 17.3223 43.1259 17.4628 42.7345 17.4628C42.3313 17.4628 41.9399 17.4745 41.5485 17.4862C41.1452 17.4979 40.7538 17.4159 40.3505 17.4393C39.9591 17.4628 39.5559 17.5447 39.1645 17.5798C38.7731 17.6149 38.3698 17.65 37.9784 17.6969C37.587 17.7437 37.1838 17.732 36.7924 17.8022C36.401 17.8607 36.0096 17.931 35.6182 18.0129C35.2268 18.0831 34.8709 18.3055 34.4795 18.3992C34.0881 18.4928 33.7086 18.5747 33.3291 18.6801C32.9495 18.7854 32.5225 18.762 32.143 18.8791C31.7635 18.9961 31.4076 19.2068 31.04 19.3238C30.6604 19.4526 30.2927 19.5697 29.9132 19.7101C29.5455 19.8506 29.1778 20.0027 28.8102 20.1549C28.4425 20.3071 28.0511 20.389 27.6834 20.5529C27.3276 20.7167 26.9836 20.9274 26.6278 21.103C26.272 21.2786 25.8925 21.419 25.5485 21.6063C25.1808 21.817 24.825 21.817 24.4455 21.7C24.0659 21.5829 23.722 21.4073 23.5203 21.0445C23.3068 20.6816 23.1645 20.2485 23.2831 19.874C23.4017 19.4994 23.7931 19.2536 24.1608 19.0546C24.5166 18.8674 24.8843 18.7035 25.2401 18.5279C25.5959 18.3523 25.9043 18.048 26.272 17.8724C26.6397 17.7086 27.0667 17.6734 27.4343 17.5213C27.802 17.3691 28.1578 17.1584 28.5255 17.0063C28.9051 16.8658 29.2965 16.7487 29.676 16.62C30.0555 16.4912 30.4113 16.304 30.8027 16.1752C31.1823 16.0464 31.5737 15.9411 31.9651 15.8241C32.3565 15.707 32.7242 15.5431 33.1156 15.4495C33.507 15.3559 33.934 15.391 34.3254 15.309C34.7168 15.2271 35.0726 14.9579 35.4758 14.8759C35.8672 14.8057 36.2942 14.8408 36.6856 14.7823C37.0889 14.7238 37.4803 14.6067 37.8717 14.5599C38.2749 14.5131 38.6782 14.5482 39.0815 14.5131C39.4847 14.478 39.8761 14.4077 40.2794 14.3843C40.6826 14.3609 41.0859 14.2322 41.4892 14.2205C41.8924 14.2088 42.2957 14.2439 42.6989 14.2439C43.1022 14.2439 43.5055 14.4077 43.9087 14.4195C44.312 14.4312 44.7153 14.3726 45.1185 14.396C45.5218 14.4195 45.925 14.5014 46.3164 14.5365C46.7197 14.5716 47.1111 14.6184 47.5144 14.6653C47.9176 14.7121 48.309 14.7589 48.7123 14.8174C49.1155 14.8759 49.5425 14.7706 49.9339 14.8408C50.3253 14.9111 50.6811 15.2037 51.0725 15.2973C51.4639 15.3793 51.8791 15.391 52.2705 15.4963C52.6619 15.59 53.0533 15.6719 53.4447 15.7889C53.8242 15.8943 54.2037 16.0464 54.5951 16.1752C54.9747 16.2923 55.3424 16.4678 55.7219 16.6083C56.1014 16.737 56.5047 16.8073 56.8842 16.9477C57.2519 17.0882 57.6552 17.1818 58.0347 17.334C58.4024 17.4862 58.7226 17.7554 59.0903 17.9192C59.458 18.0831 59.8613 18.1651 60.2289 18.3406C60.5848 18.5045 60.8931 18.7971 61.2608 18.9727C61.6285 19.1834 61.8894 19.4526 62.008 19.8272C62.1266 20.2017 62.0792 20.5763 61.8657 20.9391C61.6522 21.4542 61.2015 21.7936 60.561 21.7936C60.5373 21.7936 60.5729 21.8638 60.5729 21.8638ZM16.5226 37.9231C16.2023 37.9231 15.894 37.7358 15.6923 37.5251C15.3365 37.2793 15.2416 36.9165 15.1586 36.5536C15.0756 36.1673 15.0637 35.7928 15.2772 35.465C15.5026 35.149 15.6567 34.7627 15.894 34.4584C16.1312 34.1424 16.3684 33.8263 16.6175 33.522C16.8665 33.2177 17.1986 32.9836 17.4596 32.691C17.7205 32.3983 18.017 32.1408 18.2898 31.8599C18.5626 31.579 18.8828 31.3449 19.1556 31.064C19.4403 30.7947 19.7012 30.5021 19.9977 30.2446C20.2942 29.9871 20.567 29.6945 20.8636 29.4487C21.1719 29.2029 21.3854 28.84 21.6938 28.6059C22.0022 28.3718 22.4647 28.3133 22.785 28.0792C23.1052 27.8568 23.3899 27.5642 23.7101 27.3535C24.0422 27.1428 24.3506 26.8853 24.6827 26.6863C25.0148 26.4873 25.418 26.382 25.762 26.1947C26.1059 26.0074 26.3787 25.6914 26.7346 25.5158C27.1022 25.3285 27.4581 25.1529 27.8376 24.9774C28.2053 24.8135 28.6204 24.7316 28.9999 24.5794C29.3795 24.4272 29.7353 24.2282 30.1148 24.0878C30.4944 23.9473 30.8858 23.8303 31.2653 23.7015C31.6567 23.5728 32.06 23.5142 32.4514 23.3972C32.8428 23.2801 33.2342 23.1748 33.6256 23.0812C34.017 22.9758 34.3847 22.7534 34.7761 22.6598C35.1675 22.5661 35.5707 22.4959 35.974 22.4257C36.3772 22.3554 36.7924 22.414 37.1956 22.3554C37.5989 22.2969 37.9903 22.1448 38.3935 22.0979C38.7968 22.0511 39.2001 22.0277 39.6152 21.9926C40.0184 21.9575 40.4217 21.9224 40.8368 21.8989C41.2401 21.8755 41.6552 21.9458 42.0585 21.9341C42.4617 21.9224 42.865 21.8755 43.2801 21.8872C43.6834 21.8872 44.0866 21.9575 44.5018 21.9809C44.905 22.0043 45.3083 22.0394 45.7115 22.0745C46.1148 22.1096 46.5299 22.0862 46.9332 22.133C47.3364 22.1799 47.7634 22.0979 48.1667 22.1682C48.57 22.2267 48.9376 22.4608 49.3409 22.531C49.7442 22.6012 50.1356 22.7066 50.527 22.8002C50.9302 22.8939 51.3572 22.8353 51.7486 22.9407C52.14 23.046 52.4958 23.2918 52.8872 23.4089C53.2786 23.5259 53.6819 23.5845 54.0614 23.7132C54.4528 23.842 54.8205 24.0176 55.2 24.158C55.5796 24.2985 55.9828 24.3921 56.3505 24.556C56.7301 24.7081 57.0977 24.8837 57.4654 25.0476C57.8331 25.2232 58.2245 25.3402 58.5922 25.5275C58.948 25.7031 59.2326 26.0074 59.5766 26.1947C59.9206 26.382 60.3594 26.4171 60.7034 26.6161C61.0473 26.815 61.3201 27.1194 61.6522 27.3418C61.9843 27.5525 62.3401 27.728 62.6604 27.9621C62.9806 28.1845 63.2415 28.4889 63.5618 28.7347C63.8701 28.9805 64.2022 29.1912 64.4988 29.4487C64.7953 29.7062 65.1748 29.8818 65.4595 30.1393C65.756 30.3968 66.0051 30.7128 66.2897 30.982C66.5744 31.2512 66.7286 31.6492 67.0013 31.9301C67.2741 32.2111 67.5944 32.4452 67.8553 32.7495C68.1162 33.0421 68.3297 33.3698 68.5788 33.6742C68.8279 33.9785 69.0651 34.2828 69.3023 34.5989C69.5395 34.9032 69.7886 35.2192 70.0139 35.5353C70.2867 35.8513 70.524 36.2493 70.4409 36.6355C70.3579 37.0218 69.9546 37.2676 69.587 37.4783C69.2193 37.7358 68.8753 37.888 68.4958 37.8177C68.1044 37.7475 67.7486 37.5368 67.5351 37.1623C67.286 36.8228 67.0606 36.46 66.8116 36.1322C66.5506 35.7928 66.3253 35.4416 66.0525 35.1139C65.7797 34.7862 65.4357 34.5286 65.1511 34.2243C64.8664 33.92 64.5225 33.6625 64.226 33.3581C63.9295 33.0655 63.7041 32.691 63.3957 32.3983C63.0873 32.1174 62.7078 31.9067 62.3757 31.6375C62.0555 31.3683 61.7945 31.0171 61.4506 30.7596C61.1185 30.5021 60.7389 30.2914 60.395 30.0573C60.051 29.8232 59.7071 29.5657 59.3512 29.3433C58.9954 29.1209 58.5922 28.9688 58.2126 28.7698C57.845 28.5708 57.4773 28.3367 57.0977 28.1494C56.7419 27.9738 56.3861 27.7983 56.0184 27.6344C55.6507 27.4705 55.2831 27.3067 54.9154 27.1545C54.5477 27.0023 54.1207 27.0023 53.7412 26.8736C53.3616 26.7331 53.0414 26.4639 52.6619 26.3351C52.2823 26.2181 51.9028 26.0542 51.5232 25.9489C51.1437 25.8435 50.7404 25.7733 50.349 25.6797C49.9576 25.586 49.5425 25.6094 49.1511 25.5275C48.7597 25.4456 48.3565 25.4339 47.9651 25.3753C47.5737 25.3168 47.1823 25.2583 46.779 25.1998C46.3876 25.1529 45.9962 25.071 45.5929 25.0359C45.1897 25.0008 44.7983 25.0008 44.395 24.9774C43.9918 24.954 43.6004 24.7433 43.1971 24.7433C42.7938 24.7316 42.3906 24.8837 41.9992 24.8954C41.5959 24.9071 41.2045 24.9657 40.8012 24.9891C40.398 25.0125 39.9947 24.9305 39.6033 24.9657C39.2001 25.0008 38.7968 24.9305 38.3935 24.9774C37.9903 25.0242 37.6107 25.1529 37.2193 25.2232C36.8279 25.2817 36.4484 25.4222 36.0451 25.5041C35.6537 25.586 35.2742 25.7148 34.8828 25.8084C34.4914 25.9021 34.1119 26.0191 33.7323 26.1245C33.3409 26.2298 32.9139 26.183 32.5344 26.3117C32.1549 26.4288 31.7635 26.5224 31.3839 26.6629C31.0044 26.8033 30.6486 27.0023 30.2809 27.1545C29.9132 27.3067 29.5811 27.5525 29.2253 27.7163C28.8576 27.8802 28.4899 28.0207 28.1341 28.2079C27.7546 28.3952 27.3632 28.5591 26.9955 28.7581C26.6278 28.9688 26.2246 29.1092 25.8569 29.3316C25.5011 29.554 25.1808 29.8466 24.8369 30.0807C24.4929 30.3148 24.1252 30.5489 23.7931 30.8065C23.461 31.064 23.1289 31.3332 22.8087 31.6024C22.4885 31.8716 22.2038 32.1993 21.8954 32.4803C21.587 32.7612 21.1956 32.9719 20.8873 33.2645C20.5908 33.5571 20.3654 33.9317 20.0689 34.236C19.7842 34.5403 19.4996 34.8564 19.2268 35.1724C18.954 35.4885 18.7049 35.8279 18.444 36.1556C18.1831 36.4834 17.9103 36.8111 17.6612 37.1506C17.4477 37.5719 17.0326 37.8529 16.5107 37.8529C16.487 37.8177 16.5226 37.9231 16.5226 37.9231ZM35.7486 74.6183C35.3216 74.6183 34.9184 74.431 34.7049 74.115C34.3847 73.7989 34.1593 73.4361 33.8746 73.1317C33.5663 72.8157 33.2105 72.5699 32.9258 72.2656C32.6293 71.9495 32.2735 71.7037 32.0007 71.376C31.7279 71.0482 31.4432 70.7322 31.1704 70.3928C30.9095 70.065 30.7434 69.6671 30.4944 69.3042C30.2572 68.9648 30.0555 68.5902 29.8183 68.2273C29.593 67.8879 29.4269 67.5016 29.1897 67.1154C28.9762 66.7642 28.739 66.4248 28.5136 66.0385C28.312 65.6756 28.0867 65.3245 27.8969 64.9499C27.719 64.5754 27.4106 64.2476 27.2446 63.8614C27.0785 63.4751 27.1378 63.0069 26.9955 62.6089C26.8532 62.2227 26.6397 61.8481 26.5211 61.4501C26.3906 61.0522 26.2246 60.6659 26.1178 60.2562C26.0111 59.8583 26.0229 59.4252 25.9399 59.0155C25.8569 58.6058 25.6197 58.2313 25.5485 57.8099C25.4773 57.4002 25.418 56.9905 25.3587 56.5692C25.3113 56.1595 25.3587 55.7264 25.3231 55.3167C25.2876 54.907 25.2164 54.4857 25.2045 54.076C25.1927 53.6663 25.1927 53.2449 25.1927 52.8236C25.1927 52.4139 25.2876 52.0276 25.3231 51.6297C25.3587 51.2317 25.4062 50.8337 25.4773 50.4474C25.5485 50.0495 25.4892 49.6281 25.5841 49.2418C25.679 48.8556 25.7976 48.4576 25.928 48.083C26.0585 47.6968 26.3194 47.369 26.4736 47.0062C26.6278 46.6316 26.7108 46.2336 26.8887 45.8708C27.0667 45.5079 27.2801 45.1685 27.4818 44.8173C27.6834 44.4662 27.8969 44.1267 28.1341 43.799C28.3713 43.4713 28.6678 43.202 28.9288 42.886C29.1778 42.57 29.4151 42.2422 29.6879 41.9496C29.9606 41.657 30.2809 41.4112 30.5774 41.142C30.8739 40.8728 31.1823 40.6152 31.5025 40.3694C31.8228 40.1119 32.0956 39.8193 32.4277 39.5969C32.7598 39.3628 33.0325 39.0351 33.3765 38.8244C33.7205 38.6137 34.1593 38.5669 34.527 38.3796C34.8828 38.1923 35.2623 38.0518 35.6419 37.888C36.0096 37.7358 36.3417 37.4432 36.7212 37.3144C37.1007 37.1857 37.5277 37.1974 37.931 37.092C38.3224 36.9867 38.7019 36.8345 39.0933 36.7526C39.4847 36.6707 39.888 36.6472 40.3031 36.5887C40.7064 36.5302 41.0978 36.4366 41.5129 36.4131C41.9161 36.3897 42.3194 36.378 42.7345 36.378C43.1378 36.378 43.5529 36.3312 43.9562 36.3546C44.3594 36.378 44.7508 36.5653 45.1422 36.6121C45.5455 36.6707 45.9725 36.5419 46.3757 36.6238C46.779 36.7058 47.1467 36.9048 47.5381 37.0101C47.9295 37.1154 48.3327 37.1857 48.7123 37.3144C49.0918 37.4432 49.4358 37.6773 49.8153 37.8295C50.183 37.9816 50.5625 38.1221 50.9302 38.3094C51.286 38.4966 51.7012 38.5903 52.0451 38.801C52.3891 39.0117 52.7093 39.2692 53.0414 39.4916C53.3735 39.7257 53.5989 40.0885 53.9191 40.3343C54.2393 40.5801 54.5833 40.7791 54.8798 41.06C55.1763 41.3292 55.4254 41.6453 55.6982 41.9379C55.971 42.2305 56.2319 42.5349 56.481 42.8392C56.7301 43.1552 56.991 43.4596 57.2163 43.7873C57.4417 44.115 57.8212 44.3491 58.0347 44.7003C58.2364 45.0397 58.2482 45.4962 58.4261 45.8591C58.604 46.2219 58.8531 46.538 59.0073 46.9125C59.1615 47.2871 59.3157 47.65 59.4461 48.0245C59.5647 48.3991 59.6478 48.797 59.7427 49.1833C59.8375 49.5696 59.8613 49.9675 59.9206 50.3655C59.9799 50.7635 60.1103 51.138 60.1459 51.5477C60.1815 51.9457 60.2645 52.3437 60.2645 52.7416C60.2645 53.163 59.9917 53.5259 59.7071 53.8185C59.4343 54.0994 59.0785 54.3452 58.6159 54.3452C58.1889 54.3452 57.845 54.0877 57.5484 53.7951C57.2638 53.5259 57.074 53.1981 57.074 52.7416C57.074 52.3437 57.0977 51.934 57.0622 51.536C57.0266 51.138 56.908 50.7518 56.8368 50.3538C56.7656 49.9558 56.7063 49.5579 56.5877 49.1833C56.481 48.797 56.3505 48.4225 56.1963 48.0479C56.0421 47.6734 55.888 47.3105 55.6982 46.9594C55.5203 46.6082 55.1763 46.339 54.9628 45.9995C54.7493 45.6601 54.6426 45.2504 54.3935 44.9344C54.1444 44.6184 53.9191 44.2906 53.6344 43.9863C53.3616 43.6937 53.0414 43.4361 52.7449 43.1669C52.4484 42.8977 52.0688 42.7338 51.7486 42.488C51.4284 42.2422 51.0725 42.0784 50.7286 41.856C50.3846 41.6453 50.0525 41.4463 49.6848 41.259C49.329 41.0717 48.9851 40.8728 48.6174 40.7206C48.2497 40.5684 47.8702 40.4514 47.4788 40.3343C47.0992 40.2056 46.7671 39.9129 46.3639 39.8193C45.9725 39.7257 45.5455 39.7959 45.1422 39.7374C44.7508 39.6788 44.3476 39.6905 43.9443 39.6554C43.5411 39.6203 43.1497 39.5033 42.7464 39.5033C42.3313 39.5033 41.928 39.4096 41.5247 39.433C41.1215 39.4682 40.7182 39.5852 40.315 39.6437C39.9117 39.7023 39.5322 39.8544 39.1408 39.9481C38.7494 40.0417 38.3698 40.1939 37.9903 40.3226C37.5989 40.4514 37.2431 40.6035 36.8635 40.7674C36.484 40.9196 36.057 40.943 35.6893 41.1303C35.3335 41.3175 34.954 41.4814 34.61 41.7038C34.2661 41.9262 33.9577 42.1954 33.6374 42.4412C33.3172 42.687 33.0681 43.0148 32.7598 43.284C32.4632 43.5532 32.143 43.8107 31.8702 44.1033C31.5974 44.396 31.3009 44.6769 31.0518 44.9929C30.8027 45.3089 30.5062 45.6016 30.2927 45.941C30.0793 46.2805 29.9369 46.6667 29.7472 47.0296C29.5574 47.3807 29.3676 47.7436 29.2253 48.1181C29.0711 48.4927 28.9525 48.879 28.8339 49.2652C28.7153 49.6515 28.6797 50.0495 28.6085 50.4474C28.5374 50.8337 28.3595 51.22 28.312 51.6297C28.2764 52.0276 28.3476 52.4373 28.3476 52.8353C28.3476 53.2449 28.3595 53.6429 28.3713 54.0526C28.3832 54.4623 28.4306 54.8602 28.4662 55.2699C28.5018 55.6796 28.5255 56.0775 28.573 56.4755C28.6204 56.8852 28.656 57.2832 28.7271 57.6811C28.7983 58.0791 28.9288 58.4654 29.0237 58.8633C29.1185 59.2613 29.1423 59.671 29.2609 60.0572C29.3795 60.4552 29.4506 60.8532 29.593 61.2395C29.7234 61.6257 29.9606 61.9769 30.1148 62.3514C30.269 62.726 30.4113 63.1123 30.5893 63.4751C30.7672 63.838 31.1111 64.1189 31.3128 64.47C31.5144 64.8329 31.5737 65.2426 31.7635 65.5586C31.9769 65.9097 32.2616 66.1907 32.4632 66.5067C32.6886 66.8579 32.8665 67.1856 33.08 67.5016C33.3053 67.8294 33.4714 68.1922 33.7086 68.4966C33.9458 68.8126 34.1593 69.1403 34.4084 69.4447C34.6574 69.7373 35.0726 69.8895 35.3454 70.1821C35.6063 70.463 35.8435 70.7673 36.1282 71.0599C36.3891 71.3292 36.6856 71.5867 36.9703 71.8793C37.2905 72.1953 37.4566 72.6401 37.4566 73.0264C37.4566 73.4127 37.2905 73.8809 36.9703 74.1969C36.6619 74.3959 36.1756 74.5246 35.7486 74.5246C35.713 74.5363 35.7486 74.6183 35.7486 74.6183ZM57.9398 68.9882C57.5129 68.9882 57.0977 68.8945 56.6826 68.8594C56.2556 68.836 55.8524 68.6955 55.4491 68.637C55.034 68.5785 54.607 68.6019 54.2037 68.5317C53.7886 68.4497 53.3498 68.4614 52.9584 68.3444C52.5551 68.2273 52.14 68.122 51.7486 67.9815C51.3572 67.8411 51.0014 67.5836 50.6218 67.4197C50.2423 67.2441 49.8865 67.0217 49.5307 66.811C49.163 66.612 48.8427 66.3428 48.4988 66.1087C48.1548 65.8863 47.8109 65.6756 47.4906 65.4181C47.1704 65.1723 46.8383 64.9382 46.5299 64.669C46.2215 64.3998 45.8301 64.2125 45.5574 63.9199C45.2727 63.6273 45.1778 63.1708 44.9169 62.8547C44.6559 62.5387 44.3476 62.2695 44.1222 61.9418C43.885 61.614 43.6241 61.298 43.4106 60.9468C43.1971 60.5957 43.1141 60.186 42.9243 59.8232C42.7464 59.4603 42.438 59.156 42.2838 58.7814C42.1296 58.4068 41.9873 58.0206 41.8568 57.6343C41.7382 57.248 41.7145 56.8384 41.6196 56.4404C41.5247 56.0424 41.4061 55.6562 41.335 55.2582C41.2757 54.8602 41.2401 54.4506 41.2045 54.0526C41.1689 53.6546 41.2282 53.2449 41.2282 52.847C41.2282 52.4256 41.3706 52.0861 41.6671 51.7935C41.9399 51.5126 42.272 51.2317 42.7345 51.2317C43.209 51.2317 43.6359 51.4073 43.9206 51.6765C44.2052 51.9457 44.229 52.3671 44.229 52.847C44.229 53.2332 44.3357 53.6312 44.3713 54.0175C44.4069 54.4037 44.4543 54.8017 44.5255 55.1763C44.5966 55.5625 44.7034 55.9371 44.8101 56.3116C44.9169 56.6862 44.9643 57.0842 45.1185 57.447C45.2608 57.8099 45.4625 58.1493 45.6404 58.5005C45.8183 58.8516 45.9606 59.2262 46.1741 59.5539C46.3757 59.8817 46.6011 60.2211 46.8383 60.5372C47.0755 60.8532 47.3839 61.1107 47.6448 61.4033C47.9058 61.6959 48.2734 61.8832 48.57 62.1524C48.8546 62.4217 49.0444 62.7962 49.3528 63.042C49.6611 63.2878 49.9695 63.5453 50.3016 63.756C50.6337 63.9667 51.0488 64.0487 51.3928 64.2359C51.7367 64.4232 52.0333 64.7275 52.3891 64.8797C52.7449 65.0319 53.1482 65.1138 53.5158 65.2309C53.8835 65.3479 54.2631 65.4884 54.6426 65.5703C55.0221 65.6522 55.4254 65.6639 55.8168 65.7225C56.1963 65.781 56.5877 65.8161 56.991 65.8395C57.3705 65.8629 57.7738 65.8161 58.1652 65.8161C58.4498 65.8161 58.8294 65.9449 59.2326 65.9097C59.5647 65.8863 59.9087 65.6639 60.2645 65.6171C60.6085 65.5703 60.988 65.6288 61.332 65.5703C61.759 65.5235 62.1741 65.582 62.4943 65.8044C62.8027 66.0268 62.9687 66.4014 63.0755 66.811C63.1229 67.2324 63.0518 67.607 62.8264 67.923C62.6011 68.2273 62.2927 68.5668 61.8657 68.6604C61.4031 68.7072 60.9524 68.7072 60.5492 68.7424C60.0629 68.7892 59.6122 68.6721 59.2326 68.6955C58.5922 68.7424 58.1296 68.8477 57.928 68.8477C57.8924 68.8945 57.9398 68.9882 57.9398 68.9882ZM51.7012 75.2503C51.5944 75.2503 51.3928 75.1684 51.286 75.0631C50.8828 74.9577 50.527 74.7353 50.1474 74.6183C49.756 74.5012 49.3409 74.4544 48.9732 74.3256C48.5818 74.1852 48.1667 74.1501 47.799 73.9979C47.4195 73.8457 47.0281 73.7053 46.6723 73.5531C46.3046 73.3892 45.9725 73.12 45.6167 72.9445C45.2608 72.7572 44.9287 72.5231 44.5729 72.3241C44.229 72.1251 43.9087 71.8676 43.5766 71.6452C43.2445 71.4228 42.8887 71.2238 42.5685 70.9897C42.2482 70.7556 41.9043 70.5449 41.5959 70.2874C41.2875 70.0416 40.8843 69.8777 40.5878 69.6085C40.2912 69.351 40.1489 68.9062 39.8524 68.6253C39.5677 68.3444 39.2475 68.122 38.9866 67.8294C38.7256 67.5367 38.4173 67.2792 38.1682 66.9749C37.9191 66.6706 37.7649 66.296 37.5396 65.98C37.3024 65.6639 36.9584 65.4298 36.7449 65.1021C36.5314 64.7744 36.3179 64.4466 36.1163 64.1072C35.9147 63.7677 35.8198 63.3815 35.63 63.0303C35.4521 62.6792 35.2386 62.3514 35.0726 61.9886C34.9065 61.6257 34.7761 61.2629 34.6337 60.9C34.4914 60.5372 34.4202 60.1509 34.3016 59.7763C34.183 59.4018 34.0763 59.0272 33.9695 58.6526C33.8628 58.2781 33.6374 57.9269 33.5544 57.5407C33.4714 57.1544 33.4121 56.7681 33.3409 56.3819C33.2816 55.9956 33.3646 55.5976 33.3291 55.1997C33.2935 54.8134 33.163 54.4271 33.1512 54.0409C33.1274 53.6546 33.1393 53.2566 33.1393 52.8704C33.1393 52.4607 33.163 52.0627 33.2105 51.6765C33.2698 51.2785 33.4358 50.9039 33.5426 50.5294C33.6612 50.1431 33.7442 49.7568 33.9102 49.394C34.0763 49.0311 34.3135 48.7034 34.527 48.364C34.7405 48.0245 34.9777 47.7202 35.2386 47.4041C35.4996 47.0998 35.713 46.7604 36.0096 46.4912C36.3061 46.2219 36.5314 45.8591 36.8635 45.625C37.1956 45.3909 37.6226 45.3207 37.9903 45.1334C38.3461 44.9461 38.7138 44.8056 39.0933 44.6535C39.4729 44.513 39.805 44.2555 40.2082 44.1502C40.5996 44.0565 41.0147 44.1267 41.4299 44.0799C41.8213 44.0331 42.2245 43.9512 42.6278 43.9512C43.0429 43.9512 43.4343 44.0097 43.8376 44.0565C44.2408 44.1033 44.6559 44.115 45.0473 44.2087C45.4506 44.3023 45.8301 44.4311 46.2097 44.5715C46.5892 44.712 46.9925 44.829 47.3483 45.0163C47.7041 45.2036 47.9769 45.543 48.309 45.7654C48.6411 45.9995 49.08 46.1049 49.3765 46.3741C49.673 46.6433 49.8746 47.0179 50.1237 47.3339C50.3846 47.6382 50.6693 47.9426 50.8709 48.282C51.0844 48.6215 51.1911 49.0194 51.3572 49.3823C51.5232 49.7451 51.6893 50.108 51.796 50.4943C51.9028 50.8805 52.0926 51.2551 52.1519 51.6531C52.2112 52.0393 52.1874 52.4607 52.1874 52.8704C52.1874 53.2801 52.0807 53.7014 52.1637 54.0877C52.2467 54.4857 52.4602 54.8602 52.6381 55.2231C52.8042 55.5859 52.9821 55.9722 53.2193 56.2999C53.4565 56.616 53.7412 56.9437 54.0496 57.2129C54.3461 57.4822 54.7019 57.728 55.0458 57.9386C55.3898 58.1493 55.8405 58.161 56.22 58.3015C56.5996 58.442 56.9317 58.758 57.3468 58.8282C57.7382 58.8985 58.1652 58.8516 58.5803 58.8516C58.9954 58.8516 59.4106 58.7931 59.802 58.7229C60.2171 58.6526 60.6203 58.5707 60.9999 58.442C61.3913 58.3015 61.7945 58.161 62.1385 57.9621C62.4943 57.7514 62.779 57.447 63.0873 57.1778C63.3957 56.9086 63.6092 56.5692 63.8583 56.2414C64.0955 55.9137 64.4157 55.6328 64.5818 55.2582C64.7478 54.8953 64.7953 54.4857 64.8783 54.076C64.9613 53.6897 65.1274 53.2918 65.1274 52.8821C65.1274 52.4841 65.0799 52.0744 65.0562 51.6765C65.0325 51.2785 65.0325 50.8688 64.985 50.4709C64.9376 50.0729 64.8071 49.6866 64.736 49.2887C64.6648 48.8907 64.6055 48.4927 64.5106 48.1064C64.4157 47.7202 64.2971 47.3339 64.1785 46.9476C64.0599 46.5614 63.9295 46.1868 63.7753 45.8123C63.6329 45.4377 63.3246 45.1334 63.1585 44.7705C62.9925 44.4077 62.9569 43.9746 62.7671 43.6234C62.5773 43.2723 62.4113 42.8977 62.1978 42.5583C61.9843 42.2188 61.7352 41.9028 61.498 41.5633C61.2727 41.2356 60.9406 40.9781 60.6915 40.6621C60.4424 40.346 60.1459 40.0768 59.8731 39.7842C59.6122 39.4799 59.3394 39.1989 59.0547 38.9063C58.7701 38.6254 58.5091 38.3211 58.2126 38.0518C57.9161 37.7826 57.5959 37.5485 57.2756 37.291C56.9673 37.0335 56.7656 36.6355 56.4335 36.4014C56.1133 36.1673 55.6863 36.062 55.3424 35.8396C54.9984 35.6172 54.6307 35.465 54.2868 35.2661C53.9428 35.0671 53.6344 34.7862 53.2668 34.6106C52.9109 34.435 52.5907 34.1541 52.2112 33.9902C51.8435 33.8263 51.4402 33.7444 51.0607 33.6039C50.6811 33.4635 50.2779 33.3933 49.8865 33.2762C49.5069 33.1592 49.1037 33.0889 48.7123 32.9836C48.3209 32.8782 47.9295 32.808 47.5262 32.7261C47.1348 32.6441 46.7671 32.41 46.3639 32.3515C45.9606 32.293 45.5692 32.1993 45.166 32.1525C44.7627 32.1174 44.3476 32.1408 43.9443 32.1174C43.5411 32.094 43.1378 32.1759 42.7227 32.1759C42.3194 32.1759 41.9161 32.1525 41.5247 32.1642C41.1215 32.1876 40.7182 32.1759 40.3268 32.2111C39.9236 32.2462 39.5203 32.2228 39.1289 32.2813C38.7375 32.3398 38.3461 32.4803 37.9547 32.5622C37.5633 32.6441 37.16 32.7027 36.7805 32.808C36.3891 32.9134 36.0096 33.0304 35.63 33.1475C35.2505 33.2645 34.8828 33.4518 34.5151 33.5922C34.1356 33.7327 33.7205 33.7678 33.3528 33.92C32.9851 34.0721 32.6649 34.3297 32.2972 34.5052C31.9414 34.6808 31.5855 34.8681 31.2416 35.0554C30.8976 35.2544 30.5537 35.465 30.2216 35.6757C29.8895 35.8864 29.5455 36.0971 29.2134 36.3312C28.8932 36.5653 28.5492 36.776 28.2409 37.0218C27.9325 37.2676 27.6597 37.5602 27.3513 37.8295C27.0548 38.087 26.7108 38.3094 26.4262 38.5903C26.1415 38.8712 25.8332 39.1287 25.5604 39.4213C25.2994 39.714 25.1097 40.0768 24.8487 40.3928C24.5996 40.6972 24.3269 40.9898 24.0896 41.3175C23.8643 41.6336 23.7813 42.055 23.5678 42.3944C23.3543 42.7338 23.0222 42.9914 22.8324 43.3425C22.6426 43.6937 22.5478 44.0799 22.3699 44.4428C22.1919 44.8173 22.0022 45.1919 21.848 45.5899C21.6938 45.9761 21.4803 46.3507 21.3617 46.7604C21.2431 47.1583 21.077 47.5563 20.9822 47.966C20.8873 48.364 21.0059 48.8204 20.9347 49.2418C20.8636 49.6515 20.7687 50.0495 20.7212 50.4709C20.6738 50.8805 20.6619 51.3019 20.6382 51.7233C20.6145 52.133 20.5908 52.5543 20.5908 52.9757C20.5908 53.362 20.6145 53.7717 20.6382 54.2165C20.6501 54.6027 20.567 55.0241 20.6026 55.4689C20.6382 55.8669 20.5908 56.2882 20.6501 56.7213C20.6975 57.1193 20.9584 57.4939 21.0296 57.9269C21.1008 58.3249 20.994 58.7697 21.0889 59.1794C21.1719 59.5773 21.338 59.9636 21.4447 60.3733C21.5515 60.7596 21.6701 61.1575 21.8005 61.5672C21.9191 61.9535 22.1445 62.3163 22.2868 62.7143C22.4173 63.1006 22.4647 63.5219 22.6189 63.9199C22.7731 64.3296 22.7138 64.7041 22.5715 65.0436C22.4173 65.4064 22.1682 65.6874 21.7887 65.8395C21.3736 65.9917 20.9703 66.0619 20.6145 65.9097C20.2468 65.7576 19.891 65.4533 19.7249 65.0787C19.5826 64.6924 19.5945 64.2593 19.464 63.8731C19.3335 63.4868 19.2031 63.1005 19.0963 62.7026C18.9777 62.3046 18.7286 61.9535 18.6219 61.5672C18.5152 61.1692 18.4203 60.7713 18.3254 60.3733C18.2305 59.9753 18.3372 59.5422 18.2661 59.1326C18.1949 58.7346 17.9577 58.36 17.8984 57.9503C17.8391 57.5407 17.9103 57.131 17.8628 56.7213C17.8154 56.3116 17.6968 55.9137 17.6612 55.5157C17.6256 55.106 17.5307 54.7081 17.5189 54.2984C17.507 53.8887 17.6849 53.479 17.6849 53.0694C17.6849 52.648 17.5189 52.2149 17.5426 51.8052C17.5663 51.3838 17.6019 50.9625 17.6375 50.5411C17.673 50.1197 17.7205 49.6983 17.7798 49.2769C17.8391 48.8556 18.0763 48.4693 18.1593 48.0596C18.2424 47.6382 18.1712 47.1935 18.2779 46.7955C18.3847 46.3858 18.5626 45.9878 18.7049 45.6016C18.8354 45.2036 19.0726 44.8407 19.2386 44.4428C19.4047 44.0448 19.5707 43.6702 19.7605 43.2957C19.9384 42.9211 20.0808 42.5466 20.2824 42.1837C20.484 41.8209 20.7212 41.4931 20.9347 41.142C21.1482 40.7908 21.2905 40.3928 21.5277 40.0534C21.765 39.714 22.0259 39.3979 22.275 39.0702C22.524 38.7424 22.7968 38.4264 23.0696 38.1221C23.3424 37.806 23.6389 37.5251 23.9236 37.2325C24.2082 36.9399 24.4692 36.6121 24.7776 36.3312C25.0741 36.0503 25.4062 35.7928 25.7145 35.5236C26.0229 35.2544 26.3432 34.9968 26.6753 34.7393C26.9955 34.4818 27.4225 34.3648 27.7546 34.119C28.0867 33.8849 28.4069 33.6157 28.7509 33.3933C29.0948 33.1709 29.4032 32.8899 29.7709 32.6793C30.1267 32.4803 30.4707 32.2345 30.8383 32.0472C31.206 31.8599 31.5737 31.6609 31.9532 31.4853C32.3328 31.3215 32.7598 31.2747 33.1512 31.1225C33.5307 30.9703 33.9102 30.8065 34.3135 30.6777C34.7049 30.5489 35.0726 30.35 35.4758 30.2329C35.8672 30.1159 36.3061 30.1276 36.7093 30.0339C37.1126 29.9403 37.5277 29.9169 37.931 29.8349C38.3342 29.753 38.7375 29.7062 39.1526 29.6477C39.5559 29.5891 39.9591 29.4838 40.3743 29.4487C40.7894 29.4136 41.1926 29.3082 41.6078 29.2848C42.0229 29.2614 42.438 29.3082 42.8531 29.3082C43.2564 29.3082 43.6715 29.2029 44.0748 29.2263C44.478 29.2497 44.8932 29.2497 45.2964 29.2848C45.6997 29.3199 46.1029 29.437 46.4943 29.4955C46.8976 29.554 47.3009 29.6125 47.6923 29.6828C48.0955 29.753 48.4751 29.9052 48.8665 29.9988C49.2579 30.0924 49.6374 30.2563 50.0169 30.3734C50.4083 30.4787 50.8591 30.4085 51.2386 30.5372C51.63 30.666 51.9502 30.9586 52.3298 31.0991C52.7093 31.2395 53.077 31.4034 53.4447 31.5673C53.8123 31.7311 54.2275 31.8014 54.5951 31.977C54.9628 32.1525 55.3068 32.3749 55.6626 32.5622C56.0184 32.7612 56.4098 32.8899 56.7538 33.1006C57.0977 33.3113 57.4298 33.5454 57.7619 33.7795C58.094 34.0019 58.3431 34.3414 58.6752 34.5872C58.9954 34.833 59.3394 35.0437 59.6478 35.3012C59.9561 35.5587 60.3001 35.7811 60.5966 36.0503C60.8931 36.3195 61.1066 36.6707 61.3913 36.9633C61.6759 37.2442 62.0199 37.4666 62.2927 37.7709C62.5655 38.0753 62.7671 38.4147 63.028 38.7307C63.2771 39.0468 63.6448 39.2692 63.882 39.5969C64.1192 39.9246 64.309 40.2875 64.5225 40.6152C64.7478 40.9547 64.9495 41.2941 65.1511 41.6453C65.3527 41.9964 65.5899 42.3242 65.7797 42.6753C65.9695 43.0265 66.183 43.3776 66.349 43.7405C66.5151 44.1033 66.6574 44.4896 66.7997 44.8642C66.942 45.2387 66.942 45.6601 67.0725 46.0464C67.203 46.4209 67.4283 46.7721 67.5351 47.1583C67.6418 47.5446 67.6893 47.9426 67.7723 48.3405C67.8553 48.7268 67.8435 49.1365 67.9146 49.5345C67.9739 49.9324 68.14 50.307 68.1755 50.705C68.223 51.1029 68.14 51.5009 68.1637 51.9106C68.1874 52.3085 68.2349 52.7065 68.2349 53.1045C68.2349 53.5142 68.2704 53.9121 68.223 54.2984C68.1637 54.6964 67.9739 55.0592 67.8672 55.4455C67.7486 55.8317 67.7604 56.2531 67.5944 56.616C67.4283 56.9788 67.0844 57.248 66.8709 57.5875C66.6574 57.9269 66.5625 58.3483 66.3016 58.6526C66.0406 58.957 65.8034 59.3081 65.5069 59.5773C65.2104 59.8466 64.8664 60.0807 64.5343 60.3148C64.2022 60.5489 63.8346 60.7244 63.4787 60.9234C63.1229 61.1107 62.7434 61.2746 62.3638 61.415C61.9843 61.5555 61.581 61.614 61.1896 61.7077C60.7982 61.8013 60.4068 61.9183 60.0036 61.9652C59.6122 62.012 59.1971 62.129 58.7938 62.129C58.3787 62.129 57.9873 61.9418 57.584 61.8949C57.1808 61.8481 56.7656 61.8481 56.3742 61.7428C55.9828 61.6491 55.5559 61.6023 55.1882 61.4618C54.8086 61.3214 54.4765 61.0405 54.1326 60.8532C53.7768 60.6659 53.4091 60.4786 53.077 60.2445C52.7449 60.0104 52.5077 59.671 52.2112 59.4018C51.9146 59.1326 51.547 58.9219 51.286 58.6175C51.0251 58.3132 50.8353 57.9503 50.6218 57.6109C50.4083 57.2715 50.3016 56.8852 50.1356 56.5223C49.9695 56.1595 49.6255 55.8552 49.5069 55.4689C49.4002 55.0826 49.5188 54.6495 49.4714 54.2516C49.4121 53.8653 49.2341 53.479 49.2341 53.0694C49.2341 52.6597 49.2341 52.2617 49.1393 51.8755C49.0562 51.4775 48.8309 51.138 48.6648 50.7752C48.4988 50.4123 48.4632 49.9558 48.2141 49.6398C47.9769 49.3238 47.5618 49.1365 47.2653 48.8556C46.9688 48.5863 46.6604 48.3405 46.3046 48.1299C45.9606 47.9192 45.6167 47.7085 45.2253 47.568C44.8457 47.4276 44.4425 47.369 44.0392 47.2988C43.6478 47.2286 43.2445 47.1349 42.8294 47.1349C42.4143 47.1349 42.011 47.2286 41.6196 47.2988C41.2045 47.369 40.7894 47.3924 40.4217 47.5212C40.0303 47.6617 39.6389 47.8138 39.295 48.0128C38.9391 48.2235 38.5715 48.4342 38.2749 48.7034C37.9666 48.9726 37.7293 49.3238 37.4803 49.6515C37.2431 49.9792 37.16 50.4006 36.994 50.7635C36.8279 51.1263 36.5789 51.4658 36.4958 51.8638C36.4128 52.25 36.5077 52.6597 36.5077 53.0694C36.5077 53.4673 36.484 53.8536 36.5077 54.2399C36.5314 54.6378 36.401 55.0358 36.4365 55.4338C36.484 55.82 36.7331 56.1829 36.8042 56.5692C36.8754 56.9554 36.7568 57.3768 36.8517 57.7631C36.9465 58.1493 37.2193 58.4771 37.3261 58.8516C37.4447 59.2262 37.5633 59.6008 37.6938 59.9636C37.8361 60.3265 37.8835 60.7361 38.0496 61.099C38.2156 61.4618 38.5003 61.7545 38.6901 62.1056C38.8798 62.4568 39.0459 62.8079 39.2475 63.1474C39.4491 63.4868 39.5915 63.8614 39.8168 64.1891C40.0422 64.5051 40.2675 64.8446 40.5166 65.1489C40.7657 65.4533 41.1689 65.6405 41.4299 65.9215C41.6908 66.2141 41.845 66.612 42.1296 66.893C42.4143 67.1622 42.6989 67.4314 42.9836 67.6772C43.2801 67.9347 43.6241 68.1337 43.9206 68.3795C44.229 68.6253 44.5966 68.7775 44.905 68.9999C45.2253 69.234 45.4269 69.6202 45.7471 69.8192C46.0674 70.0299 46.4706 70.1353 46.8027 70.3225C47.1348 70.5098 47.5144 70.6269 47.8702 70.8024C48.2141 70.9663 48.4988 71.2823 48.8665 71.4345C49.2223 71.5867 49.6493 71.5516 50.0288 71.6803C50.3846 71.8091 50.7049 72.0549 51.0963 72.1719C51.4639 72.289 51.8553 72.3124 52.2467 72.4177C52.6737 72.5231 53.0533 72.7923 53.2312 73.1317C53.4091 73.4712 53.4447 73.9394 53.3379 74.3491C53.1719 74.5129 52.9228 74.8056 52.6263 74.9694C52.3535 75.145 51.9977 75.2503 51.7012 75.2503Z" fill="white"/>
</svg>
