<svg width="336" height="267" viewBox="0 0 336 267" fill="none" xmlns="http://www.w3.org/2000/svg">
<path fill-rule="evenodd" clip-rule="evenodd" d="M171.414 0.0252743C221.605 0.0252743 254.599 47.7468 254.599 97.877C254.599 143.801 217.394 181.098 171.414 181.098C122.927 181.098 79.3668 146.305 79.3668 97.877C79.3668 45.4432 118.917 0.0252743 171.414 0.0252743Z" fill="#F99D1F"/>
<path d="M203.304 43.4012C202.866 43.4012 202.233 43.0168 201.794 42.8005C201.064 42.4401 200.431 41.8874 199.701 41.551C198.97 41.1906 198.142 41.0224 197.412 40.71C196.657 40.3736 195.829 40.2535 195.099 39.9651C194.344 39.6528 193.565 39.4125 192.81 39.1241C192.055 38.8358 191.349 38.3792 190.594 38.1149C189.815 37.8506 189.085 37.5142 188.306 37.2739C187.526 37.0336 186.772 36.6972 185.993 36.505C185.213 36.2887 184.386 36.1686 183.606 35.9764C182.803 35.7841 181.999 35.7121 181.196 35.5439C180.392 35.3997 179.565 35.5198 178.761 35.3997C177.958 35.2795 177.227 34.7029 176.424 34.6067C175.62 34.5106 174.792 34.5827 173.989 34.5106C173.185 34.4385 172.358 34.4866 171.554 34.4385C170.751 34.3905 169.947 34.1262 169.119 34.1021C168.316 34.0781 167.488 34.3665 166.685 34.3665C165.857 34.3665 165.053 34.3905 164.25 34.4145C163.422 34.4385 162.618 34.2703 161.791 34.3184C160.987 34.3665 160.159 34.5347 159.356 34.6067C158.552 34.6788 157.724 34.7509 156.921 34.847C156.117 34.9431 155.29 34.9191 154.486 35.0633C153.683 35.1834 152.879 35.3276 152.076 35.4958C151.272 35.64 150.542 36.0965 149.738 36.2887C148.935 36.481 148.156 36.6492 147.376 36.8654C146.597 37.0817 145.721 37.0336 144.942 37.2739C144.163 37.5142 143.432 37.9467 142.677 38.187C141.898 38.4513 141.143 38.6916 140.364 38.9799C139.609 39.2683 138.855 39.5807 138.1 39.893C137.345 40.2054 136.542 40.3736 135.787 40.71C135.056 41.0464 134.35 41.4789 133.62 41.8394C132.889 42.1998 132.11 42.4881 131.404 42.8726C130.649 43.3051 129.919 43.3051 129.14 43.0648C128.361 42.8245 127.655 42.4641 127.241 41.7192C126.802 40.9743 126.51 40.0853 126.754 39.3163C126.997 38.5474 127.801 38.0428 128.555 37.6343C129.286 37.2499 130.041 36.9135 130.771 36.5531C131.502 36.1926 132.135 35.5679 132.889 35.2075C133.644 34.8711 134.521 34.799 135.275 34.4866C136.03 34.1742 136.761 33.7417 137.516 33.4293C138.295 33.141 139.098 32.9007 139.877 32.6364C140.656 32.3721 141.387 31.9876 142.19 31.7233C142.969 31.459 143.773 31.2427 144.576 31.0025C145.38 30.7622 146.135 30.4258 146.938 30.2335C147.742 30.0413 148.618 30.1134 149.422 29.9452C150.225 29.777 150.956 29.2243 151.783 29.0561C152.587 28.912 153.464 28.9841 154.267 28.8639C155.095 28.7438 155.898 28.5035 156.702 28.4074C157.53 28.3113 158.357 28.3833 159.185 28.3113C160.013 28.2392 160.817 28.095 161.644 28.0469C162.472 27.9989 163.3 27.7346 164.128 27.7105C164.956 27.6865 165.784 27.7586 166.611 27.7586C167.439 27.7586 168.267 28.095 169.095 28.119C169.923 28.1431 170.751 28.0229 171.578 28.071C172.406 28.119 173.234 28.2872 174.038 28.3593C174.865 28.4314 175.669 28.5275 176.497 28.6236C177.325 28.7197 178.128 28.8159 178.956 28.936C179.784 29.0561 180.66 28.8399 181.464 28.9841C182.267 29.1282 182.998 29.7289 183.801 29.9212C184.605 30.0894 185.457 30.1134 186.26 30.3297C187.064 30.5219 187.867 30.6901 188.671 30.9304C189.45 31.1466 190.229 31.459 191.033 31.7233C191.812 31.9636 192.567 32.324 193.346 32.6124C194.125 32.8767 194.953 33.0209 195.732 33.3092C196.487 33.5975 197.314 33.7898 198.094 34.1021C198.848 34.4145 199.506 34.9672 200.261 35.3036C201.015 35.64 201.843 35.8082 202.598 36.1686C203.328 36.505 203.961 37.1057 204.716 37.4661C205.471 37.8987 206.007 38.4513 206.25 39.2202C206.494 39.9892 206.396 40.7581 205.958 41.503C205.52 42.5602 204.594 43.257 203.28 43.257C203.231 43.257 203.304 43.4012 203.304 43.4012ZM112.875 76.3684C112.218 76.3684 111.585 75.984 111.171 75.5515C110.44 75.0469 110.246 74.302 110.075 73.5571C109.905 72.7642 109.88 71.9952 110.319 71.3224C110.781 70.6737 111.098 69.8807 111.585 69.256C112.072 68.6072 112.559 67.9584 113.07 67.3337C113.581 66.709 114.263 66.2284 114.799 65.6277C115.334 65.0269 115.943 64.4983 116.503 63.9216C117.063 63.3449 117.721 62.8644 118.281 62.2877C118.865 61.735 119.401 61.1343 120.009 60.6057C120.618 60.0771 121.178 59.4763 121.787 58.9717C122.42 58.4671 122.858 57.7223 123.491 57.2417C124.124 56.7611 125.074 56.641 125.731 56.1604C126.388 55.7039 126.973 55.1031 127.63 54.6706C128.312 54.2381 128.945 53.7095 129.627 53.301C130.308 52.8925 131.136 52.6762 131.842 52.2918C132.549 51.9073 133.109 51.2586 133.839 50.8981C134.594 50.5137 135.324 50.1532 136.103 49.7928C136.858 49.4564 137.71 49.2882 138.489 48.9758C139.269 48.6635 139.999 48.255 140.778 47.9666C141.557 47.6783 142.361 47.438 143.14 47.1737C143.943 46.9094 144.771 46.7892 145.575 46.549C146.378 46.3087 147.182 46.0924 147.985 45.9002C148.789 45.6839 149.543 45.2274 150.347 45.0352C151.15 44.8429 151.978 44.6988 152.806 44.5546C153.634 44.4104 154.486 44.5306 155.314 44.4104C156.142 44.2903 156.945 43.9779 157.773 43.8818C158.601 43.7857 159.429 43.7376 160.281 43.6655C161.109 43.5934 161.937 43.5214 162.789 43.4733C163.617 43.4252 164.469 43.5694 165.297 43.5454C166.125 43.5214 166.952 43.4252 167.805 43.4493C168.632 43.4493 169.46 43.5934 170.312 43.6415C171.14 43.6896 171.968 43.7616 172.796 43.8337C173.624 43.9058 174.476 43.8578 175.304 43.9539C176.132 44.05 177.008 43.8818 177.836 44.026C178.664 44.1461 179.419 44.6267 180.246 44.7708C181.074 44.915 181.878 45.1313 182.681 45.3235C183.509 45.5157 184.386 45.3956 185.189 45.6118C185.993 45.8281 186.723 46.3327 187.526 46.573C188.33 46.8133 189.158 46.9334 189.937 47.1977C190.74 47.462 191.495 47.8225 192.274 48.1108C193.053 48.3992 193.881 48.5914 194.636 48.9278C195.415 49.2402 196.17 49.6006 196.925 49.937C197.68 50.2974 198.483 50.5377 199.238 50.9222C199.968 51.2826 200.553 51.9073 201.259 52.2918C201.965 52.6762 202.866 52.7483 203.572 53.1568C204.278 53.5653 204.838 54.1901 205.52 54.6466C206.201 55.0791 206.932 55.4395 207.589 55.9201C208.247 56.3767 208.782 57.0014 209.44 57.506C210.073 58.0106 210.755 58.4431 211.363 58.9717C211.972 59.5004 212.751 59.8608 213.335 60.3894C213.944 60.9181 214.455 61.5668 215.04 62.1195C215.624 62.6721 215.941 63.4891 216.501 64.0658C217.061 64.6425 217.718 65.1231 218.254 65.7478C218.789 66.3485 219.228 67.0213 219.739 67.6461C220.25 68.2708 220.737 68.8955 221.224 69.5443C221.711 70.1691 222.222 70.8178 222.685 71.4666C223.245 72.1154 223.732 72.9324 223.562 73.7253C223.391 74.5182 222.563 75.0228 221.809 75.4554C221.054 75.984 220.348 76.2964 219.569 76.1522C218.765 76.008 218.035 75.5755 217.596 74.8066C217.085 74.1098 216.622 73.3649 216.111 72.6921C215.575 71.9952 215.113 71.2744 214.553 70.6016C213.993 69.9288 213.287 69.4002 212.702 68.7754C212.118 68.1507 211.412 67.622 210.803 66.9973C210.195 66.3966 209.732 65.6277 209.099 65.0269C208.466 64.4503 207.687 64.0177 207.005 63.4651C206.348 62.9124 205.812 62.1916 205.106 61.6629C204.424 61.1343 203.645 60.7018 202.939 60.2212C202.233 59.7407 201.527 59.212 200.796 58.7555C200.066 58.2989 199.238 57.9866 198.459 57.5781C197.704 57.1696 196.949 56.689 196.17 56.3046C195.44 55.9441 194.709 55.5837 193.954 55.2473C193.2 54.9109 192.445 54.5745 191.69 54.2621C190.935 53.9498 190.059 53.9498 189.28 53.6854C188.5 53.3971 187.843 52.8444 187.064 52.5801C186.285 52.3398 185.506 52.0034 184.726 51.7872C183.947 51.5709 183.119 51.4268 182.316 51.2345C181.512 51.0423 180.66 51.0904 179.857 50.9222C179.053 50.754 178.225 50.7299 177.422 50.6098C176.619 50.4896 175.815 50.3695 174.987 50.2494C174.184 50.1532 173.38 49.985 172.552 49.913C171.725 49.8409 170.921 49.8409 170.093 49.7928C169.265 49.7448 168.462 49.3122 167.634 49.3122C166.806 49.2882 165.978 49.6006 165.175 49.6246C164.347 49.6486 163.544 49.7688 162.716 49.8168C161.888 49.8649 161.06 49.6967 160.257 49.7688C159.429 49.8409 158.601 49.6967 157.773 49.7928C156.945 49.8889 156.166 50.1532 155.363 50.2974C154.559 50.4176 153.78 50.7059 152.952 50.8741C152.149 51.0423 151.37 51.3066 150.566 51.4988C149.763 51.6911 148.983 51.9314 148.204 52.1476C147.401 52.3639 146.524 52.2678 145.745 52.5321C144.966 52.7724 144.163 52.9646 143.383 53.2529C142.604 53.5413 141.874 53.9498 141.119 54.2621C140.364 54.5745 139.682 55.0791 138.952 55.4155C138.197 55.7519 137.442 56.0403 136.712 56.4247C135.933 56.8092 135.129 57.1456 134.375 57.5541C133.62 57.9866 132.792 58.2749 132.037 58.7315C131.307 59.188 130.649 59.7887 129.943 60.2693C129.237 60.7499 128.482 61.2304 127.801 61.7591C127.119 62.2877 126.437 62.8403 125.78 63.393C125.122 63.9457 124.538 64.6185 123.905 65.1951C123.272 65.7718 122.468 66.2043 121.835 66.8051C121.227 67.4058 120.764 68.1747 120.155 68.7994C119.571 69.4242 118.987 70.0729 118.427 70.7217C117.867 71.3705 117.355 72.0673 116.82 72.7401C116.284 73.4129 115.724 74.0857 115.213 74.7826C114.774 75.6476 113.922 76.2243 112.851 76.2243C112.802 76.1522 112.875 76.3684 112.875 76.3684ZM152.343 151.698C151.467 151.698 150.639 151.314 150.201 150.665C149.543 150.016 149.081 149.271 148.496 148.646C147.863 147.998 147.133 147.493 146.549 146.868C145.94 146.22 145.21 145.715 144.65 145.042C144.089 144.369 143.505 143.721 142.945 143.024C142.409 142.351 142.069 141.534 141.557 140.789C141.07 140.092 140.656 139.323 140.169 138.578C139.707 137.882 139.366 137.089 138.879 136.296C138.441 135.575 137.954 134.878 137.491 134.085C137.077 133.34 136.615 132.619 136.225 131.85C135.86 131.082 135.227 130.409 134.886 129.616C134.545 128.823 134.667 127.862 134.375 127.045C134.082 126.252 133.644 125.483 133.401 124.666C133.133 123.849 132.792 123.056 132.573 122.215C132.354 121.398 132.378 120.509 132.208 119.668C132.037 118.827 131.55 118.058 131.404 117.193C131.258 116.352 131.136 115.511 131.015 114.646C130.917 113.805 131.015 112.916 130.942 112.075C130.868 111.234 130.722 110.369 130.698 109.528C130.674 108.687 130.674 107.822 130.674 106.957C130.674 106.116 130.868 105.323 130.942 104.506C131.015 103.689 131.112 102.872 131.258 102.079C131.404 101.262 131.282 100.397 131.477 99.6041C131.672 98.8112 131.915 97.9942 132.183 97.2253C132.451 96.4323 132.987 95.7595 133.303 95.0146C133.62 94.2457 133.79 93.4287 134.155 92.6839C134.521 91.939 134.959 91.2421 135.373 90.5213C135.787 89.8004 136.225 89.1036 136.712 88.4308C137.199 87.758 137.808 87.2053 138.343 86.5566C138.855 85.9078 139.342 85.235 139.902 84.6343C140.462 84.0336 141.119 83.529 141.728 82.9763C142.336 82.4236 142.969 81.895 143.627 81.3904C144.284 80.8618 144.844 80.2611 145.526 79.8045C146.208 79.324 146.768 78.6512 147.474 78.2186C148.18 77.7861 149.081 77.69 149.836 77.3056C150.566 76.9211 151.345 76.6328 152.124 76.2964C152.879 75.984 153.561 75.3833 154.34 75.119C155.119 74.8546 155.996 74.8787 156.824 74.6624C157.627 74.4462 158.406 74.1338 159.21 73.9656C160.013 73.7974 160.841 73.7493 161.693 73.6292C162.521 73.509 163.324 73.3168 164.177 73.2688C165.004 73.2207 165.832 73.1967 166.685 73.1967C167.512 73.1967 168.365 73.1006 169.192 73.1486C170.02 73.1967 170.824 73.5811 171.627 73.6772C172.455 73.7974 173.332 73.5331 174.159 73.7013C174.987 73.8695 175.742 74.278 176.545 74.4942C177.349 74.7105 178.177 74.8546 178.956 75.119C179.735 75.3833 180.441 75.8638 181.22 76.1762C181.975 76.4886 182.754 76.7769 183.509 77.1614C184.239 77.5458 185.092 77.7381 185.798 78.1706C186.504 78.6031 187.161 79.1317 187.843 79.5883C188.525 80.0688 188.987 80.8137 189.645 81.3183C190.302 81.8229 191.008 82.2314 191.617 82.8081C192.226 83.3608 192.737 84.0095 193.297 84.6102C193.857 85.211 194.393 85.8357 194.904 86.4605C195.415 87.1092 195.951 87.734 196.414 88.4068C196.876 89.0796 197.655 89.5601 198.094 90.281C198.507 90.9778 198.532 91.9149 198.897 92.6598C199.262 93.4047 199.774 94.0535 200.09 94.8224C200.407 95.5913 200.723 96.3362 200.991 97.1051C201.234 97.874 201.405 98.691 201.6 99.484C201.794 100.277 201.843 101.094 201.965 101.911C202.087 102.728 202.354 103.497 202.427 104.338C202.501 105.155 202.671 105.972 202.671 106.789C202.671 107.654 202.111 108.399 201.527 108.999C200.967 109.576 200.236 110.081 199.287 110.081C198.41 110.081 197.704 109.552 197.095 108.951C196.511 108.399 196.121 107.726 196.121 106.789C196.121 105.972 196.17 105.131 196.097 104.314C196.024 103.497 195.78 102.704 195.634 101.887C195.488 101.07 195.367 100.253 195.123 99.484C194.904 98.691 194.636 97.9221 194.32 97.1532C194.003 96.3843 193.687 95.6394 193.297 94.9185C192.932 94.1977 192.226 93.645 191.787 92.9482C191.349 92.2513 191.13 91.4103 190.619 90.7616C190.107 90.1128 189.645 89.44 189.06 88.8153C188.5 88.2145 187.843 87.6859 187.234 87.1333C186.626 86.5806 185.846 86.2442 185.189 85.7396C184.532 85.235 183.801 84.8986 183.095 84.4421C182.389 84.0095 181.707 83.601 180.952 83.2166C180.222 82.8321 179.516 82.4236 178.761 82.1113C178.006 81.7989 177.227 81.5586 176.424 81.3183C175.645 81.054 174.963 80.4533 174.135 80.2611C173.332 80.0688 172.455 80.213 171.627 80.0929C170.824 79.9727 169.996 79.9968 169.168 79.9247C168.34 79.8526 167.537 79.6123 166.709 79.6123C165.857 79.6123 165.029 79.4201 164.201 79.4681C163.373 79.5402 162.545 79.7805 161.718 79.9006C160.89 80.0208 160.111 80.3332 159.307 80.5254C158.504 80.7176 157.724 81.03 156.945 81.2943C156.142 81.5586 155.411 81.871 154.632 82.2074C153.853 82.5198 152.977 82.5678 152.222 82.9523C151.491 83.3367 150.712 83.6731 150.006 84.1297C149.3 84.5862 148.667 85.1389 148.01 85.6435C147.352 86.1481 146.841 86.8209 146.208 87.3735C145.599 87.9262 144.942 88.4548 144.382 89.0555C143.822 89.6563 143.213 90.2329 142.702 90.8817C142.19 91.5305 141.582 92.1312 141.143 92.828C140.705 93.5249 140.413 94.3178 140.023 95.0627C139.634 95.7836 139.244 96.5284 138.952 97.2974C138.636 98.0663 138.392 98.8592 138.149 99.6522C137.905 100.445 137.832 101.262 137.686 102.079C137.54 102.872 137.175 103.665 137.077 104.506C137.004 105.323 137.15 106.164 137.15 106.981C137.15 107.822 137.175 108.639 137.199 109.48C137.223 110.321 137.321 111.138 137.394 111.979C137.467 112.82 137.516 113.637 137.613 114.454C137.71 115.295 137.783 116.112 137.929 116.929C138.076 117.746 138.343 118.539 138.538 119.356C138.733 120.173 138.782 121.014 139.025 121.807C139.269 122.623 139.415 123.44 139.707 124.233C139.975 125.026 140.462 125.747 140.778 126.516C141.095 127.285 141.387 128.078 141.752 128.823C142.117 129.568 142.823 130.144 143.237 130.865C143.651 131.61 143.773 132.451 144.163 133.1C144.601 133.821 145.185 134.398 145.599 135.046C146.062 135.767 146.427 136.44 146.865 137.089C147.328 137.762 147.669 138.506 148.156 139.131C148.643 139.78 149.081 140.453 149.592 141.077C150.103 141.678 150.956 141.991 151.516 142.591C152.051 143.168 152.538 143.793 153.123 144.393C153.658 144.946 154.267 145.475 154.851 146.075C155.509 146.724 155.85 147.637 155.85 148.43C155.85 149.223 155.509 150.184 154.851 150.833C154.218 151.242 153.22 151.506 152.343 151.506C152.27 151.53 152.343 151.698 152.343 151.698ZM197.899 140.14C197.022 140.14 196.17 139.948 195.318 139.876C194.441 139.828 193.613 139.54 192.786 139.419C191.933 139.299 191.057 139.347 190.229 139.203C189.377 139.035 188.476 139.059 187.673 138.819C186.845 138.578 185.993 138.362 185.189 138.074C184.386 137.786 183.655 137.257 182.876 136.921C182.097 136.56 181.366 136.104 180.636 135.671C179.881 135.263 179.224 134.71 178.518 134.229C177.812 133.773 177.105 133.34 176.448 132.812C175.791 132.307 175.109 131.826 174.476 131.274C173.843 130.721 173.039 130.337 172.479 129.736C171.895 129.135 171.7 128.198 171.165 127.549C170.629 126.901 169.996 126.348 169.533 125.675C169.046 125.002 168.511 124.354 168.072 123.633C167.634 122.912 167.464 122.071 167.074 121.326C166.709 120.581 166.076 119.956 165.759 119.187C165.443 118.418 165.151 117.626 164.883 116.833C164.639 116.04 164.591 115.199 164.396 114.382C164.201 113.565 163.958 112.772 163.811 111.955C163.69 111.138 163.617 110.297 163.544 109.48C163.471 108.663 163.592 107.822 163.592 107.005C163.592 106.14 163.884 105.443 164.493 104.842C165.053 104.266 165.735 103.689 166.685 103.689C167.658 103.689 168.535 104.049 169.119 104.602C169.704 105.155 169.752 106.02 169.752 107.005C169.752 107.798 169.972 108.615 170.045 109.408C170.118 110.201 170.215 111.018 170.361 111.787C170.507 112.58 170.726 113.348 170.945 114.117C171.165 114.886 171.262 115.703 171.578 116.448C171.871 117.193 172.285 117.89 172.65 118.611C173.015 119.332 173.307 120.1 173.745 120.773C174.159 121.446 174.622 122.143 175.109 122.792C175.596 123.44 176.229 123.969 176.765 124.57C177.3 125.171 178.055 125.555 178.664 126.108C179.248 126.66 179.638 127.429 180.271 127.934C180.904 128.438 181.537 128.967 182.219 129.4C182.9 129.832 183.753 130 184.459 130.385C185.165 130.769 185.773 131.394 186.504 131.706C187.234 132.019 188.062 132.187 188.817 132.427C189.572 132.667 190.351 132.956 191.13 133.124C191.909 133.292 192.737 133.316 193.54 133.436C194.32 133.557 195.123 133.629 195.951 133.677C196.73 133.725 197.558 133.629 198.361 133.629C198.946 133.629 199.725 133.893 200.553 133.821C201.234 133.773 201.941 133.316 202.671 133.22C203.377 133.124 204.156 133.244 204.862 133.124C205.739 133.028 206.591 133.148 207.248 133.605C207.881 134.061 208.222 134.83 208.441 135.671C208.539 136.536 208.393 137.305 207.93 137.954C207.468 138.578 206.834 139.275 205.958 139.468C205.008 139.564 204.083 139.564 203.255 139.636C202.257 139.732 201.332 139.492 200.553 139.54C199.238 139.636 198.288 139.852 197.874 139.852C197.801 139.948 197.899 140.14 197.899 140.14ZM185.092 152.996C184.873 152.996 184.459 152.827 184.239 152.611C183.412 152.395 182.681 151.938 181.902 151.698C181.099 151.458 180.246 151.362 179.492 151.097C178.688 150.809 177.836 150.737 177.081 150.425C176.302 150.112 175.499 149.824 174.768 149.511C174.013 149.175 173.332 148.622 172.601 148.262C171.871 147.878 171.189 147.397 170.458 146.988C169.752 146.58 169.095 146.051 168.413 145.595C167.731 145.138 167.001 144.73 166.344 144.249C165.686 143.769 164.98 143.336 164.347 142.808C163.714 142.303 162.886 141.967 162.278 141.414C161.669 140.885 161.377 139.972 160.768 139.395C160.184 138.819 159.526 138.362 158.991 137.762C158.455 137.161 157.822 136.632 157.311 136.007C156.799 135.383 156.483 134.614 156.02 133.965C155.533 133.316 154.827 132.836 154.389 132.163C153.95 131.49 153.512 130.817 153.098 130.12C152.684 129.424 152.49 128.631 152.1 127.91C151.735 127.189 151.297 126.516 150.956 125.771C150.615 125.026 150.347 124.281 150.055 123.537C149.763 122.792 149.617 121.999 149.373 121.23C149.13 120.461 148.91 119.692 148.691 118.923C148.472 118.154 148.01 117.433 147.839 116.64C147.669 115.847 147.547 115.054 147.401 114.262C147.279 113.469 147.45 112.652 147.376 111.835C147.303 111.042 147.036 110.249 147.011 109.456C146.963 108.663 146.987 107.846 146.987 107.053C146.987 106.212 147.036 105.395 147.133 104.602C147.255 103.785 147.596 103.016 147.815 102.247C148.058 101.454 148.229 100.661 148.57 99.9165C148.91 99.1716 149.397 98.4988 149.836 97.802C150.274 97.1051 150.761 96.4804 151.297 95.8316C151.832 95.2069 152.27 94.51 152.879 93.9574C153.488 93.4047 153.95 92.6598 154.632 92.1793C155.314 91.6987 156.19 91.5545 156.945 91.1701C157.676 90.7856 158.431 90.4973 159.21 90.1849C159.989 89.8965 160.671 89.3679 161.498 89.1517C162.302 88.9594 163.154 89.1036 164.006 89.0075C164.81 88.9114 165.638 88.7432 166.465 88.7432C167.318 88.7432 168.121 88.8633 168.949 88.9594C169.777 89.0555 170.629 89.0796 171.432 89.2718C172.26 89.464 173.039 89.7283 173.818 90.0167C174.598 90.305 175.425 90.5453 176.156 90.9298C176.886 91.3142 177.446 92.0111 178.128 92.4676C178.81 92.9482 179.711 93.1644 180.319 93.7171C180.928 94.2698 181.342 95.0387 181.853 95.6874C182.389 96.3122 182.973 96.9369 183.387 97.6338C183.826 98.3306 184.045 99.1476 184.386 99.8924C184.726 100.637 185.067 101.382 185.286 102.175C185.506 102.968 185.895 103.737 186.017 104.554C186.139 105.347 186.09 106.212 186.09 107.053C186.09 107.894 185.871 108.759 186.041 109.552C186.212 110.369 186.65 111.138 187.015 111.883C187.356 112.628 187.721 113.421 188.208 114.093C188.695 114.742 189.28 115.415 189.913 115.968C190.521 116.52 191.252 117.025 191.958 117.457C192.664 117.89 193.589 117.914 194.368 118.202C195.147 118.491 195.829 119.139 196.681 119.284C197.485 119.428 198.361 119.332 199.214 119.332C200.066 119.332 200.918 119.211 201.721 119.067C202.574 118.923 203.401 118.755 204.181 118.491C204.984 118.202 205.812 117.914 206.518 117.505C207.248 117.073 207.833 116.448 208.466 115.895C209.099 115.343 209.537 114.646 210.048 113.973C210.535 113.3 211.193 112.724 211.534 111.955C211.875 111.21 211.972 110.369 212.142 109.528C212.313 108.735 212.654 107.918 212.654 107.077C212.654 106.26 212.556 105.419 212.508 104.602C212.459 103.785 212.459 102.944 212.362 102.127C212.264 101.31 211.996 100.517 211.85 99.7002C211.704 98.8832 211.582 98.0663 211.388 97.2733C211.193 96.4804 210.949 95.6874 210.706 94.8945C210.462 94.1015 210.195 93.3326 209.878 92.5637C209.586 91.7948 208.953 91.1701 208.612 90.4252C208.271 89.6803 208.198 88.7912 207.808 88.0704C207.419 87.3495 207.078 86.5806 206.64 85.8838C206.201 85.1869 205.69 84.5382 205.203 83.8413C204.741 83.1685 204.059 82.6399 203.548 81.9911C203.036 81.3424 202.427 80.7897 201.867 80.189C201.332 79.5642 200.772 78.9876 200.187 78.3868C199.603 77.8102 199.067 77.1854 198.459 76.6328C197.85 76.0801 197.193 75.5995 196.535 75.0709C195.902 74.5423 195.488 73.7253 194.807 73.2447C194.149 72.7642 193.273 72.5479 192.567 72.0914C191.86 71.6348 191.106 71.3224 190.4 70.914C189.693 70.5055 189.06 69.9288 188.306 69.5684C187.575 69.2079 186.918 68.6312 186.139 68.2948C185.384 67.9584 184.556 67.7902 183.777 67.5019C182.998 67.2135 182.17 67.0694 181.366 66.8291C180.587 66.5888 179.759 66.4446 178.956 66.2284C178.152 66.0121 177.349 65.8679 176.521 65.6997C175.718 65.5315 174.963 65.051 174.135 64.9308C173.307 64.8107 172.504 64.6185 171.676 64.5223C170.848 64.4503 169.996 64.4983 169.168 64.4503C168.34 64.4022 167.512 64.5704 166.66 64.5704C165.832 64.5704 165.004 64.5223 164.201 64.5464C163.373 64.5944 162.545 64.5704 161.742 64.6425C160.914 64.7146 160.086 64.6665 159.283 64.7867C158.479 64.9068 157.676 65.1951 156.872 65.3633C156.069 65.5315 155.241 65.6517 154.462 65.8679C153.658 66.0842 152.879 66.3245 152.1 66.5648C151.321 66.8051 150.566 67.1895 149.811 67.4779C149.032 67.7662 148.18 67.8383 147.425 68.1507C146.67 68.463 146.013 68.9917 145.258 69.3521C144.528 69.7125 143.797 70.097 143.091 70.4814C142.385 70.8899 141.679 71.3224 140.997 71.755C140.316 72.1875 139.609 72.62 138.928 73.1006C138.27 73.5811 137.564 74.0136 136.931 74.5182C136.298 75.0228 135.738 75.6236 135.105 76.1762C134.496 76.7048 133.79 77.1614 133.206 77.7381C132.622 78.3148 131.988 78.8434 131.428 79.4441C130.893 80.0448 130.503 80.7897 129.968 81.4385C129.456 82.0632 128.896 82.6639 128.409 83.3367C127.947 83.9855 127.776 84.8505 127.338 85.5474C126.9 86.2442 126.218 86.7728 125.828 87.4937C125.439 88.2145 125.244 89.0075 124.879 89.7524C124.514 90.5213 124.124 91.2902 123.808 92.1072C123.491 92.9001 123.053 93.669 122.809 94.51C122.566 95.327 122.225 96.144 122.03 96.985C121.835 97.802 122.079 98.7391 121.933 99.6041C121.787 100.445 121.592 101.262 121.494 102.127C121.397 102.968 121.373 103.833 121.324 104.698C121.275 105.539 121.227 106.404 121.227 107.269C121.227 108.062 121.275 108.903 121.324 109.816C121.348 110.609 121.178 111.474 121.251 112.387C121.324 113.204 121.227 114.069 121.348 114.958C121.446 115.775 121.981 116.544 122.128 117.433C122.274 118.25 122.054 119.163 122.249 120.004C122.42 120.821 122.761 121.614 122.98 122.455C123.199 123.248 123.442 124.065 123.71 124.906C123.954 125.699 124.416 126.444 124.708 127.261C124.976 128.054 125.074 128.919 125.39 129.736C125.707 130.577 125.585 131.346 125.293 132.043C124.976 132.788 124.465 133.364 123.686 133.677C122.834 133.989 122.006 134.133 121.275 133.821C120.521 133.508 119.79 132.884 119.449 132.115C119.157 131.322 119.181 130.433 118.914 129.64C118.646 128.847 118.378 128.054 118.159 127.237C117.915 126.42 117.404 125.699 117.185 124.906C116.966 124.089 116.771 123.272 116.576 122.455C116.381 121.638 116.601 120.749 116.454 119.908C116.308 119.091 115.821 118.322 115.7 117.481C115.578 116.64 115.724 115.799 115.627 114.958C115.529 114.117 115.286 113.3 115.213 112.483C115.14 111.642 114.945 110.825 114.92 109.984C114.896 109.143 115.261 108.302 115.261 107.461C115.261 106.596 114.92 105.707 114.969 104.866C115.018 104.001 115.091 103.136 115.164 102.271C115.237 101.406 115.334 100.541 115.456 99.6762C115.578 98.8111 116.065 98.0182 116.235 97.1772C116.406 96.3122 116.26 95.3991 116.479 94.5821C116.698 93.7411 117.063 92.9241 117.355 92.1312C117.623 91.3142 118.11 90.5693 118.451 89.7524C118.792 88.9354 119.133 88.1665 119.522 87.3976C119.888 86.6287 120.18 85.8597 120.594 85.1149C121.008 84.37 121.494 83.6972 121.933 82.9763C122.371 82.2554 122.663 81.4385 123.15 80.7416C123.637 80.0448 124.173 79.396 124.684 78.7232C125.195 78.0504 125.755 77.4017 126.315 76.7769C126.875 76.1282 127.484 75.5515 128.068 74.9508C128.653 74.35 129.188 73.6772 129.822 73.1006C130.43 72.5239 131.112 71.9952 131.745 71.4426C132.378 70.8899 133.035 70.3613 133.717 69.8327C134.375 69.304 135.251 69.0637 135.933 68.5591C136.615 68.0786 137.272 67.5259 137.978 67.0694C138.684 66.6128 139.317 66.0361 140.072 65.6036C140.803 65.1951 141.509 64.6905 142.263 64.3061C143.018 63.9216 143.773 63.5131 144.552 63.1527C145.331 62.8163 146.208 62.7202 147.011 62.4078C147.79 62.0955 148.57 61.7591 149.397 61.4947C150.201 61.2304 150.956 60.8219 151.783 60.5817C152.587 60.3414 153.488 60.3654 154.316 60.1732C155.144 59.9809 155.996 59.9329 156.824 59.7647C157.651 59.5965 158.479 59.5004 159.331 59.3802C160.159 59.2601 160.987 59.0438 161.839 58.9717C162.691 58.8997 163.519 58.6834 164.371 58.6353C165.224 58.5873 166.076 58.6834 166.928 58.6834C167.756 58.6834 168.608 58.4671 169.436 58.5152C170.264 58.5633 171.116 58.5633 171.944 58.6353C172.772 58.7074 173.599 58.9477 174.403 59.0679C175.231 59.188 176.059 59.3081 176.862 59.4523C177.69 59.5965 178.469 59.9089 179.272 60.1011C180.076 60.2933 180.855 60.6297 181.634 60.87C182.438 61.0863 183.363 60.9421 184.142 61.2064C184.946 61.4707 185.603 62.0714 186.382 62.3598C187.161 62.6481 187.916 62.9845 188.671 63.3209C189.426 63.6573 190.278 63.8015 191.033 64.1619C191.787 64.5223 192.493 64.9789 193.224 65.3633C193.954 65.7718 194.758 66.0361 195.464 66.4687C196.17 66.9012 196.852 67.3817 197.534 67.8623C198.215 68.3189 198.727 69.0157 199.408 69.5203C200.066 70.0249 200.772 70.4574 201.405 70.986C202.038 71.5147 202.744 71.9712 203.353 72.5239C203.961 73.0765 204.4 73.7974 204.984 74.3981C205.568 74.9748 206.274 75.4313 206.834 76.0561C207.395 76.6808 207.808 77.3776 208.344 78.0264C208.855 78.6752 209.61 79.1317 210.097 79.8045C210.584 80.4773 210.974 81.2222 211.412 81.895C211.875 82.5918 212.288 83.2887 212.702 84.0095C213.116 84.7304 213.603 85.4032 213.993 86.1241C214.382 86.8449 214.821 87.5658 215.162 88.3107C215.502 89.0555 215.795 89.8485 216.087 90.6174C216.379 91.3863 216.379 92.2513 216.647 93.0443C216.915 93.8132 217.377 94.5341 217.596 95.327C217.815 96.1199 217.913 96.9369 218.083 97.7539C218.254 98.5468 218.229 99.3878 218.375 100.205C218.497 101.022 218.838 101.791 218.911 102.608C219.009 103.425 218.838 104.242 218.887 105.083C218.935 105.9 219.033 106.717 219.033 107.534C219.033 108.375 219.106 109.192 219.009 109.984C218.887 110.801 218.497 111.546 218.278 112.339C218.035 113.132 218.059 113.997 217.718 114.742C217.377 115.487 216.671 116.04 216.233 116.736C215.795 117.433 215.6 118.298 215.064 118.923C214.528 119.548 214.042 120.269 213.433 120.821C212.824 121.374 212.118 121.855 211.436 122.335C210.755 122.816 210 123.176 209.269 123.585C208.539 123.969 207.76 124.305 206.981 124.594C206.201 124.882 205.374 125.002 204.57 125.195C203.767 125.387 202.963 125.627 202.135 125.723C201.332 125.819 200.48 126.06 199.652 126.06C198.8 126.06 197.996 125.675 197.168 125.579C196.34 125.483 195.488 125.483 194.685 125.267C193.881 125.074 193.005 124.978 192.25 124.69C191.471 124.402 190.789 123.825 190.083 123.44C189.353 123.056 188.598 122.672 187.916 122.191C187.234 121.71 186.747 121.014 186.139 120.461C185.53 119.908 184.775 119.476 184.239 118.851C183.704 118.226 183.314 117.481 182.876 116.785C182.438 116.088 182.219 115.295 181.878 114.55C181.537 113.805 180.831 113.18 180.587 112.387C180.368 111.594 180.612 110.705 180.514 109.888C180.392 109.095 180.027 108.302 180.027 107.461C180.027 106.62 180.027 105.803 179.832 105.011C179.662 104.194 179.199 103.497 178.859 102.752C178.518 102.007 178.445 101.07 177.933 100.421C177.446 99.7723 176.594 99.3878 175.985 98.8111C175.377 98.2585 174.744 97.7539 174.013 97.3214C173.307 96.8889 172.601 96.4564 171.798 96.168C171.018 95.8797 170.191 95.7595 169.363 95.6153C168.559 95.4712 167.731 95.279 166.879 95.279C166.027 95.279 165.199 95.4712 164.396 95.6153C163.544 95.7595 162.691 95.8076 161.937 96.0719C161.133 96.3602 160.33 96.6726 159.624 97.0811C158.893 97.5136 158.138 97.9461 157.53 98.4988C156.897 99.0514 156.41 99.7723 155.898 100.445C155.411 101.118 155.241 101.983 154.9 102.728C154.559 103.473 154.048 104.17 153.877 104.987C153.707 105.779 153.902 106.62 153.902 107.461C153.902 108.278 153.853 109.071 153.902 109.864C153.95 110.681 153.683 111.498 153.756 112.315C153.853 113.108 154.364 113.853 154.51 114.646C154.657 115.439 154.413 116.304 154.608 117.097C154.803 117.89 155.363 118.563 155.582 119.332C155.825 120.1 156.069 120.869 156.337 121.614C156.629 122.359 156.726 123.2 157.067 123.945C157.408 124.69 157.992 125.291 158.382 126.012C158.771 126.732 159.112 127.453 159.526 128.15C159.94 128.847 160.232 129.616 160.695 130.289C161.157 130.937 161.62 131.634 162.131 132.259C162.643 132.884 163.471 133.268 164.006 133.845C164.542 134.446 164.858 135.263 165.443 135.839C166.027 136.392 166.611 136.945 167.196 137.449C167.805 137.978 168.511 138.386 169.119 138.891C169.752 139.395 170.507 139.708 171.14 140.164C171.798 140.645 172.212 141.438 172.869 141.846C173.526 142.279 174.354 142.495 175.036 142.88C175.718 143.264 176.497 143.504 177.227 143.865C177.933 144.201 178.518 144.85 179.272 145.162C180.003 145.475 180.879 145.403 181.659 145.667C182.389 145.931 183.046 146.436 183.85 146.676C184.605 146.916 185.408 146.964 186.212 147.181C187.088 147.397 187.867 147.95 188.233 148.646C188.598 149.343 188.671 150.304 188.452 151.145C188.111 151.482 187.6 152.083 186.991 152.419C186.431 152.779 185.7 152.996 185.092 152.996Z" fill="white"/>
<path d="M4.00227 218.514C4.19432 217.976 4.98171 217.285 6.36445 216.44C7.74719 215.556 8.78424 215.114 9.47561 215.114C10.7047 215.114 12.8556 215.383 15.9284 215.921C19.0396 216.459 20.8256 216.862 21.2865 217.131C22.2083 217.745 22.6693 218.61 22.6693 219.724C22.6693 220.223 22.554 220.722 22.3236 221.221C22.0163 221.951 21.6322 222.47 21.1713 222.777C20.7104 223.046 19.9998 223.18 19.0396 223.18C18.425 223.18 17.3111 223.084 15.6979 222.892C14.0847 222.662 12.8364 222.547 11.953 222.547C11.6842 222.547 11.5305 222.566 11.4921 222.604C11.3769 222.719 11.204 223.584 10.9736 225.197L10.6855 227.444H14.0847C17.6568 227.444 19.7117 228.116 20.2495 229.46C20.4031 229.883 20.4799 230.363 20.4799 230.901C20.4799 231.822 20.2111 232.61 19.6733 233.263C19.2892 233.724 18.8091 234.031 18.233 234.185C17.6952 234.338 16.5237 234.454 14.7185 234.53L10.6279 234.761L10.3974 240.407C10.2822 243.019 10.1478 244.67 9.99414 245.362C9.87891 246.015 9.57164 246.553 9.07232 246.975C8.41935 247.513 7.68958 247.782 6.88298 247.782C5.96115 247.782 5.13535 247.417 4.40557 246.687C3.90624 246.188 3.59897 245.688 3.48374 245.189C3.36851 244.651 3.3109 243.422 3.3109 241.502C3.3109 239.197 3.54135 235.779 4.00227 231.246C4.27113 228.788 4.40557 226.772 4.40557 225.197C4.40557 224.006 4.32875 223.008 4.17511 222.201C4.02147 221.318 3.94465 220.357 3.94465 219.32C3.94465 218.898 3.96386 218.629 4.00227 218.514Z" fill="#393939"/>
<path d="M30.1812 205.666C30.8725 204.897 31.6407 204.513 32.4857 204.513C33.3691 204.513 34.2141 204.974 35.0207 205.896C35.6737 206.664 36.0002 207.317 36.0002 207.855C36.0002 208.124 35.9426 208.527 35.8273 209.065C35.3664 211.83 34.291 213.213 32.601 213.213C32.4473 213.213 32.14 213.175 31.6791 213.098C29.9507 212.714 29.0865 211.293 29.0865 208.834C29.0865 207.567 29.4514 206.511 30.1812 205.666ZM31.9096 221.337C32.6778 220.684 33.4268 220.357 34.1565 220.357C34.8863 220.357 35.6161 220.722 36.3459 221.452C36.8452 221.951 37.1525 222.489 37.2677 223.065C37.3829 223.603 37.4405 224.928 37.4405 227.041C37.4405 229.383 37.6518 232.418 38.0743 236.144C38.3048 237.949 38.42 239.274 38.42 240.119C38.42 240.887 38.3432 241.406 38.1895 241.675C37.4982 242.98 36.4995 243.633 35.1936 243.633C34.4254 243.633 33.7148 243.365 33.0619 242.827C32.4473 242.289 32.0248 241.559 31.7944 240.637C31.5255 239.562 31.2182 237.334 30.8725 233.954C30.5653 230.574 30.4116 227.924 30.4116 226.003C30.4116 225.85 30.4116 225.639 30.4116 225.37C30.45 225.101 30.4692 224.928 30.4692 224.851C30.546 223.853 30.6805 223.123 30.8725 222.662C31.0646 222.201 31.4103 221.759 31.9096 221.337Z" fill="#393939"/>
<path d="M72.3277 217.361C72.7886 217.016 73.48 216.843 74.4018 216.843C75.2084 216.843 75.823 216.977 76.2455 217.246C77.2441 217.745 77.7435 218.61 77.7435 219.839C77.7435 220.761 77.4746 222.143 76.9369 223.987C76.7064 224.794 75.9766 227.636 74.7475 232.514C74.133 235.164 73.3648 237.507 72.443 239.543C71.5211 241.578 70.6377 242.923 69.7927 243.576C69.0629 244.19 67.9875 244.498 66.5663 244.498C63.6472 244.498 60.9393 243.557 58.4427 241.675C57.4057 240.945 56.215 239.639 54.8706 237.757C53.4879 236.028 52.7197 235.164 52.5661 235.164C52.4508 235.164 52.2012 236.662 51.8171 239.658C51.625 241.502 51.433 242.788 51.2409 243.518C51.0489 244.21 50.7608 244.766 50.3767 245.189C49.6854 245.919 48.8403 246.284 47.8417 246.284C46.9583 246.284 46.1709 245.996 45.4795 245.419C44.8266 244.882 44.5001 244.017 44.5001 242.827C44.5001 242.673 44.5001 242.404 44.5001 242.02C44.5385 241.636 44.5577 241.329 44.5577 241.098C44.6345 238.563 44.9034 235.894 45.3643 233.09C45.8252 230.286 46.3053 228.423 46.8046 227.501C48.2642 224.659 49.935 223.238 51.8171 223.238C52.7773 223.238 53.5263 223.488 54.064 223.987C54.6402 224.448 55.4468 225.562 56.4838 227.329C60.2095 233.781 63.1863 237.008 65.414 237.008C66.0286 237.008 67.3153 232.936 69.2742 224.794C69.9655 222.066 70.4649 220.28 70.7721 219.435C71.1178 218.59 71.6364 217.899 72.3277 217.361Z" fill="#393939"/>
<path d="M99.8988 208.892C101.128 208.7 102.127 208.604 102.895 208.604C106.121 208.604 107.85 209.737 108.08 212.003V212.464C108.08 213.348 107.83 214.058 107.331 214.596C106.947 215.057 106.524 215.345 106.064 215.46C105.641 215.575 104.7 215.633 103.24 215.633C101.819 215.671 100.801 215.767 100.187 215.921C99.5723 216.036 98.8233 216.343 97.9399 216.843C95.9426 218.033 94.291 219.896 92.9851 222.431C91.6792 224.966 91.0262 227.482 91.0262 229.979C91.0262 231.554 91.3143 232.936 91.8904 234.127C92.4666 235.279 93.3884 236.374 94.6559 237.411C95.9234 238.448 96.9605 238.967 97.7671 238.967C97.8055 238.967 97.8439 238.967 97.8823 238.967C97.9591 238.928 98.0167 238.909 98.0551 238.909C99.2842 238.602 100.494 238.064 101.685 237.296C102.914 236.528 103.874 235.683 104.566 234.761C105.449 233.57 105.891 232.783 105.891 232.399C105.891 231.784 104.758 231.477 102.491 231.477C101.109 231.477 100.187 231.419 99.726 231.304C99.265 231.15 98.8425 230.843 98.4584 230.382C97.9207 229.652 97.6518 228.923 97.6518 228.193C97.6518 227.348 97.9591 226.618 98.5737 226.003C99.0346 225.581 99.9372 225.178 101.282 224.794C102.626 224.409 103.778 224.217 104.738 224.217C106.544 224.217 108.195 224.794 109.693 225.946C111.23 227.098 112.19 228.538 112.574 230.267C112.728 230.881 112.804 231.554 112.804 232.283C112.804 234.05 111.921 236.182 110.154 238.679C108.618 240.753 106.62 242.462 104.162 243.806C101.742 245.112 99.3611 245.765 97.0181 245.765C95.4433 245.765 93.9837 245.304 92.6394 244.382C86.9548 240.58 84.0741 235.663 83.9973 229.633C83.9973 228.442 84.3622 226.541 85.092 223.929C85.8601 221.279 86.5899 219.378 87.2813 218.226C88.0495 216.92 89.2786 215.46 90.9686 213.847C92.697 212.195 94.1758 211.043 95.4049 210.39C96.7492 209.699 98.2472 209.199 99.8988 208.892Z" fill="#393939"/>
<path d="M128.096 208.719C130.094 208.297 131.861 208.085 133.397 208.085C134.933 208.085 135.97 208.277 136.508 208.662C137.353 209.276 137.776 210.102 137.776 211.139C137.776 211.754 137.641 212.31 137.372 212.81C136.95 213.54 136.508 214.02 136.047 214.25C135.586 214.481 134.588 214.673 133.051 214.826C130.9 215.134 129.364 215.364 128.442 215.518L126.138 215.979L126.253 219.608L126.31 223.18L129.133 223.123C131.092 222.969 132.321 222.7 132.821 222.316C133.359 221.932 134.011 221.74 134.78 221.74C135.702 221.74 136.527 222.028 137.257 222.604C138.025 223.18 138.409 223.891 138.409 224.736C138.409 225.504 138.025 226.349 137.257 227.271C136.527 228.193 135.702 228.788 134.78 229.057C134.165 229.249 132.706 229.537 130.401 229.921C128.135 230.267 126.675 230.44 126.022 230.44C125.83 230.44 125.734 230.805 125.734 231.534C125.734 233.416 126.08 235.203 126.771 236.893C127.079 237.661 127.347 238.179 127.578 238.448C127.847 238.679 128.231 238.794 128.73 238.794C129.882 238.794 131.4 238.467 133.282 237.814C135.202 237.161 136.47 236.528 137.084 235.913C137.891 235.145 138.793 234.761 139.792 234.761C140.791 234.761 141.617 235.145 142.27 235.913C142.922 236.681 143.249 237.392 143.249 238.045C143.249 238.544 143.038 239.312 142.615 240.349C142.231 241.31 141.425 242.097 140.195 242.712C139.005 243.288 136.931 243.96 133.973 244.728C131.361 245.381 129.326 245.708 127.866 245.708C125.369 245.708 123.372 244.613 121.874 242.423C121.221 241.502 120.587 240.004 119.973 237.93C119.358 235.855 119.013 234.165 118.936 232.86V231.592C118.936 228.635 119.051 224.659 119.281 219.666C119.55 214.673 119.762 211.926 119.915 211.427C120.453 210.044 121.74 209.353 123.775 209.353C124.889 209.276 126.33 209.065 128.096 208.719Z" fill="#393939"/>
<path d="M163.201 225.427C162.586 224.966 161.799 224.736 160.838 224.736C160.147 224.736 159.801 224.89 159.801 225.197C159.801 225.466 159.513 226.003 158.937 226.81C158.284 227.578 157.958 228.807 157.958 230.497C157.958 231.035 158.054 231.304 158.246 231.304C158.476 231.304 159.11 231.016 160.147 230.44C161.223 229.864 162.106 229.326 162.797 228.827C163.681 228.135 164.122 227.482 164.122 226.868C164.122 226.292 163.815 225.811 163.201 225.427ZM156.921 217.765C157.842 217.457 158.783 217.304 159.744 217.304C161.703 217.304 163.661 217.803 165.62 218.802C167.618 219.762 169.116 220.991 170.114 222.489C170.882 223.603 171.267 225.158 171.267 227.156C171.267 228.654 170.998 229.921 170.46 230.958C169.922 231.957 168.981 233.013 167.637 234.127L165.793 235.625L167.234 236.316C168.386 236.931 170.133 238.333 172.476 240.522C174.819 242.673 176.068 244.056 176.221 244.67C176.298 244.978 176.337 245.227 176.337 245.419C176.337 246.072 176.183 246.687 175.876 247.263C175.568 247.839 175.165 248.262 174.666 248.531C174.013 248.876 173.437 249.049 172.937 249.049C171.785 249.049 170.133 248.05 167.983 246.053C165.908 244.133 163.585 242.5 161.011 241.156C159.091 240.196 157.938 239.716 157.554 239.716C157.132 239.716 156.863 239.984 156.748 240.522C156.671 241.06 156.633 242.155 156.633 243.806V244.613C156.633 246.264 156.575 247.34 156.46 247.839C156.344 248.339 155.999 248.876 155.423 249.452C154.616 250.259 153.79 250.662 152.945 250.662C152.177 250.662 151.447 250.317 150.756 249.625C149.872 248.742 149.431 247.186 149.431 244.959C149.431 243.384 149.642 240.733 150.065 237.008C150.641 232.36 150.967 228.769 151.044 226.234C151.121 224.006 151.236 222.643 151.39 222.143C151.543 221.567 152.235 220.799 153.464 219.839C154.693 218.879 155.845 218.187 156.921 217.765Z" fill="#393939"/>
<path d="M195.762 220.357C194.994 219.704 193.823 219.378 192.248 219.378C191.48 219.378 190.865 219.512 190.404 219.781C190.059 220.012 189.886 220.933 189.886 222.547C189.886 222.7 189.886 222.95 189.886 223.296C189.924 223.641 189.943 223.91 189.943 224.102L190.059 228.02L191.614 227.905C192.843 227.751 193.976 227.348 195.014 226.695C196.089 226.042 196.8 225.293 197.145 224.448C197.376 223.872 197.491 223.372 197.491 222.95C197.491 222.143 196.915 221.279 195.762 220.357ZM188.042 213.098C189.348 212.675 190.846 212.464 192.536 212.464C194.687 212.464 196.511 212.81 198.009 213.501C200.007 214.461 201.639 215.844 202.907 217.649C204.174 219.416 204.808 221.26 204.808 223.18C204.808 226.099 203.675 228.654 201.409 230.843C199.143 233.032 196.204 234.434 192.594 235.049C191.787 235.203 191.211 235.414 190.865 235.683C190.558 235.913 190.404 236.278 190.404 236.777C190.404 237.161 190.558 237.853 190.865 238.851C191.326 240.119 191.557 241.137 191.557 241.905C191.557 242.788 191.211 243.576 190.52 244.267C189.79 244.997 189.079 245.362 188.388 245.362C187.889 245.362 187.312 245.189 186.659 244.843C185.354 244.152 184.451 242.884 183.952 241.041C183.452 239.197 183.087 235.74 182.857 230.67C182.703 227.943 182.626 225.082 182.626 222.086C182.626 220.703 182.646 219.839 182.684 219.493C182.799 218.302 182.953 217.457 183.145 216.958C183.375 216.459 183.817 215.883 184.47 215.23C185.507 214.193 186.698 213.482 188.042 213.098Z" fill="#393939"/>
<path d="M228.729 227.098C227.807 224.947 227.154 223.872 226.77 223.872C226.578 223.872 226.424 224.045 226.309 224.39C226.27 224.467 226.194 224.698 226.078 225.082C225.963 225.427 225.79 225.888 225.56 226.464C225.368 227.041 225.176 227.578 224.984 228.078C224.292 230.036 223.947 231.266 223.947 231.765C223.947 232.303 224.369 232.571 225.214 232.571H225.56C228.517 232.456 229.996 231.938 229.996 231.016C229.996 230.44 229.574 229.134 228.729 227.098ZM224.177 213.386C225.099 212.464 226.021 212.003 226.943 212.003C229.17 212.003 231.244 214.769 233.165 220.3C233.703 221.798 234.125 222.739 234.432 223.123C234.586 223.276 235.316 225.254 236.622 229.057C237.736 232.399 238.849 235.145 239.963 237.296C240.962 239.139 241.461 240.676 241.461 241.905C241.461 243.211 240.847 244.171 239.618 244.786C239.003 245.093 238.485 245.247 238.062 245.247C236.756 245.247 235.565 244.056 234.49 241.675C233.645 239.831 233.069 238.813 232.762 238.621C232.685 238.583 232.493 238.563 232.185 238.563C231.571 238.563 230.745 238.659 229.708 238.851C228.556 239.082 226.635 239.332 223.947 239.6L220.72 239.888L219.28 243.403C217.705 247.359 216.073 249.337 214.383 249.337C213.614 249.337 212.885 249.011 212.193 248.358C211.502 247.705 211.156 247.033 211.156 246.341C211.156 245.573 212.02 243.076 213.749 238.851C215.362 234.78 216.687 231.246 217.724 228.25C218.377 226.215 218.992 224.486 219.568 223.065C220.182 221.606 220.759 220.108 221.296 218.571C222.218 216.113 223.178 214.385 224.177 213.386Z" fill="#393939"/>
<path d="M248.935 205.666C249.626 204.897 250.395 204.513 251.24 204.513C252.123 204.513 252.968 204.974 253.775 205.896C254.428 206.664 254.754 207.317 254.754 207.855C254.754 208.124 254.696 208.527 254.581 209.065C254.12 211.83 253.045 213.213 251.355 213.213C251.201 213.213 250.894 213.175 250.433 213.098C248.704 212.714 247.84 211.293 247.84 208.834C247.84 207.567 248.205 206.511 248.935 205.666ZM250.663 221.337C251.432 220.684 252.181 220.357 252.91 220.357C253.64 220.357 254.37 220.722 255.1 221.452C255.599 221.951 255.906 222.489 256.021 223.065C256.137 223.603 256.194 224.928 256.194 227.041C256.194 229.383 256.406 232.418 256.828 236.144C257.059 237.949 257.174 239.274 257.174 240.119C257.174 240.887 257.097 241.406 256.943 241.675C256.252 242.98 255.253 243.633 253.947 243.633C253.179 243.633 252.469 243.365 251.816 242.827C251.201 242.289 250.779 241.559 250.548 240.637C250.279 239.562 249.972 237.334 249.626 233.954C249.319 230.574 249.165 227.924 249.165 226.003C249.165 225.85 249.165 225.639 249.165 225.37C249.204 225.101 249.223 224.928 249.223 224.851C249.3 223.853 249.434 223.123 249.626 222.662C249.818 222.201 250.164 221.759 250.663 221.337Z" fill="#393939"/>
<path d="M291.082 217.361C291.542 217.016 292.234 216.843 293.156 216.843C293.962 216.843 294.577 216.977 294.999 217.246C295.998 217.745 296.497 218.61 296.497 219.839C296.497 220.761 296.228 222.143 295.691 223.987C295.46 224.794 294.73 227.636 293.501 232.514C292.887 235.164 292.119 237.507 291.197 239.543C290.275 241.578 289.391 242.923 288.546 243.576C287.817 244.19 286.741 244.498 285.32 244.498C282.401 244.498 279.693 243.557 277.197 241.675C276.159 240.945 274.969 239.639 273.624 237.757C272.242 236.028 271.473 235.164 271.32 235.164C271.205 235.164 270.955 236.662 270.571 239.658C270.379 241.502 270.187 242.788 269.995 243.518C269.803 244.21 269.515 244.766 269.131 245.189C268.439 245.919 267.594 246.284 266.596 246.284C265.712 246.284 264.925 245.996 264.233 245.419C263.58 244.882 263.254 244.017 263.254 242.827C263.254 242.673 263.254 242.404 263.254 242.02C263.292 241.636 263.312 241.329 263.312 241.098C263.388 238.563 263.657 235.894 264.118 233.09C264.579 230.286 265.059 228.423 265.558 227.501C267.018 224.659 268.689 223.238 270.571 223.238C271.531 223.238 272.28 223.488 272.818 223.987C273.394 224.448 274.201 225.562 275.238 227.329C278.963 233.781 281.94 237.008 284.168 237.008C284.782 237.008 286.069 232.936 288.028 224.794C288.719 222.066 289.219 220.28 289.526 219.435C289.872 218.59 290.39 217.899 291.082 217.361Z" fill="#393939"/>
<path d="M320.035 220.876C324.76 220.569 327.506 220.396 328.274 220.357H328.447C329.292 220.357 330.156 220.78 331.04 221.625C331.846 222.431 332.25 223.161 332.25 223.814C332.25 224.198 332.134 224.717 331.904 225.37C331.597 226.253 330.963 226.848 330.003 227.156C329.081 227.425 327.218 227.636 324.414 227.789L319.344 228.02L319.114 233.493C319.075 234.261 319.056 235.375 319.056 236.835C319.056 239.869 319.306 243.019 319.805 246.284C319.882 246.745 319.92 247.052 319.92 247.205C319.92 247.743 319.517 248.358 318.71 249.049C317.865 249.779 317.059 250.144 316.29 250.144C315.445 250.144 314.562 249.683 313.64 248.761C312.987 248.108 312.565 247.513 312.373 246.975C312.181 246.399 312.008 245.208 311.854 243.403C311.701 241.329 311.624 239.139 311.624 236.835C311.624 235.606 311.643 234.722 311.681 234.185L311.854 228.884L310.126 228.769C307.283 228.615 305.363 228.289 304.364 227.789C303.366 227.252 302.866 226.368 302.866 225.139C302.866 223.68 303.289 222.623 304.134 221.97C304.979 221.318 306.362 220.991 308.282 220.991C308.935 220.991 309.434 221.01 309.78 221.049C310.203 221.087 311.086 221.106 312.43 221.106C315.311 221.106 317.846 221.029 320.035 220.876Z" fill="#393939"/>
</svg>
