<svg width="327" height="70" viewBox="0 0 327 70" fill="none" xmlns="http://www.w3.org/2000/svg">
<path d="M3.89574 21.9738C4.08241 21.4512 4.84774 20.7792 6.19174 19.9578C7.53574 19.0992 8.54374 18.6698 9.21574 18.6698C10.4104 18.6698 12.5011 18.9312 15.4877 19.4538C18.5117 19.9765 20.2477 20.3685 20.6957 20.6298C21.5917 21.2272 22.0397 22.0672 22.0397 23.1498C22.0397 23.6352 21.9277 24.1205 21.7037 24.6058C21.4051 25.3152 21.0317 25.8192 20.5837 26.1178C20.1357 26.3792 19.4451 26.5098 18.5117 26.5098C17.9144 26.5098 16.8317 26.4165 15.2637 26.2298C13.6957 26.0058 12.4824 25.8938 11.6237 25.8938C11.3624 25.8938 11.2131 25.9125 11.1757 25.9498C11.0637 26.0618 10.8957 26.9018 10.6717 28.4698L10.3917 30.6538H13.6957C17.1677 30.6538 19.1651 31.3072 19.6877 32.6138C19.8371 33.0245 19.9117 33.4912 19.9117 34.0138C19.9117 34.9098 19.6504 35.6752 19.1277 36.3098C18.7544 36.7578 18.2877 37.0565 17.7277 37.2058C17.2051 37.3552 16.0664 37.4672 14.3117 37.5418L10.3357 37.7658L10.1117 43.2538C9.99974 45.7925 9.86907 47.3978 9.71974 48.0698C9.60774 48.7045 9.30907 49.2272 8.82374 49.6378C8.18907 50.1605 7.47974 50.4218 6.69574 50.4218C5.79974 50.4218 4.99707 50.0672 4.28774 49.3578C3.80241 48.8725 3.50374 48.3872 3.39174 47.9018C3.27974 47.3792 3.22374 46.1845 3.22374 44.3178C3.22374 42.0778 3.44774 38.7552 3.89574 34.3498C4.15707 31.9605 4.28774 30.0005 4.28774 28.4698C4.28774 27.3125 4.21307 26.3418 4.06374 25.5578C3.91441 24.6992 3.83974 23.7658 3.83974 22.7578C3.83974 22.3472 3.85841 22.0858 3.89574 21.9738Z" fill="#393939"/>
<path d="M29.3412 9.48584C30.0132 8.73918 30.7598 8.36584 31.5812 8.36584C32.4398 8.36584 33.2612 8.81384 34.0452 9.70984C34.6798 10.4565 34.9972 11.0912 34.9972 11.6138C34.9972 11.8752 34.9412 12.2672 34.8292 12.7898C34.3812 15.4778 33.3358 16.8218 31.6932 16.8218C31.5438 16.8218 31.2452 16.7845 30.7972 16.7098C29.1172 16.3365 28.2772 14.9552 28.2772 12.5658C28.2772 11.3338 28.6318 10.3072 29.3412 9.48584ZM31.0212 24.7178C31.7678 24.0832 32.4958 23.7658 33.2052 23.7658C33.9145 23.7658 34.6238 24.1205 35.3332 24.8298C35.8185 25.3152 36.1172 25.8378 36.2292 26.3978C36.3412 26.9205 36.3972 28.2085 36.3972 30.2618C36.3972 32.5392 36.6025 35.4885 37.0132 39.1098C37.2372 40.8645 37.3492 42.1525 37.3492 42.9738C37.3492 43.7205 37.2745 44.2245 37.1252 44.4858C36.4532 45.7552 35.4825 46.3898 34.2132 46.3898C33.4665 46.3898 32.7758 46.1285 32.1412 45.6058C31.5438 45.0832 31.1332 44.3738 30.9092 43.4778C30.6478 42.4325 30.3492 40.2672 30.0132 36.9818C29.7145 33.6965 29.5652 31.1205 29.5652 29.2538C29.5652 29.1045 29.5652 28.8992 29.5652 28.6378C29.6025 28.3765 29.6212 28.2085 29.6212 28.1338C29.6958 27.1632 29.8265 26.4538 30.0132 26.0058C30.1998 25.5578 30.5358 25.1285 31.0212 24.7178Z" fill="#393939"/>
<path d="M70.3069 20.8538C70.7549 20.5178 71.4269 20.3498 72.3229 20.3498C73.1069 20.3498 73.7043 20.4805 74.1149 20.7418C75.0856 21.2272 75.5709 22.0672 75.5709 23.2618C75.5709 24.1578 75.3096 25.5018 74.7869 27.2938C74.5629 28.0778 73.8536 30.8405 72.6589 35.5818C72.0616 38.1578 71.3149 40.4352 70.4189 42.4138C69.5229 44.3925 68.6643 45.6992 67.8429 46.3338C67.1336 46.9312 66.0883 47.2298 64.7069 47.2298C61.8696 47.2298 59.2376 46.3152 56.8109 44.4858C55.8029 43.7765 54.6456 42.5072 53.3389 40.6778C51.9949 38.9978 51.2483 38.1578 51.0989 38.1578C50.9869 38.1578 50.7443 39.6138 50.3709 42.5258C50.1843 44.3178 49.9976 45.5685 49.8109 46.2778C49.6243 46.9498 49.3443 47.4912 48.9709 47.9018C48.2989 48.6112 47.4776 48.9658 46.5069 48.9658C45.6483 48.9658 44.8829 48.6858 44.2109 48.1258C43.5763 47.6032 43.2589 46.7632 43.2589 45.6058C43.2589 45.4565 43.2589 45.1952 43.2589 44.8218C43.2963 44.4485 43.3149 44.1498 43.3149 43.9258C43.3896 41.4618 43.6509 38.8672 44.0989 36.1418C44.5469 33.4165 45.0136 31.6058 45.4989 30.7098C46.9176 27.9472 48.5416 26.5658 50.3709 26.5658C51.3043 26.5658 52.0323 26.8085 52.5549 27.2938C53.1149 27.7418 53.8989 28.8245 54.9069 30.5418C58.5283 36.8138 61.4216 39.9498 63.5869 39.9498C64.1843 39.9498 65.4349 35.9925 67.3389 28.0778C68.0109 25.4272 68.4963 23.6912 68.7949 22.8698C69.1309 22.0485 69.6349 21.3765 70.3069 20.8538Z" fill="#393939"/>
<path d="M97.1056 12.6218C98.3002 12.4352 99.2709 12.3418 100.018 12.3418C103.154 12.3418 104.834 13.4432 105.058 15.6458V16.0938C105.058 16.9525 104.815 17.6432 104.33 18.1658C103.956 18.6138 103.546 18.8938 103.098 19.0058C102.687 19.1178 101.772 19.1738 100.354 19.1738C98.9722 19.2112 97.9829 19.3045 97.3856 19.4538C96.7882 19.5658 96.0602 19.8645 95.2016 20.3498C93.2602 21.5072 91.6549 23.3178 90.3856 25.7818C89.1162 28.2458 88.4816 30.6912 88.4816 33.1178C88.4816 34.6485 88.7616 35.9925 89.3215 37.1498C89.8815 38.2698 90.7775 39.3338 92.0096 40.3418C93.2416 41.3498 94.2495 41.8538 95.0335 41.8538C95.0709 41.8538 95.1082 41.8538 95.1456 41.8538C95.2202 41.8165 95.2762 41.7978 95.3136 41.7978C96.5082 41.4992 97.6842 40.9765 98.8416 40.2298C100.036 39.4832 100.97 38.6618 101.642 37.7658C102.5 36.6085 102.93 35.8432 102.93 35.4698C102.93 34.8725 101.828 34.5738 99.6255 34.5738C98.2815 34.5738 97.3856 34.5178 96.9376 34.4058C96.4896 34.2565 96.0789 33.9578 95.7056 33.5098C95.1829 32.8005 94.9215 32.0912 94.9215 31.3818C94.9215 30.5605 95.2202 29.8512 95.8176 29.2538C96.2655 28.8432 97.1429 28.4512 98.4495 28.0778C99.7562 27.7045 100.876 27.5178 101.81 27.5178C103.564 27.5178 105.17 28.0778 106.626 29.1978C108.119 30.3178 109.052 31.7178 109.426 33.3978C109.575 33.9952 109.65 34.6485 109.65 35.3578C109.65 37.0752 108.791 39.1472 107.074 41.5738C105.58 43.5898 103.639 45.2512 101.25 46.5578C98.8976 47.8272 96.5829 48.4618 94.3055 48.4618C92.7749 48.4618 91.3562 48.0138 90.0496 47.1178C84.5242 43.4218 81.7242 38.6432 81.6496 32.7818C81.6496 31.6245 82.0042 29.7765 82.7135 27.2378C83.4602 24.6618 84.1696 22.8138 84.8416 21.6938C85.5882 20.4245 86.7829 19.0058 88.4256 17.4378C90.1056 15.8325 91.5429 14.7125 92.7375 14.0778C94.0442 13.4058 95.5002 12.9205 97.1056 12.6218Z" fill="#393939"/>
<path d="M124.513 12.4538C126.455 12.0432 128.172 11.8378 129.665 11.8378C131.159 11.8378 132.167 12.0245 132.689 12.3978C133.511 12.9952 133.921 13.7978 133.921 14.8058C133.921 15.4032 133.791 15.9445 133.529 16.4298C133.119 17.1392 132.689 17.6058 132.241 17.8298C131.793 18.0538 130.823 18.2405 129.329 18.3898C127.239 18.6885 125.745 18.9125 124.849 19.0618L122.609 19.5098L122.721 23.0378L122.777 26.5098L125.521 26.4538C127.425 26.3045 128.62 26.0432 129.105 25.6698C129.628 25.2965 130.263 25.1098 131.009 25.1098C131.905 25.1098 132.708 25.3898 133.417 25.9498C134.164 26.5098 134.537 27.2005 134.537 28.0218C134.537 28.7685 134.164 29.5898 133.417 30.4858C132.708 31.3818 131.905 31.9605 131.009 32.2218C130.412 32.4085 128.993 32.6885 126.753 33.0618C124.551 33.3978 123.132 33.5658 122.497 33.5658C122.311 33.5658 122.217 33.9205 122.217 34.6298C122.217 36.4592 122.553 38.1952 123.225 39.8378C123.524 40.5845 123.785 41.0885 124.009 41.3498C124.271 41.5738 124.644 41.6858 125.129 41.6858C126.249 41.6858 127.724 41.3685 129.553 40.7338C131.42 40.0992 132.652 39.4832 133.249 38.8858C134.033 38.1392 134.911 37.7658 135.881 37.7658C136.852 37.7658 137.654 38.1392 138.289 38.8858C138.924 39.6325 139.241 40.3232 139.241 40.9578C139.241 41.4432 139.036 42.1898 138.625 43.1978C138.252 44.1312 137.468 44.8965 136.273 45.4938C135.116 46.0538 133.1 46.7072 130.225 47.4538C127.687 48.0885 125.708 48.4058 124.289 48.4058C121.863 48.4058 119.921 47.3419 118.465 45.2138C117.831 44.3178 117.215 42.8618 116.617 40.8458C116.02 38.8298 115.684 37.1872 115.609 35.9178V34.6858C115.609 31.8112 115.721 27.9472 115.945 23.0938C116.207 18.2405 116.412 15.5712 116.561 15.0858C117.084 13.7418 118.335 13.0698 120.313 13.0698C121.396 12.9952 122.796 12.7898 124.513 12.4538Z" fill="#393939"/>
<path d="M158.634 28.6938C158.036 28.2458 157.271 28.0218 156.338 28.0218C155.666 28.0218 155.33 28.1712 155.33 28.4698C155.33 28.7312 155.05 29.2538 154.49 30.0378C153.855 30.7845 153.538 31.9792 153.538 33.6218C153.538 34.1445 153.631 34.4058 153.818 34.4058C154.042 34.4058 154.658 34.1258 155.666 33.5658C156.711 33.0058 157.57 32.4832 158.242 31.9978C159.1 31.3258 159.53 30.6912 159.53 30.0938C159.53 29.5338 159.231 29.0672 158.634 28.6938ZM152.53 21.2458C153.426 20.9472 154.34 20.7978 155.274 20.7978C157.178 20.7978 159.082 21.2832 160.986 22.2538C162.927 23.1872 164.383 24.3818 165.354 25.8378C166.1 26.9205 166.474 28.4325 166.474 30.3738C166.474 31.8298 166.212 33.0618 165.69 34.0698C165.167 35.0405 164.252 36.0672 162.946 37.1498L161.154 38.6058L162.554 39.2778C163.674 39.8752 165.372 41.2378 167.65 43.3658C169.927 45.4565 171.14 46.8005 171.29 47.3978C171.364 47.6965 171.402 47.9392 171.402 48.1258C171.402 48.7605 171.252 49.3578 170.954 49.9178C170.655 50.4778 170.263 50.8885 169.778 51.1498C169.143 51.4858 168.583 51.6538 168.098 51.6538C166.978 51.6538 165.372 50.6832 163.282 48.7418C161.266 46.8752 159.007 45.2885 156.506 43.9818C154.639 43.0485 153.519 42.5818 153.146 42.5818C152.735 42.5818 152.474 42.8432 152.362 43.3658C152.287 43.8885 152.25 44.9525 152.25 46.5578V47.3418C152.25 48.9472 152.194 49.9925 152.082 50.4778C151.97 50.9632 151.634 51.4858 151.074 52.0458C150.29 52.8298 149.487 53.2218 148.666 53.2218C147.919 53.2218 147.21 52.8858 146.538 52.2138C145.679 51.3552 145.25 49.8432 145.25 47.6778C145.25 46.1472 145.455 43.5712 145.866 39.9498C146.426 35.4325 146.743 31.9418 146.818 29.4778C146.892 27.3125 147.004 25.9872 147.154 25.5018C147.303 24.9418 147.975 24.1952 149.17 23.2618C150.364 22.3285 151.484 21.6565 152.53 21.2458Z" fill="#393939"/>
<path d="M190.283 23.7658C189.537 23.1312 188.398 22.8138 186.867 22.8138C186.121 22.8138 185.523 22.9445 185.075 23.2058C184.739 23.4298 184.571 24.3258 184.571 25.8938C184.571 26.0432 184.571 26.2858 184.571 26.6218C184.609 26.9578 184.627 27.2192 184.627 27.4058L184.739 31.2138L186.251 31.1018C187.446 30.9525 188.547 30.5605 189.555 29.9258C190.601 29.2912 191.291 28.5632 191.627 27.7418C191.851 27.1818 191.963 26.6965 191.963 26.2858C191.963 25.5018 191.403 24.6618 190.283 23.7658ZM182.779 16.7098C184.049 16.2992 185.505 16.0938 187.147 16.0938C189.238 16.0938 191.011 16.4298 192.467 17.1018C194.409 18.0352 195.995 19.3792 197.227 21.1338C198.459 22.8512 199.075 24.6432 199.075 26.5098C199.075 29.3472 197.974 31.8298 195.771 33.9578C193.569 36.0858 190.713 37.4485 187.203 38.0458C186.419 38.1952 185.859 38.4005 185.523 38.6618C185.225 38.8858 185.075 39.2405 185.075 39.7258C185.075 40.0992 185.225 40.7712 185.523 41.7418C185.971 42.9738 186.195 43.9632 186.195 44.7098C186.195 45.5685 185.859 46.3338 185.187 47.0058C184.478 47.7152 183.787 48.0698 183.115 48.0698C182.63 48.0698 182.07 47.9018 181.435 47.5658C180.166 46.8938 179.289 45.6618 178.803 43.8698C178.318 42.0778 177.963 38.7178 177.739 33.7898C177.59 31.1392 177.515 28.3578 177.515 25.4458C177.515 24.1018 177.534 23.2618 177.571 22.9258C177.683 21.7685 177.833 20.9472 178.019 20.4618C178.243 19.9765 178.673 19.4165 179.307 18.7818C180.315 17.7738 181.473 17.0832 182.779 16.7098Z" fill="#393939"/>
<path d="M222.326 30.3178C221.43 28.2272 220.795 27.1818 220.422 27.1818C220.235 27.1818 220.086 27.3498 219.974 27.6858C219.937 27.7605 219.862 27.9845 219.75 28.3578C219.638 28.6938 219.47 29.1418 219.246 29.7018C219.059 30.2618 218.873 30.7845 218.686 31.2698C218.014 33.1738 217.678 34.3685 217.678 34.8538C217.678 35.3765 218.089 35.6378 218.91 35.6378H219.246C222.121 35.5258 223.558 35.0218 223.558 34.1258C223.558 33.5658 223.147 32.2965 222.326 30.3178ZM217.902 16.9898C218.798 16.0938 219.694 15.6458 220.59 15.6458C222.755 15.6458 224.771 18.3338 226.638 23.7098C227.161 25.1658 227.571 26.0805 227.87 26.4538C228.019 26.6032 228.729 28.5258 229.998 32.2218C231.081 35.4698 232.163 38.1392 233.246 40.2298C234.217 42.0218 234.702 43.5152 234.702 44.7098C234.702 45.9792 234.105 46.9125 232.91 47.5098C232.313 47.8085 231.809 47.9578 231.398 47.9578C230.129 47.9578 228.971 46.8005 227.926 44.4858C227.105 42.6938 226.545 41.7045 226.246 41.5178C226.171 41.4805 225.985 41.4618 225.686 41.4618C225.089 41.4618 224.286 41.5552 223.278 41.7418C222.158 41.9658 220.291 42.2085 217.678 42.4698L214.542 42.7498L213.142 46.1658C211.611 50.0112 210.025 51.9338 208.382 51.9338C207.635 51.9338 206.926 51.6165 206.254 50.9818C205.582 50.3472 205.246 49.6938 205.246 49.0218C205.246 48.2752 206.086 45.8485 207.766 41.7418C209.334 37.7845 210.622 34.3498 211.63 31.4378C212.265 29.4592 212.862 27.7792 213.422 26.3978C214.019 24.9792 214.579 23.5232 215.102 22.0298C215.998 19.6405 216.931 17.9605 217.902 16.9898Z" fill="#393939"/>
<path d="M241.966 9.48584C242.638 8.73918 243.385 8.36584 244.206 8.36584C245.065 8.36584 245.886 8.81384 246.67 9.70984C247.305 10.4565 247.622 11.0912 247.622 11.6138C247.622 11.8752 247.566 12.2672 247.454 12.7898C247.006 15.4778 245.961 16.8218 244.318 16.8218C244.169 16.8218 243.87 16.7845 243.422 16.7098C241.742 16.3365 240.902 14.9552 240.902 12.5658C240.902 11.3338 241.257 10.3072 241.966 9.48584ZM243.646 24.7178C244.393 24.0832 245.121 23.7658 245.83 23.7658C246.54 23.7658 247.249 24.1205 247.958 24.8298C248.444 25.3152 248.742 25.8378 248.854 26.3978C248.966 26.9205 249.022 28.2085 249.022 30.2618C249.022 32.5392 249.228 35.4885 249.638 39.1098C249.862 40.8645 249.974 42.1525 249.974 42.9738C249.974 43.7205 249.9 44.2245 249.75 44.4858C249.078 45.7552 248.108 46.3898 246.838 46.3898C246.092 46.3898 245.401 46.1285 244.766 45.6058C244.169 45.0832 243.758 44.3738 243.534 43.4778C243.273 42.4325 242.974 40.2672 242.638 36.9818C242.34 33.6965 242.19 31.1205 242.19 29.2538C242.19 29.1045 242.19 28.8992 242.19 28.6378C242.228 28.3765 242.246 28.2085 242.246 28.1338C242.321 27.1632 242.452 26.4538 242.638 26.0058C242.825 25.5578 243.161 25.1285 243.646 24.7178Z" fill="#393939"/>
<path d="M282.932 20.8538C283.38 20.5178 284.052 20.3498 284.948 20.3498C285.732 20.3498 286.329 20.4805 286.74 20.7418C287.711 21.2272 288.196 22.0672 288.196 23.2618C288.196 24.1578 287.935 25.5018 287.412 27.2938C287.188 28.0778 286.479 30.8405 285.284 35.5818C284.687 38.1578 283.94 40.4352 283.044 42.4138C282.148 44.3925 281.289 45.6992 280.468 46.3338C279.759 46.9312 278.713 47.2298 277.332 47.2298C274.495 47.2298 271.863 46.3152 269.436 44.4858C268.428 43.7765 267.271 42.5072 265.964 40.6778C264.62 38.9978 263.873 38.1578 263.724 38.1578C263.612 38.1578 263.369 39.6138 262.996 42.5258C262.809 44.3178 262.623 45.5685 262.436 46.2778C262.249 46.9498 261.969 47.4912 261.596 47.9018C260.924 48.6112 260.103 48.9658 259.132 48.9658C258.273 48.9658 257.508 48.6858 256.836 48.1258C256.201 47.6032 255.884 46.7632 255.884 45.6058C255.884 45.4565 255.884 45.1952 255.884 44.8218C255.921 44.4485 255.94 44.1498 255.94 43.9258C256.015 41.4618 256.276 38.8672 256.724 36.1418C257.172 33.4165 257.639 31.6058 258.124 30.7098C259.543 27.9472 261.167 26.5658 262.996 26.5658C263.929 26.5658 264.657 26.8085 265.18 27.2938C265.74 27.7418 266.524 28.8245 267.532 30.5418C271.153 36.8138 274.047 39.9498 276.212 39.9498C276.809 39.9498 278.06 35.9925 279.964 28.0778C280.636 25.4272 281.121 23.6912 281.42 22.8698C281.756 22.0485 282.26 21.3765 282.932 20.8538Z" fill="#393939"/>
<path d="M311.075 24.2698C315.667 23.9712 318.336 23.8032 319.083 23.7658H319.251C320.072 23.7658 320.912 24.1765 321.771 24.9978C322.555 25.7818 322.947 26.4912 322.947 27.1258C322.947 27.4992 322.835 28.0032 322.611 28.6378C322.312 29.4965 321.696 30.0752 320.763 30.3738C319.867 30.6352 318.056 30.8405 315.331 30.9898L310.403 31.2138L310.179 36.5338C310.141 37.2805 310.123 38.3632 310.123 39.7818C310.123 42.7312 310.365 45.7925 310.851 48.9658C310.925 49.4138 310.963 49.7125 310.963 49.8618C310.963 50.3845 310.571 50.9818 309.787 51.6538C308.965 52.3632 308.181 52.7178 307.435 52.7178C306.613 52.7178 305.755 52.2698 304.859 51.3738C304.224 50.7392 303.813 50.1605 303.627 49.6378C303.44 49.0778 303.272 47.9205 303.123 46.1658C302.973 44.1498 302.899 42.0218 302.899 39.7818C302.899 38.5872 302.917 37.7285 302.955 37.2058L303.123 32.0538L301.443 31.9418C298.68 31.7925 296.813 31.4752 295.843 30.9898C294.872 30.4672 294.387 29.6085 294.387 28.4138C294.387 26.9952 294.797 25.9685 295.619 25.3338C296.44 24.6992 297.784 24.3818 299.651 24.3818C300.285 24.3818 300.771 24.4005 301.107 24.4378C301.517 24.4752 302.376 24.4938 303.683 24.4938C306.483 24.4938 308.947 24.4192 311.075 24.2698Z" fill="#393939"/>
</svg>
