<svg width="429" height="89" viewBox="0 0 429 89" fill="none" xmlns="http://www.w3.org/2000/svg">
<path fill-rule="evenodd" clip-rule="evenodd" d="M44.9339 0.922455C69.3263 0.922455 85.3611 24.1147 85.3611 48.4776C85.3611 70.7963 67.2796 88.9225 44.9339 88.9225C21.3698 88.9225 0.199768 72.0133 0.199768 48.4776C0.199768 22.9952 19.4207 0.922455 44.9339 0.922455Z" fill="#F99D1F"/>
<path d="M60.4445 22.0067C60.2315 22.0067 59.9237 21.8199 59.7107 21.7147C59.3556 21.5395 59.0479 21.2709 58.6928 21.1074C58.3378 20.9322 57.9354 20.8504 57.5803 20.6986C57.2134 20.535 56.811 20.4766 56.456 20.3365C56.0891 20.1846 55.7103 20.0678 55.3434 19.9277C54.9765 19.7875 54.6333 19.5656 54.2664 19.4371C53.8877 19.3086 53.5326 19.1451 53.1539 19.0283C52.7752 18.9115 52.4083 18.748 52.0295 18.6546C51.6508 18.5494 51.2484 18.491 50.8697 18.3976C50.4791 18.3042 50.0885 18.2691 49.698 18.1874C49.3074 18.1173 48.905 18.1757 48.5144 18.1173C48.1238 18.0589 47.7688 17.7785 47.3782 17.7318C46.9876 17.6851 46.5852 17.7201 46.1947 17.6851C45.8041 17.6501 45.4017 17.6734 45.0111 17.6501C44.6206 17.6267 44.23 17.4982 43.8276 17.4865C43.437 17.4749 43.0346 17.615 42.6441 17.615C42.2417 17.615 41.8511 17.6267 41.4605 17.6384C41.0581 17.6501 40.6676 17.5683 40.2652 17.5917C39.8746 17.615 39.4722 17.6968 39.0816 17.7318C38.691 17.7669 38.2886 17.8019 37.8981 17.8486C37.5075 17.8953 37.1051 17.8837 36.7145 17.9537C36.324 18.0122 35.9334 18.0822 35.5428 18.164C35.1523 18.2341 34.7972 18.456 34.4066 18.5494C34.0161 18.6429 33.6373 18.7246 33.2586 18.8298C32.8799 18.9349 32.4538 18.9115 32.0751 19.0283C31.6963 19.1451 31.3413 19.3554 30.9744 19.4722C30.5956 19.6006 30.2287 19.7174 29.85 19.8576C29.4831 19.9978 29.1162 20.1496 28.7493 20.3014C28.3824 20.4533 27.9919 20.535 27.625 20.6986C27.2699 20.8621 26.9267 21.0723 26.5716 21.2475C26.2165 21.4227 25.8378 21.5629 25.4946 21.7498C25.1277 21.96 24.7726 21.96 24.3939 21.8432C24.0152 21.7264 23.6719 21.5512 23.4707 21.1891C23.2577 20.8271 23.1157 20.3949 23.234 20.0211C23.3524 19.6474 23.7429 19.4021 24.1098 19.2035C24.4649 19.0166 24.8318 18.8531 25.1869 18.6779C25.5419 18.5027 25.8496 18.199 26.2165 18.0238C26.5834 17.8603 27.0095 17.8253 27.3764 17.6734C27.7433 17.5216 28.0984 17.3113 28.4653 17.1595C28.844 17.0193 29.2346 16.9025 29.6133 16.7741C29.992 16.6456 30.3471 16.4587 30.7377 16.3302C31.1164 16.2017 31.507 16.0966 31.8975 15.9798C32.2881 15.863 32.655 15.6995 33.0456 15.6061C33.4361 15.5126 33.8622 15.5477 34.2528 15.4659C34.6433 15.3841 34.9984 15.1155 35.4008 15.0337C35.7914 14.9636 36.2174 14.9987 36.608 14.9403C37.0104 14.8819 37.401 14.7651 37.7916 14.7184C38.194 14.6716 38.5964 14.7067 38.9988 14.6716C39.4012 14.6366 39.7917 14.5665 40.1941 14.5432C40.5965 14.5198 40.9989 14.3913 41.4013 14.3796C41.8038 14.368 42.2062 14.403 42.6086 14.403C43.011 14.403 43.4134 14.5665 43.8158 14.5782C44.2182 14.5899 44.6206 14.5315 45.023 14.5548C45.4254 14.5782 45.8278 14.66 46.2183 14.695C46.6208 14.73 47.0113 14.7768 47.4137 14.8235C47.8161 14.8702 48.2067 14.9169 48.6091 14.9753C49.0115 15.0337 49.4376 14.9286 49.8281 14.9987C50.2187 15.0688 50.5738 15.3608 50.9643 15.4542C51.3549 15.536 51.7691 15.5477 52.1597 15.6528C52.5503 15.7462 52.9409 15.828 53.3314 15.9448C53.7102 16.0499 54.0889 16.2017 54.4795 16.3302C54.8582 16.447 55.2251 16.6222 55.6038 16.7624C55.9825 16.8909 56.3849 16.9609 56.7637 17.1011C57.1306 17.2413 57.533 17.3347 57.9117 17.4865C58.2786 17.6384 58.5982 17.907 58.9651 18.0706C59.332 18.2341 59.7344 18.3158 60.1013 18.491C60.4563 18.6546 60.764 18.9466 61.1309 19.1218C61.4978 19.332 61.7582 19.6006 61.8766 19.9744C61.9949 20.3482 61.9476 20.7219 61.7345 21.084C61.5215 21.5979 61.0718 21.9367 60.4327 21.9367C60.409 21.9367 60.4445 22.0067 60.4445 22.0067ZM16.4879 38.0318C16.1683 38.0318 15.8606 37.8449 15.6594 37.6347C15.3043 37.3894 15.2096 37.0273 15.1268 36.6653C15.0439 36.2798 15.0321 35.906 15.2451 35.579C15.47 35.2636 15.6239 34.8782 15.8606 34.5745C16.0973 34.2592 16.334 33.9438 16.5825 33.6401C16.8311 33.3364 17.1625 33.1028 17.4229 32.8108C17.6832 32.5188 17.9791 32.2619 18.2513 31.9815C18.5235 31.7012 18.8431 31.4676 19.1153 31.1873C19.3994 30.9186 19.6597 30.6266 19.9556 30.3697C20.2515 30.1127 20.5237 29.8207 20.8196 29.5754C21.1273 29.3302 21.3404 28.9681 21.6481 28.7345C21.9558 28.5009 22.4174 28.4425 22.7369 28.2089C23.0565 27.9869 23.3405 27.6949 23.6601 27.4847C23.9915 27.2745 24.2992 27.0175 24.6306 26.8189C24.962 26.6204 25.3644 26.5153 25.7076 26.3284C26.0508 26.1415 26.3231 25.8261 26.6781 25.6509C27.045 25.464 27.4001 25.2888 27.7788 25.1136C28.1457 24.9501 28.56 24.8684 28.9387 24.7165C29.3174 24.5647 29.6725 24.3661 30.0512 24.226C30.4299 24.0858 30.8205 23.969 31.1992 23.8405C31.5898 23.712 31.9922 23.6536 32.3828 23.5368C32.7733 23.42 33.1639 23.3149 33.5545 23.2215C33.9451 23.1163 34.312 22.8944 34.7025 22.801C35.0931 22.7075 35.4955 22.6375 35.8979 22.5674C36.3003 22.4973 36.7145 22.5557 37.1169 22.4973C37.5193 22.4389 37.9099 22.2871 38.3123 22.2403C38.7147 22.1936 39.1171 22.1703 39.5314 22.1352C39.9338 22.1002 40.3362 22.0651 40.7504 22.0418C41.1528 22.0184 41.567 22.0885 41.9694 22.0768C42.3719 22.0651 42.7743 22.0184 43.1885 22.0301C43.5909 22.0301 43.9933 22.1002 44.4075 22.1235C44.8099 22.1469 45.2123 22.1819 45.6147 22.217C46.0171 22.252 46.4314 22.2287 46.8338 22.2754C47.2362 22.3221 47.6623 22.2403 48.0647 22.3104C48.4671 22.3688 48.834 22.6024 49.2364 22.6725C49.6388 22.7426 50.0293 22.8477 50.4199 22.9411C50.8223 23.0346 51.2484 22.9762 51.639 23.0813C52.0295 23.1864 52.3846 23.4317 52.7752 23.5485C53.1657 23.6653 53.5681 23.7237 53.9469 23.8522C54.3374 23.9807 54.7043 24.1559 55.0831 24.296C55.4618 24.4362 55.8642 24.5296 56.2311 24.6932C56.6098 24.845 56.9767 25.0202 57.3436 25.1837C57.7105 25.3589 58.1011 25.4757 58.468 25.6626C58.823 25.8378 59.1071 26.1415 59.4503 26.3284C59.7935 26.5153 60.2314 26.5503 60.5747 26.7489C60.9179 26.9474 61.1901 27.2511 61.5215 27.473C61.8529 27.6833 62.208 27.8585 62.5275 28.0921C62.8471 28.314 63.1074 28.6177 63.427 28.863C63.7347 29.1082 64.0661 29.3185 64.362 29.5754C64.6579 29.8324 65.0366 30.0076 65.3207 30.2646C65.6166 30.5215 65.8651 30.8369 66.1491 31.1055C66.4332 31.3742 66.5871 31.7713 66.8593 32.0516C67.1315 32.3319 67.451 32.5655 67.7114 32.8692C67.9718 33.1612 68.1848 33.4883 68.4334 33.792C68.6819 34.0956 68.9186 34.3993 69.1553 34.7147C69.392 35.0184 69.6406 35.3337 69.8655 35.6491C70.1377 35.9644 70.3744 36.3616 70.2915 36.747C70.2087 37.1325 69.8063 37.3777 69.4394 37.588C69.0725 37.8449 68.7293 37.9968 68.3505 37.9267C67.96 37.8566 67.6049 37.6464 67.3919 37.2726C67.1433 36.9339 66.9184 36.5718 66.6699 36.2448C66.4095 35.906 66.1847 35.5556 65.9124 35.2286C65.6402 34.9016 65.297 34.6446 65.0129 34.3409C64.7289 34.0372 64.3857 33.7803 64.0898 33.4766C63.7939 33.1846 63.569 32.8108 63.2613 32.5188C62.9536 32.2385 62.5749 32.0283 62.2435 31.7596C61.9239 31.491 61.6635 31.1406 61.3203 30.8836C60.9889 30.6266 60.6102 30.4164 60.267 30.1828C59.9237 29.9492 59.5805 29.6922 59.2254 29.4703C58.8704 29.2484 58.468 29.0966 58.0892 28.898C57.7223 28.6994 57.3554 28.4658 56.9767 28.2789C56.6217 28.1037 56.2666 27.9285 55.8997 27.765C55.5328 27.6015 55.1659 27.438 54.799 27.2861C54.4321 27.1343 54.006 27.1343 53.6273 27.0058C53.2486 26.8657 52.929 26.597 52.5503 26.4685C52.1716 26.3517 51.7928 26.1882 51.4141 26.0831C51.0354 25.978 50.6329 25.9079 50.2424 25.8145C49.8518 25.721 49.4376 25.7444 49.047 25.6626C48.6564 25.5808 48.254 25.5692 47.8635 25.5108C47.4729 25.4524 47.0823 25.394 46.6799 25.3356C46.2894 25.2888 45.8988 25.2071 45.4964 25.172C45.094 25.137 44.7034 25.137 44.301 25.1136C43.8986 25.0903 43.508 24.88 43.1056 24.88C42.7032 24.8684 42.3008 25.0202 41.9103 25.0319C41.5079 25.0436 41.1173 25.102 40.7149 25.1253C40.3125 25.1487 39.9101 25.0669 39.5195 25.102C39.1171 25.137 38.7147 25.0669 38.3123 25.1136C37.9099 25.1604 37.5312 25.2888 37.1406 25.3589C36.75 25.4173 36.3713 25.5575 35.9689 25.6392C35.5783 25.721 35.1996 25.8495 34.809 25.9429C34.4185 26.0364 34.0397 26.1532 33.661 26.2583C33.2704 26.3634 32.8444 26.3167 32.4656 26.4452C32.0869 26.562 31.6963 26.6554 31.3176 26.7956C30.9389 26.9357 30.5838 27.1343 30.2169 27.2861C29.85 27.438 29.5186 27.6833 29.1636 27.8468C28.7967 28.0103 28.4298 28.1505 28.0747 28.3373C27.696 28.5242 27.3054 28.6878 26.9385 28.8863C26.5716 29.0966 26.1692 29.2367 25.8023 29.4586C25.4472 29.6806 25.1277 29.9726 24.7845 30.2062C24.4412 30.4398 24.0743 30.6734 23.7429 30.9303C23.4116 31.1873 23.0802 31.4559 22.7606 31.7246C22.4411 31.9932 22.157 32.3203 21.8493 32.6006C21.5416 32.8809 21.151 33.0911 20.8433 33.3831C20.5474 33.6751 20.3225 34.0489 20.0266 34.3526C19.7426 34.6563 19.4585 34.9716 19.1863 35.287C18.9141 35.6024 18.6656 35.9411 18.4052 36.2681C18.1448 36.5952 17.8726 36.9222 17.6241 37.2609C17.411 37.6814 16.9968 37.9617 16.476 37.9617C16.4523 37.9267 16.4879 38.0318 16.4879 38.0318ZM35.673 74.6489C35.2469 74.6489 34.8445 74.462 34.6315 74.1467C34.312 73.8313 34.0871 73.4692 33.803 73.1655C33.4953 72.8502 33.1402 72.6049 32.8562 72.3012C32.5603 71.9858 32.2053 71.7406 31.933 71.4135C31.6608 71.0865 31.3768 70.7711 31.1046 70.4324C30.8442 70.1054 30.6785 69.7082 30.4299 69.3461C30.1932 69.0074 29.992 68.6337 29.7553 68.2716C29.5305 67.9329 29.3648 67.5474 29.128 67.162C28.915 66.8116 28.6783 66.4728 28.4534 66.0874C28.2522 65.7253 28.0274 65.3749 27.838 65.0012C27.6605 64.6274 27.3527 64.3003 27.187 63.9149C27.0214 63.5295 27.0805 63.0623 26.9385 62.6651C26.7965 62.2797 26.5834 61.9059 26.4651 61.5088C26.3349 61.1117 26.1692 60.7262 26.0627 60.3174C25.9562 59.9203 25.968 59.4882 25.8852 59.0793C25.8023 58.6705 25.5656 58.2968 25.4946 57.8763C25.4236 57.4675 25.3644 57.0587 25.3052 56.6382C25.2579 56.2294 25.3052 55.7972 25.2697 55.3884C25.2342 54.9796 25.1632 54.5592 25.1514 54.1503C25.1395 53.7415 25.1395 53.3211 25.1395 52.9006C25.1395 52.4918 25.2342 52.1063 25.2697 51.7092C25.3052 51.3121 25.3526 50.915 25.4236 50.5295C25.4946 50.1324 25.4354 49.7119 25.5301 49.3265C25.6248 48.941 25.7431 48.5439 25.8733 48.1701C26.0035 47.7847 26.2639 47.4577 26.4177 47.0956C26.5716 46.7218 26.6545 46.3247 26.832 45.9626C27.0095 45.6005 27.2226 45.2618 27.4238 44.9114C27.625 44.561 27.838 44.2223 28.0747 43.8952C28.3114 43.5682 28.6073 43.2995 28.8677 42.9842C29.1162 42.6688 29.3529 42.3418 29.6251 42.0498C29.8974 41.7578 30.2169 41.5125 30.5128 41.2438C30.8087 40.9752 31.1164 40.7182 31.436 40.473C31.7555 40.216 32.0277 39.924 32.3591 39.7021C32.6905 39.4685 32.9627 39.1414 33.3059 38.9312C33.6492 38.7209 34.0871 38.6742 34.454 38.4873C34.809 38.3005 35.1878 38.1603 35.5665 37.9968C35.9334 37.8449 36.2648 37.5529 36.6435 37.4245C37.0223 37.296 37.4483 37.3077 37.8507 37.2025C38.2413 37.0974 38.62 36.9456 39.0106 36.8638C39.4012 36.7821 39.8036 36.7587 40.2178 36.7003C40.6202 36.6419 41.0108 36.5485 41.425 36.5251C41.8274 36.5017 42.2298 36.4901 42.6441 36.4901C43.0465 36.4901 43.4607 36.4433 43.8631 36.4667C44.2655 36.4901 44.6561 36.6769 45.0466 36.7237C45.4491 36.7821 45.8751 36.6536 46.2775 36.7353C46.6799 36.8171 47.0468 37.0157 47.4374 37.1208C47.828 37.2259 48.2304 37.296 48.6091 37.4245C48.9878 37.5529 49.3311 37.7865 49.7098 37.9384C50.0767 38.0902 50.4554 38.2304 50.8223 38.4173C51.1774 38.6041 51.5916 38.6976 51.9348 38.9078C52.2781 39.1181 52.5976 39.375 52.929 39.597C53.2604 39.8306 53.4853 40.1926 53.8048 40.4379C54.1244 40.6832 54.4676 40.8818 54.7635 41.1621C55.0594 41.4307 55.3079 41.7461 55.5801 42.0381C55.8524 42.3301 56.1127 42.6338 56.3613 42.9375C56.6098 43.2528 56.8702 43.5565 57.0951 43.8835C57.3199 44.2106 57.6987 44.4442 57.9117 44.7946C58.1129 45.1333 58.1248 45.5888 58.3023 45.9509C58.4798 46.313 58.7284 46.6284 58.8822 47.0021C59.0361 47.3759 59.1899 47.738 59.3201 48.1117C59.4385 48.4855 59.5213 48.8826 59.616 49.2681C59.7107 49.6535 59.7344 50.0506 59.7935 50.4478C59.8527 50.8449 59.9829 51.2186 60.0184 51.6274C60.0539 52.0246 60.1368 52.4217 60.1368 52.8188C60.1368 53.2393 59.8646 53.6014 59.5805 53.8934C59.3083 54.1737 58.9532 54.419 58.4916 54.419C58.0656 54.419 57.7224 54.162 57.4265 53.87C57.1424 53.6014 56.953 53.2743 56.953 52.8188C56.953 52.4217 56.9767 52.0129 56.9412 51.6158C56.9057 51.2186 56.7874 50.8332 56.7163 50.4361C56.6453 50.039 56.5862 49.6418 56.4678 49.2681C56.3613 48.8826 56.2311 48.5089 56.0772 48.1351C55.9234 47.7613 55.7695 47.3993 55.5801 47.0489C55.4026 46.6985 55.0594 46.4298 54.8463 46.0911C54.6333 45.7524 54.5268 45.3436 54.2783 45.0282C54.0297 44.7128 53.8048 44.3858 53.5208 44.0821C53.2486 43.7901 52.929 43.5331 52.6331 43.2645C52.3372 42.9959 51.9585 42.8323 51.639 42.5871C51.3194 42.3418 50.9643 42.1783 50.6211 41.9563C50.2779 41.7461 49.9465 41.5475 49.5796 41.3606C49.2245 41.1738 48.8813 40.9752 48.5144 40.8234C48.1475 40.6715 47.7688 40.5547 47.3782 40.4379C46.9995 40.3094 46.6681 40.0174 46.2657 39.924C45.8751 39.8306 45.4491 39.9006 45.0466 39.8422C44.6561 39.7838 44.2537 39.7955 43.8513 39.7605C43.4489 39.7254 43.0583 39.6086 42.6559 39.6086C42.2417 39.6086 41.8393 39.5152 41.4369 39.5386C41.0345 39.5736 40.632 39.6904 40.2296 39.7488C39.8272 39.8072 39.4485 39.959 39.0579 40.0525C38.6674 40.1459 38.2886 40.2978 37.9099 40.4262C37.5193 40.5547 37.1643 40.7066 36.7855 40.8701C36.4068 41.0219 35.9807 41.0453 35.6138 41.2322C35.2588 41.4191 34.88 41.5826 34.5368 41.8045C34.1936 42.0264 33.8859 42.2951 33.5663 42.5403C33.2468 42.7856 32.9982 43.1127 32.6905 43.3813C32.3946 43.6499 32.0751 43.9069 31.8028 44.1989C31.5306 44.4909 31.2347 44.7712 30.9862 45.0866C30.7377 45.402 30.4418 45.694 30.2287 46.0327C30.0157 46.3714 29.8737 46.7569 29.6843 47.1189C29.4949 47.4693 29.3056 47.8314 29.1636 48.2052C29.0097 48.5789 28.8913 48.9644 28.773 49.3498C28.6546 49.7353 28.6191 50.1324 28.5481 50.5295C28.4771 50.915 28.2996 51.3004 28.2522 51.7092C28.2167 52.1063 28.2877 52.5151 28.2877 52.9123C28.2877 53.3211 28.2996 53.7182 28.3114 54.127C28.3232 54.5358 28.3706 54.9329 28.4061 55.3417C28.4416 55.7505 28.4653 56.1476 28.5126 56.5448C28.56 56.9536 28.5955 57.3507 28.6665 57.7478C28.7375 58.1449 28.8677 58.5304 28.9624 58.9275C29.057 59.3246 29.0807 59.7334 29.1991 60.1189C29.3174 60.516 29.3884 60.9131 29.5305 61.2986C29.6606 61.684 29.8974 62.0344 30.0512 62.4082C30.2051 62.7819 30.3471 63.1674 30.5246 63.5295C30.7022 63.8915 31.0454 64.1719 31.2466 64.5223C31.4478 64.8844 31.507 65.2932 31.6963 65.6085C31.9094 65.9589 32.1934 66.2392 32.3946 66.5546C32.6195 66.905 32.797 67.2321 33.0101 67.5474C33.2349 67.8745 33.4006 68.2365 33.6373 68.5402C33.874 68.8556 34.0871 69.1826 34.3356 69.4863C34.5842 69.7783 34.9984 69.9301 35.2706 70.2222C35.531 70.5025 35.7677 70.8062 36.0518 71.0982C36.3121 71.3668 36.608 71.6238 36.8921 71.9158C37.2116 72.2311 37.3773 72.675 37.3773 73.0604C37.3773 73.4459 37.2116 73.9131 36.8921 74.2284C36.5843 74.427 36.0991 74.5555 35.673 74.5555C35.6375 74.5671 35.673 74.6489 35.673 74.6489ZM57.817 69.0308C57.391 69.0308 56.9767 68.9373 56.5625 68.9023C56.1364 68.8789 55.734 68.7388 55.3316 68.6804C54.9174 68.622 54.4913 68.6453 54.0889 68.5753C53.6746 68.4935 53.2367 68.5052 52.8462 68.3884C52.4438 68.2716 52.0295 68.1665 51.639 68.0263C51.2484 67.8861 50.8933 67.6292 50.5146 67.4656C50.1359 67.2905 49.7808 67.0685 49.4257 66.8583C49.0588 66.6597 48.7393 66.3911 48.3961 66.1575C48.0528 65.9356 47.7096 65.7253 47.3901 65.4684C47.0705 65.2231 46.7391 64.9895 46.4314 64.7208C46.1237 64.4522 45.7331 64.2653 45.4609 63.9733C45.1768 63.6813 45.0822 63.2258 44.8218 62.9104C44.5614 62.5951 44.2537 62.3264 44.0288 61.9994C43.7921 61.6723 43.5317 61.357 43.3187 61.0066C43.1056 60.6562 43.0228 60.2474 42.8334 59.8853C42.6559 59.5232 42.3482 59.2195 42.1943 58.8457C42.0405 58.472 41.8984 58.0865 41.7682 57.7011C41.6499 57.3157 41.6262 56.9069 41.5315 56.5097C41.4369 56.1126 41.3185 55.7272 41.2475 55.33C41.1883 54.9329 41.1528 54.5241 41.1173 54.127C41.0818 53.7299 41.141 53.3211 41.141 52.9239C41.141 52.5035 41.283 52.1647 41.5789 51.8727C41.8511 51.5924 42.1825 51.3121 42.6441 51.3121C43.1175 51.3121 43.5436 51.4873 43.8276 51.7559C44.1117 52.0246 44.1353 52.4451 44.1353 52.9239C44.1353 53.3094 44.2418 53.7065 44.2773 54.0919C44.3129 54.4774 44.3602 54.8745 44.4312 55.2483C44.5022 55.6337 44.6087 56.0075 44.7153 56.3812C44.8218 56.755 44.8691 57.1521 45.023 57.5142C45.165 57.8763 45.3662 58.215 45.5437 58.5654C45.7213 58.9158 45.8633 59.2896 46.0763 59.6166C46.2775 59.9437 46.5024 60.2824 46.7391 60.5978C46.9758 60.9131 47.2835 61.1701 47.5439 61.4621C47.8043 61.7541 48.1712 61.941 48.4671 62.2096C48.7511 62.4783 48.9405 62.852 49.2482 63.0973C49.5559 63.3426 49.8637 63.5995 50.195 63.8098C50.5264 64.02 50.9407 64.1018 51.2839 64.2887C51.6271 64.4756 51.923 64.7792 52.2781 64.9311C52.6331 65.0829 53.0355 65.1647 53.4024 65.2815C53.7693 65.3983 54.1481 65.5384 54.5268 65.6202C54.9055 65.702 55.3079 65.7136 55.6985 65.772C56.0772 65.8304 56.4678 65.8655 56.8702 65.8888C57.2489 65.9122 57.6513 65.8655 58.0419 65.8655C58.326 65.8655 58.7047 65.994 59.1071 65.9589C59.4385 65.9356 59.7817 65.7136 60.1368 65.6669C60.48 65.6202 60.8587 65.6786 61.202 65.6202C61.628 65.5735 62.0423 65.6319 62.3618 65.8538C62.6695 66.0757 62.8352 66.4495 62.9418 66.8583C62.9891 67.2788 62.9181 67.6525 62.6932 67.9679C62.4683 68.2716 62.1606 68.6103 61.7345 68.7037C61.273 68.7505 60.8232 68.7505 60.4208 68.7855C59.9356 68.8322 59.4858 68.7154 59.1071 68.7388C58.468 68.7855 58.0064 68.8906 57.8052 68.8906C57.7697 68.9373 57.817 69.0308 57.817 69.0308ZM51.5916 75.2796C51.4851 75.2796 51.2839 75.1979 51.1774 75.0928C50.775 74.9876 50.4199 74.7657 50.0412 74.6489C49.6506 74.5321 49.2364 74.4854 48.8695 74.3569C48.4789 74.2167 48.0647 74.1817 47.6978 74.0299C47.319 73.878 46.9285 73.7379 46.5734 73.586C46.2065 73.4225 45.8751 73.1539 45.5201 72.9787C45.165 72.7918 44.8336 72.5582 44.4785 72.3596C44.1353 72.161 43.8158 71.9041 43.4844 71.6822C43.153 71.4602 42.7979 71.2617 42.4784 71.0281C42.1588 70.7945 41.8156 70.5842 41.5079 70.3273C41.2001 70.082 40.7977 69.9185 40.5019 69.6498C40.206 69.3929 40.0639 68.949 39.7681 68.6687C39.484 68.3884 39.1645 68.1665 38.9041 67.8745C38.6437 67.5825 38.336 67.3255 38.0874 67.0218C37.8389 66.7181 37.685 66.3444 37.4602 66.029C37.2235 65.7136 36.8802 65.48 36.6672 65.153C36.4542 64.826 36.2411 64.4989 36.0399 64.1602C35.8387 63.8215 35.744 63.436 35.5547 63.0856C35.3771 62.7352 35.1641 62.4082 34.9984 62.0461C34.8327 61.684 34.7025 61.3219 34.5605 60.9598C34.4185 60.5978 34.3475 60.2123 34.2291 59.8386C34.1107 59.4648 34.0042 59.091 33.8977 58.7173C33.7912 58.3435 33.5663 57.9931 33.4835 57.6077C33.4006 57.2222 33.3414 56.8368 33.2704 56.4513C33.2113 56.0659 33.2941 55.6688 33.2586 55.2716C33.2231 54.8862 33.0929 54.5008 33.0811 54.1153C33.0574 53.7299 33.0692 53.3327 33.0692 52.9473C33.0692 52.5385 33.0929 52.1414 33.1402 51.7559C33.1994 51.3588 33.3651 50.985 33.4716 50.6113C33.59 50.2258 33.6728 49.8404 33.8385 49.4783C34.0042 49.1162 34.2409 48.7892 34.454 48.4505C34.667 48.1117 34.9037 47.8081 35.1641 47.4927C35.4245 47.189 35.6375 46.8503 35.9334 46.5816C36.2293 46.313 36.4542 45.9509 36.7855 45.7173C37.1169 45.4837 37.543 45.4136 37.9099 45.2268C38.265 45.0399 38.6319 44.8997 39.0106 44.7479C39.3893 44.6077 39.7207 44.3508 40.1231 44.2456C40.5137 44.1522 40.9279 44.2223 41.3422 44.1756C41.7327 44.1288 42.1351 44.0471 42.5375 44.0471C42.9518 44.0471 43.3424 44.1055 43.7448 44.1522C44.1472 44.1989 44.5614 44.2106 44.952 44.304C45.3544 44.3975 45.7331 44.526 46.1118 44.6661C46.4906 44.8063 46.893 44.9231 47.248 45.11C47.6031 45.2968 47.8753 45.6356 48.2067 45.8575C48.5381 46.0911 48.976 46.1962 49.2719 46.4649C49.5678 46.7335 49.769 47.1073 50.0175 47.4226C50.2779 47.7263 50.5619 48.03 50.7631 48.3687C50.9762 48.7074 51.0827 49.1045 51.2484 49.4666C51.4141 49.8287 51.5798 50.1908 51.6863 50.5762C51.7928 50.9617 51.9822 51.3354 52.0414 51.7326C52.1005 52.118 52.0769 52.5385 52.0769 52.9473C52.0769 53.3561 51.9703 53.7766 52.0532 54.162C52.136 54.5592 52.3491 54.9329 52.5266 55.295C52.6923 55.6571 52.8698 56.0425 53.1065 56.3696C53.3433 56.6849 53.6273 57.012 53.935 57.2806C54.2309 57.5493 54.586 57.7945 54.9292 58.0048C55.2724 58.215 55.7222 58.2267 56.1009 58.3669C56.4796 58.507 56.811 58.8224 57.2253 58.8925C57.6158 58.9625 58.0419 58.9158 58.4561 58.9158C58.8704 58.9158 59.2846 58.8574 59.6752 58.7873C60.0894 58.7173 60.4918 58.6355 60.8706 58.507C61.2611 58.3669 61.6635 58.2267 62.0068 58.0281C62.3618 57.8179 62.6459 57.5142 62.9536 57.2456C63.2613 56.9769 63.4743 56.6382 63.7229 56.3112C63.9596 55.9841 64.2792 55.7038 64.4448 55.33C64.6105 54.968 64.6579 54.5592 64.7407 54.1503C64.8236 53.7649 64.9893 53.3678 64.9893 52.959C64.9893 52.5619 64.9419 52.1531 64.9183 51.7559C64.8946 51.3588 64.8946 50.95 64.8473 50.5529C64.7999 50.1558 64.6697 49.7703 64.5987 49.3732C64.5277 48.9761 64.4685 48.5789 64.3738 48.1935C64.2792 47.8081 64.1608 47.4226 64.0424 47.0372C63.9241 46.6517 63.7939 46.278 63.64 45.9042C63.498 45.5304 63.1903 45.2268 63.0246 44.8647C62.8589 44.5026 62.8234 44.0704 62.634 43.72C62.4447 43.3696 62.279 42.9959 62.0659 42.6571C61.8529 42.3184 61.6044 42.0031 61.3676 41.6643C61.1428 41.3373 60.8114 41.0803 60.5628 40.765C60.3143 40.4496 60.0184 40.181 59.7462 39.889C59.4858 39.5853 59.2136 39.305 58.9296 39.013C58.6455 38.7326 58.3851 38.4289 58.0892 38.1603C57.7934 37.8917 57.4738 37.6581 57.1542 37.4011C56.8465 37.1441 56.6453 36.747 56.3139 36.5134C55.9944 36.2798 55.5683 36.1747 55.2251 35.9528C54.8819 35.7308 54.515 35.579 54.1717 35.3804C53.8285 35.1819 53.5208 34.9016 53.1539 34.7264C52.7988 34.5512 52.4793 34.2708 52.1005 34.1073C51.7336 33.9438 51.3312 33.862 50.9525 33.7219C50.5738 33.5817 50.1714 33.5116 49.7808 33.3948C49.4021 33.278 48.9997 33.2079 48.6091 33.1028C48.2185 32.9977 47.828 32.9276 47.4256 32.8459C47.035 32.7641 46.6681 32.5305 46.2657 32.4721C45.8633 32.4137 45.4727 32.3203 45.0703 32.2735C44.6679 32.2385 44.2537 32.2619 43.8513 32.2385C43.4489 32.2151 43.0465 32.2969 42.6322 32.2969C42.2298 32.2969 41.8274 32.2735 41.4369 32.2852C41.0345 32.3086 40.632 32.2969 40.2415 32.3319C39.8391 32.367 39.4367 32.3436 39.0461 32.402C38.6555 32.4604 38.265 32.6006 37.8744 32.6823C37.4838 32.7641 37.0814 32.8225 36.7027 32.9276C36.3121 33.0327 35.9334 33.1495 35.5547 33.2663C35.1759 33.3831 34.809 33.57 34.4421 33.7102C34.0634 33.8504 33.6492 33.8854 33.2823 34.0372C32.9154 34.1891 32.5958 34.446 32.2289 34.6212C31.8739 34.7964 31.5188 34.9833 31.1756 35.1702C30.8323 35.3688 30.4891 35.579 30.1577 35.7892C29.8263 35.9995 29.4831 36.2097 29.1517 36.4433C28.8322 36.6769 28.4889 36.8872 28.1812 37.1325C27.8735 37.3777 27.6013 37.6697 27.2936 37.9384C26.9977 38.1953 26.6545 38.4173 26.3704 38.6976C26.0864 38.9779 25.7786 39.2349 25.5064 39.5269C25.246 39.8189 25.0567 40.181 24.7963 40.4963C24.5478 40.8 24.2755 41.092 24.0388 41.419C23.814 41.7344 23.7311 42.1549 23.5181 42.4936C23.305 42.8323 22.9736 43.0893 22.7843 43.4397C22.5949 43.7901 22.5002 44.1756 22.3227 44.5376C22.1452 44.9114 21.9558 45.2852 21.8019 45.6823C21.6481 46.0677 21.435 46.4415 21.3167 46.8503C21.1983 47.2474 21.0326 47.6445 20.938 48.0533C20.8433 48.4505 20.9616 48.906 20.8906 49.3265C20.8196 49.7353 20.7249 50.1324 20.6776 50.5529C20.6302 50.9617 20.6184 51.3822 20.5947 51.8027C20.5711 52.2115 20.5474 52.6319 20.5474 53.0524C20.5474 53.4379 20.5711 53.8467 20.5947 54.2905C20.6066 54.676 20.5237 55.0964 20.5592 55.5403C20.5947 55.9374 20.5474 56.3579 20.6066 56.7901C20.6539 57.1872 20.9143 57.5609 20.9853 57.9931C21.0563 58.3902 20.9498 58.8341 21.0445 59.2429C21.1273 59.64 21.293 60.0254 21.3995 60.4342C21.5061 60.8197 21.6244 61.2168 21.7546 61.6256C21.873 62.011 22.0978 62.3731 22.2399 62.7703C22.37 63.1557 22.4174 63.5762 22.5712 63.9733C22.7251 64.3821 22.6659 64.7559 22.5239 65.0946C22.37 65.4567 22.1215 65.737 21.7428 65.8888C21.3285 66.0407 20.9261 66.1108 20.5711 65.9589C20.2042 65.8071 19.8491 65.5034 19.6834 65.1296C19.5414 64.7442 19.5532 64.312 19.423 63.9266C19.2928 63.5411 19.1627 63.1557 19.0561 62.7586C18.9378 62.3615 18.6892 62.011 18.5827 61.6256C18.4762 61.2285 18.3815 60.8314 18.2868 60.4342C18.1922 60.0371 18.2987 59.6049 18.2277 59.1961C18.1566 58.799 17.9199 58.4253 17.8608 58.0165C17.8016 57.6077 17.8726 57.1989 17.8253 56.7901C17.7779 56.3812 17.6596 55.9841 17.6241 55.587C17.5885 55.1782 17.4939 54.7811 17.482 54.3723C17.4702 53.9635 17.6477 53.5547 17.6477 53.1459C17.6477 52.7254 17.482 52.2932 17.5057 51.8844C17.5294 51.4639 17.5649 51.0434 17.6004 50.623C17.6359 50.2025 17.6832 49.782 17.7424 49.3615C17.8016 48.941 18.0383 48.5556 18.1211 48.1468C18.204 47.7263 18.133 47.2825 18.2395 46.8853C18.346 46.4765 18.5235 46.0794 18.6656 45.694C18.7958 45.2968 19.0325 44.9348 19.1982 44.5376C19.3639 44.1405 19.5295 43.7667 19.7189 43.393C19.8964 43.0192 20.0385 42.6455 20.2397 42.2834C20.4409 41.9213 20.6776 41.5942 20.8906 41.2438C21.1037 40.8934 21.2457 40.4963 21.4824 40.1576C21.7191 39.8189 21.9795 39.5035 22.228 39.1765C22.4766 38.8494 22.7488 38.5341 23.021 38.2304C23.2932 37.915 23.5891 37.6347 23.8731 37.3427C24.1572 37.0507 24.4176 36.7237 24.7253 36.4433C25.0212 36.163 25.3526 35.906 25.6603 35.6374C25.968 35.3688 26.2876 35.1118 26.6189 34.8548C26.9385 34.5979 27.3646 34.4811 27.696 34.2358C28.0274 34.0022 28.3469 33.7336 28.6901 33.5116C29.0334 33.2897 29.3411 33.0094 29.708 32.7991C30.063 32.6006 30.4063 32.3553 30.7732 32.1684C31.1401 31.9815 31.507 31.783 31.8857 31.6078C32.2644 31.4443 32.6905 31.3975 33.0811 31.2457C33.4598 31.0939 33.8385 30.9303 34.2409 30.8018C34.6315 30.6734 34.9984 30.4748 35.4008 30.358C35.7914 30.2412 36.2293 30.2529 36.6317 30.1594C37.0341 30.066 37.4483 30.0426 37.8507 29.9609C38.2531 29.8791 38.6555 29.8324 39.0698 29.774C39.4722 29.7156 39.8746 29.6105 40.2888 29.5754C40.7031 29.5404 41.1055 29.4353 41.5197 29.4119C41.9339 29.3886 42.3482 29.4353 42.7624 29.4353C43.1648 29.4353 43.5791 29.3302 43.9815 29.3535C44.3839 29.3769 44.7981 29.3769 45.2005 29.4119C45.6029 29.447 46.0053 29.5638 46.3959 29.6222C46.7983 29.6806 47.2007 29.739 47.5913 29.809C47.9937 29.8791 48.3724 30.031 48.763 30.1244C49.1535 30.2178 49.5323 30.3814 49.911 30.4982C50.3016 30.6033 50.7513 30.5332 51.13 30.6617C51.5206 30.7902 51.8402 31.0822 52.2189 31.2223C52.5976 31.3625 52.9645 31.526 53.3314 31.6895C53.6983 31.8531 54.1126 31.9231 54.4795 32.0983C54.8463 32.2735 55.1896 32.4955 55.5446 32.6823C55.8997 32.8809 56.2903 33.0094 56.6335 33.2196C56.9767 33.4299 57.3081 33.6635 57.6395 33.8971C57.9709 34.119 58.2194 34.4577 58.5508 34.703C58.8704 34.9483 59.2136 35.1585 59.5213 35.4155C59.829 35.6724 60.1723 35.8944 60.4682 36.163C60.764 36.4317 60.9771 36.7821 61.2611 37.0741C61.5452 37.3544 61.8884 37.5763 62.1606 37.88C62.4328 38.1837 62.634 38.5224 62.8944 38.8377C63.143 39.1531 63.5099 39.375 63.7466 39.7021C63.9833 40.0291 64.1726 40.3912 64.3857 40.7182C64.6105 41.057 64.8117 41.3957 65.0129 41.7461C65.2141 42.0965 65.4509 42.4235 65.6402 42.7739C65.8296 43.1243 66.0426 43.4747 66.2083 43.8368C66.374 44.1989 66.516 44.5844 66.6581 44.9581C66.8001 45.3319 66.8001 45.7524 66.9303 46.1378C67.0605 46.5116 67.2853 46.862 67.3919 47.2474C67.4984 47.6329 67.5457 48.03 67.6286 48.4271C67.7114 48.8125 67.6996 49.2214 67.7706 49.6185C67.8298 50.0156 67.9955 50.3894 68.031 50.7865C68.0783 51.1836 67.9955 51.5807 68.0191 51.9895C68.0428 52.3867 68.0901 52.7838 68.0901 53.1809C68.0901 53.5897 68.1257 53.9868 68.0783 54.3723C68.0191 54.7694 67.8298 55.1315 67.7233 55.5169C67.6049 55.9024 67.6167 56.3228 67.451 56.6849C67.2853 57.047 66.9421 57.3157 66.7291 57.6544C66.516 57.9931 66.4214 58.4136 66.161 58.7173C65.9006 59.0209 65.6639 59.3713 65.368 59.64C65.0721 59.9086 64.7289 60.1422 64.3975 60.3758C64.0661 60.6094 63.6992 60.7846 63.3442 60.9832C62.9891 61.1701 62.6104 61.3336 62.2316 61.4738C61.8529 61.6139 61.4505 61.6723 61.0599 61.7658C60.6694 61.8592 60.2788 61.976 59.8764 62.0227C59.4858 62.0694 59.0716 62.1863 58.6692 62.1863C58.2549 62.1863 57.8644 61.9994 57.462 61.9527C57.0596 61.9059 56.6453 61.9059 56.2548 61.8008C55.8642 61.7074 55.4381 61.6606 55.0712 61.5205C54.6925 61.3803 54.3611 61.1 54.0179 60.9131C53.6628 60.7262 53.2959 60.5394 52.9645 60.3058C52.6331 60.0722 52.3964 59.7334 52.1005 59.4648C51.8047 59.1961 51.4378 58.9859 51.1774 58.6822C50.917 58.3785 50.7276 58.0165 50.5146 57.6777C50.3016 57.339 50.195 56.9536 50.0293 56.5915C49.8637 56.2294 49.5204 55.9257 49.4021 55.5403C49.2956 55.1548 49.4139 54.7227 49.3666 54.3256C49.3074 53.9401 49.1299 53.5547 49.1299 53.1459C49.1299 52.7371 49.1299 52.3399 49.0352 51.9545C48.9523 51.5574 48.7275 51.2186 48.5618 50.8566C48.3961 50.4945 48.3606 50.039 48.112 49.7236C47.8753 49.4082 47.4611 49.2214 47.1652 48.941C46.8693 48.6724 46.5616 48.4271 46.2065 48.2169C45.8633 48.0066 45.5201 47.7964 45.1295 47.6562C44.7508 47.5161 44.3484 47.4577 43.946 47.3876C43.5554 47.3175 43.153 47.2241 42.7387 47.2241C42.3245 47.2241 41.9221 47.3175 41.5315 47.3876C41.1173 47.4577 40.7031 47.481 40.3362 47.6095C39.9456 47.7497 39.555 47.9015 39.2118 48.1001C38.8567 48.3103 38.4898 48.5205 38.194 48.7892C37.8862 49.0578 37.6495 49.4082 37.401 49.7353C37.1643 50.0623 37.0814 50.4828 36.9157 50.8449C36.75 51.207 36.5015 51.5457 36.4186 51.9428C36.3358 52.3283 36.4305 52.7371 36.4305 53.1459C36.4305 53.543 36.4068 53.9284 36.4305 54.3139C36.4542 54.711 36.324 55.1081 36.3595 55.5052C36.4068 55.8907 36.6554 56.2528 36.7264 56.6382C36.7974 57.0237 36.679 57.4441 36.7737 57.8296C36.8684 58.215 37.1406 58.5421 37.2471 58.9158C37.3655 59.2896 37.4838 59.6634 37.614 60.0254C37.756 60.3875 37.8034 60.7963 37.9691 61.1584C38.1348 61.5205 38.4188 61.8125 38.6082 62.1629C38.7976 62.5133 38.9633 62.8637 39.1645 63.2024C39.3657 63.5411 39.5077 63.9149 39.7326 64.2419C39.9574 64.5573 40.1823 64.896 40.4308 65.1997C40.6794 65.5034 41.0818 65.6903 41.3422 65.9706C41.6026 66.2626 41.7564 66.6597 42.0405 66.94C42.3245 67.2087 42.6086 67.4773 42.8926 67.7226C43.1885 67.9796 43.5317 68.1781 43.8276 68.4234C44.1353 68.6687 44.5022 68.8205 44.8099 69.0425C45.1295 69.2761 45.3307 69.6615 45.6503 69.8601C45.9698 70.0703 46.3722 70.1754 46.7036 70.3623C47.035 70.5492 47.4137 70.666 47.7688 70.8412C48.112 71.0047 48.3961 71.3201 48.763 71.4719C49.118 71.6238 49.5441 71.5887 49.9228 71.7172C50.2779 71.8457 50.5974 72.091 50.988 72.2078C51.3549 72.3246 51.7455 72.3479 52.136 72.453C52.5621 72.5582 52.9408 72.8268 53.1184 73.1655C53.2959 73.5043 53.3314 73.9715 53.2249 74.3803C53.0592 74.5438 52.8107 74.8358 52.5148 74.9993C52.2426 75.1745 51.8875 75.2796 51.5916 75.2796Z" fill="white"/>
<path d="M106.328 32.8725C106.515 32.3498 107.28 31.6778 108.624 30.8565C109.968 29.9978 110.976 29.5685 111.648 29.5685C112.843 29.5685 114.934 29.8298 117.92 30.3525C120.944 30.8751 122.68 31.2671 123.128 31.5285C124.024 32.1258 124.472 32.9658 124.472 34.0485C124.472 34.5338 124.36 35.0191 124.136 35.5045C123.838 36.2138 123.464 36.7178 123.016 37.0165C122.568 37.2778 121.878 37.4085 120.944 37.4085C120.347 37.4085 119.264 37.3151 117.696 37.1285C116.128 36.9045 114.915 36.7925 114.056 36.7925C113.795 36.7925 113.646 36.8111 113.608 36.8485C113.496 36.9605 113.328 37.8005 113.104 39.3685L112.824 41.5525H116.128C119.6 41.5525 121.598 42.2058 122.12 43.5125C122.27 43.9231 122.344 44.3898 122.344 44.9125C122.344 45.8085 122.083 46.5738 121.56 47.2085C121.187 47.6565 120.72 47.9551 120.16 48.1045C119.638 48.2538 118.499 48.3658 116.744 48.4405L112.768 48.6645L112.544 54.1525C112.432 56.6911 112.302 58.2965 112.152 58.9685C112.04 59.6031 111.742 60.1258 111.256 60.5365C110.622 61.0591 109.912 61.3205 109.128 61.3205C108.232 61.3205 107.43 60.9658 106.72 60.2565C106.235 59.7711 105.936 59.2858 105.824 58.8005C105.712 58.2778 105.656 57.0831 105.656 55.2165C105.656 52.9765 105.88 49.6538 106.328 45.2485C106.59 42.8591 106.72 40.8991 106.72 39.3685C106.72 38.2111 106.646 37.2405 106.496 36.4565C106.347 35.5978 106.272 34.6645 106.272 33.6565C106.272 33.2458 106.291 32.9845 106.328 32.8725Z" fill="#393939"/>
<path d="M131.774 20.3845C132.446 19.6378 133.192 19.2645 134.014 19.2645C134.872 19.2645 135.694 19.7125 136.478 20.6085C137.112 21.3551 137.43 21.9898 137.43 22.5125C137.43 22.7738 137.374 23.1658 137.262 23.6885C136.814 26.3765 135.768 27.7205 134.126 27.7205C133.976 27.7205 133.678 27.6831 133.23 27.6085C131.55 27.2351 130.71 25.8538 130.71 23.4645C130.71 22.2325 131.064 21.2058 131.774 20.3845ZM133.454 35.6165C134.2 34.9818 134.928 34.6645 135.638 34.6645C136.347 34.6645 137.056 35.0191 137.766 35.7285C138.251 36.2138 138.55 36.7365 138.662 37.2965C138.774 37.8191 138.83 39.1071 138.83 41.1605C138.83 43.4378 139.035 46.3871 139.446 50.0085C139.67 51.7631 139.782 53.0511 139.782 53.8725C139.782 54.6191 139.707 55.1231 139.558 55.3845C138.886 56.6538 137.915 57.2885 136.646 57.2885C135.899 57.2885 135.208 57.0271 134.574 56.5045C133.976 55.9818 133.566 55.2725 133.342 54.3765C133.08 53.3311 132.782 51.1658 132.446 47.8805C132.147 44.5951 131.998 42.0191 131.998 40.1525C131.998 40.0031 131.998 39.7978 131.998 39.5365C132.035 39.2751 132.054 39.1071 132.054 39.0325C132.128 38.0618 132.259 37.3525 132.446 36.9045C132.632 36.4565 132.968 36.0271 133.454 35.6165Z" fill="#393939"/>
<path d="M172.739 31.7525C173.187 31.4165 173.859 31.2485 174.755 31.2485C175.539 31.2485 176.137 31.3791 176.547 31.6405C177.518 32.1258 178.003 32.9658 178.003 34.1605C178.003 35.0565 177.742 36.4005 177.219 38.1925C176.995 38.9765 176.286 41.7391 175.091 46.4805C174.494 49.0565 173.747 51.3338 172.851 53.3125C171.955 55.2911 171.097 56.5978 170.275 57.2325C169.566 57.8298 168.521 58.1285 167.139 58.1285C164.302 58.1285 161.67 57.2138 159.243 55.3845C158.235 54.6751 157.078 53.4058 155.771 51.5765C154.427 49.8965 153.681 49.0565 153.531 49.0565C153.419 49.0565 153.177 50.5125 152.803 53.4245C152.617 55.2165 152.43 56.4671 152.243 57.1765C152.057 57.8485 151.777 58.3898 151.403 58.8005C150.731 59.5098 149.91 59.8645 148.939 59.8645C148.081 59.8645 147.315 59.5845 146.643 59.0245C146.009 58.5018 145.691 57.6618 145.691 56.5045C145.691 56.3551 145.691 56.0938 145.691 55.7205C145.729 55.3471 145.747 55.0485 145.747 54.8245C145.822 52.3605 146.083 49.7658 146.531 47.0405C146.979 44.3151 147.446 42.5045 147.931 41.6085C149.35 38.8458 150.974 37.4645 152.803 37.4645C153.737 37.4645 154.465 37.7071 154.987 38.1925C155.547 38.6405 156.331 39.7231 157.339 41.4405C160.961 47.7125 163.854 50.8485 166.019 50.8485C166.617 50.8485 167.867 46.8911 169.771 38.9765C170.443 36.3258 170.929 34.5898 171.227 33.7685C171.563 32.9471 172.067 32.2751 172.739 31.7525Z" fill="#393939"/>
<path d="M199.538 23.5205C200.733 23.3338 201.703 23.2405 202.45 23.2405C205.586 23.2405 207.266 24.3418 207.49 26.5445V26.9925C207.49 27.8511 207.247 28.5418 206.762 29.0645C206.389 29.5125 205.978 29.7925 205.53 29.9045C205.119 30.0165 204.205 30.0725 202.786 30.0725C201.405 30.1098 200.415 30.2031 199.818 30.3525C199.221 30.4645 198.493 30.7631 197.634 31.2485C195.693 32.4058 194.087 34.2165 192.818 36.6805C191.549 39.1445 190.914 41.5898 190.914 44.0165C190.914 45.5471 191.194 46.8911 191.754 48.0485C192.314 49.1685 193.21 50.2325 194.442 51.2405C195.674 52.2485 196.682 52.7525 197.466 52.7525C197.503 52.7525 197.541 52.7525 197.578 52.7525C197.653 52.7151 197.709 52.6965 197.746 52.6965C198.941 52.3978 200.117 51.8751 201.274 51.1285C202.469 50.3818 203.402 49.5605 204.074 48.6645C204.933 47.5071 205.362 46.7418 205.362 46.3685C205.362 45.7711 204.261 45.4725 202.058 45.4725C200.714 45.4725 199.818 45.4165 199.37 45.3045C198.922 45.1551 198.511 44.8565 198.138 44.4085C197.615 43.6991 197.354 42.9898 197.354 42.2805C197.354 41.4591 197.653 40.7498 198.25 40.1525C198.698 39.7418 199.575 39.3498 200.882 38.9765C202.189 38.6031 203.309 38.4165 204.242 38.4165C205.997 38.4165 207.602 38.9765 209.058 40.0965C210.551 41.2165 211.485 42.6165 211.858 44.2965C212.007 44.8938 212.082 45.5471 212.082 46.2565C212.082 47.9738 211.223 50.0458 209.506 52.4725C208.013 54.4885 206.071 56.1498 203.682 57.4565C201.33 58.7258 199.015 59.3605 196.738 59.3605C195.207 59.3605 193.789 58.9125 192.482 58.0165C186.957 54.3205 184.157 49.5418 184.082 43.6805C184.082 42.5231 184.437 40.6751 185.146 38.1365C185.893 35.5605 186.602 33.7125 187.274 32.5925C188.021 31.3231 189.215 29.9045 190.858 28.3365C192.538 26.7311 193.975 25.6111 195.17 24.9765C196.477 24.3045 197.933 23.8191 199.538 23.5205Z" fill="#393939"/>
<path d="M226.946 23.3525C228.887 22.9418 230.604 22.7365 232.098 22.7365C233.591 22.7365 234.599 22.9231 235.122 23.2965C235.943 23.8938 236.354 24.6965 236.354 25.7045C236.354 26.3018 236.223 26.8431 235.962 27.3285C235.551 28.0378 235.122 28.5045 234.674 28.7285C234.226 28.9525 233.255 29.1391 231.762 29.2885C229.671 29.5871 228.178 29.8111 227.282 29.9605L225.042 30.4085L225.154 33.9365L225.21 37.4085L227.954 37.3525C229.858 37.2031 231.052 36.9418 231.538 36.5685C232.06 36.1951 232.695 36.0085 233.442 36.0085C234.338 36.0085 235.14 36.2885 235.85 36.8485C236.596 37.4085 236.97 38.0991 236.97 38.9205C236.97 39.6671 236.596 40.4885 235.85 41.3845C235.14 42.2805 234.338 42.8591 233.442 43.1205C232.844 43.3071 231.426 43.5871 229.186 43.9605C226.983 44.2965 225.564 44.4645 224.93 44.4645C224.743 44.4645 224.65 44.8191 224.65 45.5285C224.65 47.3578 224.986 49.0938 225.658 50.7365C225.956 51.4831 226.218 51.9871 226.442 52.2485C226.703 52.4725 227.076 52.5845 227.562 52.5845C228.682 52.5845 230.156 52.2671 231.986 51.6325C233.852 50.9978 235.084 50.3818 235.682 49.7845C236.466 49.0378 237.343 48.6645 238.314 48.6645C239.284 48.6645 240.087 49.0378 240.722 49.7845C241.356 50.5311 241.674 51.2218 241.674 51.8565C241.674 52.3418 241.468 53.0885 241.058 54.0965C240.684 55.0298 239.9 55.7951 238.706 56.3925C237.548 56.9525 235.532 57.6058 232.658 58.3525C230.119 58.9871 228.14 59.3045 226.722 59.3045C224.295 59.3045 222.354 58.2405 220.898 56.1125C220.263 55.2165 219.647 53.7605 219.05 51.7445C218.452 49.7285 218.116 48.0858 218.042 46.8165V45.5845C218.042 42.7098 218.154 38.8458 218.378 33.9925C218.639 29.1391 218.844 26.4698 218.994 25.9845C219.516 24.6405 220.767 23.9685 222.746 23.9685C223.828 23.8938 225.228 23.6885 226.946 23.3525Z" fill="#393939"/>
<path d="M261.066 39.5925C260.469 39.1445 259.704 38.9205 258.77 38.9205C258.098 38.9205 257.762 39.0698 257.762 39.3685C257.762 39.6298 257.482 40.1525 256.922 40.9365C256.288 41.6831 255.97 42.8778 255.97 44.5205C255.97 45.0431 256.064 45.3045 256.25 45.3045C256.474 45.3045 257.09 45.0245 258.098 44.4645C259.144 43.9045 260.002 43.3818 260.674 42.8965C261.533 42.2245 261.962 41.5898 261.962 40.9925C261.962 40.4325 261.664 39.9658 261.066 39.5925ZM254.962 32.1445C255.858 31.8458 256.773 31.6965 257.706 31.6965C259.61 31.6965 261.514 32.1818 263.418 33.1525C265.36 34.0858 266.816 35.2805 267.786 36.7365C268.533 37.8191 268.906 39.3311 268.906 41.2725C268.906 42.7285 268.645 43.9605 268.122 44.9685C267.6 45.9391 266.685 46.9658 265.378 48.0485L263.586 49.5045L264.986 50.1765C266.106 50.7738 267.805 52.1365 270.082 54.2645C272.36 56.3551 273.573 57.6991 273.722 58.2965C273.797 58.5951 273.834 58.8378 273.834 59.0245C273.834 59.6591 273.685 60.2565 273.386 60.8165C273.088 61.3765 272.696 61.7871 272.21 62.0485C271.576 62.3845 271.016 62.5525 270.53 62.5525C269.41 62.5525 267.805 61.5818 265.714 59.6405C263.698 57.7738 261.44 56.1871 258.938 54.8805C257.072 53.9471 255.952 53.4805 255.578 53.4805C255.168 53.4805 254.906 53.7418 254.794 54.2645C254.72 54.7871 254.682 55.8511 254.682 57.4565V58.2405C254.682 59.8458 254.626 60.8911 254.514 61.3765C254.402 61.8618 254.066 62.3845 253.506 62.9445C252.722 63.7285 251.92 64.1205 251.098 64.1205C250.352 64.1205 249.642 63.7845 248.97 63.1125C248.112 62.2538 247.682 60.7418 247.682 58.5765C247.682 57.0458 247.888 54.4698 248.298 50.8485C248.858 46.3311 249.176 42.8405 249.25 40.3765C249.325 38.2111 249.437 36.8858 249.586 36.4005C249.736 35.8405 250.408 35.0938 251.602 34.1605C252.797 33.2271 253.917 32.5551 254.962 32.1445Z" fill="#393939"/>
<path d="M292.716 34.6645C291.969 34.0298 290.831 33.7125 289.3 33.7125C288.553 33.7125 287.956 33.8431 287.508 34.1045C287.172 34.3285 287.004 35.2245 287.004 36.7925C287.004 36.9418 287.004 37.1845 287.004 37.5205C287.041 37.8565 287.06 38.1178 287.06 38.3045L287.172 42.1125L288.684 42.0005C289.879 41.8511 290.98 41.4591 291.988 40.8245C293.033 40.1898 293.724 39.4618 294.06 38.6405C294.284 38.0805 294.396 37.5951 294.396 37.1845C294.396 36.4005 293.836 35.5605 292.716 34.6645ZM285.212 27.6085C286.481 27.1978 287.937 26.9925 289.58 26.9925C291.671 26.9925 293.444 27.3285 294.9 28.0005C296.841 28.9338 298.428 30.2778 299.66 32.0325C300.892 33.7498 301.508 35.5418 301.508 37.4085C301.508 40.2458 300.407 42.7285 298.204 44.8565C296.001 46.9845 293.145 48.3471 289.636 48.9445C288.852 49.0938 288.292 49.2991 287.956 49.5605C287.657 49.7845 287.508 50.1391 287.508 50.6245C287.508 50.9978 287.657 51.6698 287.956 52.6405C288.404 53.8725 288.628 54.8618 288.628 55.6085C288.628 56.4671 288.292 57.2325 287.62 57.9045C286.911 58.6138 286.22 58.9685 285.548 58.9685C285.063 58.9685 284.503 58.8005 283.868 58.4645C282.599 57.7925 281.721 56.5605 281.236 54.7685C280.751 52.9765 280.396 49.6165 280.172 44.6885C280.023 42.0378 279.948 39.2565 279.948 36.3445C279.948 35.0005 279.967 34.1605 280.004 33.8245C280.116 32.6671 280.265 31.8458 280.452 31.3605C280.676 30.8751 281.105 30.3151 281.74 29.6805C282.748 28.6725 283.905 27.9818 285.212 27.6085Z" fill="#393939"/>
<path d="M324.758 41.2165C323.862 39.1258 323.228 38.0805 322.854 38.0805C322.668 38.0805 322.518 38.2485 322.406 38.5845C322.369 38.6591 322.294 38.8831 322.182 39.2565C322.07 39.5925 321.902 40.0405 321.678 40.6005C321.492 41.1605 321.305 41.6831 321.118 42.1685C320.446 44.0725 320.11 45.2671 320.11 45.7525C320.11 46.2751 320.521 46.5365 321.342 46.5365H321.678C324.553 46.4245 325.99 45.9205 325.99 45.0245C325.99 44.4645 325.58 43.1951 324.758 41.2165ZM320.334 27.8885C321.23 26.9925 322.126 26.5445 323.022 26.5445C325.188 26.5445 327.204 29.2325 329.07 34.6085C329.593 36.0645 330.004 36.9791 330.302 37.3525C330.452 37.5018 331.161 39.4245 332.43 43.1205C333.513 46.3685 334.596 49.0378 335.678 51.1285C336.649 52.9205 337.134 54.4138 337.134 55.6085C337.134 56.8778 336.537 57.8111 335.342 58.4085C334.745 58.7071 334.241 58.8565 333.83 58.8565C332.561 58.8565 331.404 57.6991 330.358 55.3845C329.537 53.5925 328.977 52.6031 328.678 52.4165C328.604 52.3791 328.417 52.3605 328.118 52.3605C327.521 52.3605 326.718 52.4538 325.71 52.6405C324.59 52.8645 322.724 53.1071 320.11 53.3685L316.974 53.6485L315.574 57.0645C314.044 60.9098 312.457 62.8325 310.814 62.8325C310.068 62.8325 309.358 62.5151 308.686 61.8805C308.014 61.2458 307.678 60.5925 307.678 59.9205C307.678 59.1738 308.518 56.7471 310.198 52.6405C311.766 48.6831 313.054 45.2485 314.062 42.3365C314.697 40.3578 315.294 38.6778 315.854 37.2965C316.452 35.8778 317.012 34.4218 317.534 32.9285C318.43 30.5391 319.364 28.8591 320.334 27.8885Z" fill="#393939"/>
<path d="M344.399 20.3845C345.071 19.6378 345.817 19.2645 346.639 19.2645C347.497 19.2645 348.319 19.7125 349.103 20.6085C349.737 21.3551 350.055 21.9898 350.055 22.5125C350.055 22.7738 349.999 23.1658 349.887 23.6885C349.439 26.3765 348.393 27.7205 346.751 27.7205C346.601 27.7205 346.303 27.6831 345.855 27.6085C344.175 27.2351 343.335 25.8538 343.335 23.4645C343.335 22.2325 343.689 21.2058 344.399 20.3845ZM346.079 35.6165C346.825 34.9818 347.553 34.6645 348.263 34.6645C348.972 34.6645 349.681 35.0191 350.391 35.7285C350.876 36.2138 351.175 36.7365 351.287 37.2965C351.399 37.8191 351.455 39.1071 351.455 41.1605C351.455 43.4378 351.66 46.3871 352.071 50.0085C352.295 51.7631 352.407 53.0511 352.407 53.8725C352.407 54.6191 352.332 55.1231 352.183 55.3845C351.511 56.6538 350.54 57.2885 349.271 57.2885C348.524 57.2885 347.833 57.0271 347.199 56.5045C346.601 55.9818 346.191 55.2725 345.967 54.3765C345.705 53.3311 345.407 51.1658 345.071 47.8805C344.772 44.5951 344.623 42.0191 344.623 40.1525C344.623 40.0031 344.623 39.7978 344.623 39.5365C344.66 39.2751 344.679 39.1071 344.679 39.0325C344.753 38.0618 344.884 37.3525 345.071 36.9045C345.257 36.4565 345.593 36.0271 346.079 35.6165Z" fill="#393939"/>
<path d="M385.364 31.7525C385.812 31.4165 386.484 31.2485 387.38 31.2485C388.164 31.2485 388.762 31.3791 389.172 31.6405C390.143 32.1258 390.628 32.9658 390.628 34.1605C390.628 35.0565 390.367 36.4005 389.844 38.1925C389.62 38.9765 388.911 41.7391 387.716 46.4805C387.119 49.0565 386.372 51.3338 385.476 53.3125C384.58 55.2911 383.722 56.5978 382.9 57.2325C382.191 57.8298 381.146 58.1285 379.764 58.1285C376.927 58.1285 374.295 57.2138 371.868 55.3845C370.86 54.6751 369.703 53.4058 368.396 51.5765C367.052 49.8965 366.306 49.0565 366.156 49.0565C366.044 49.0565 365.802 50.5125 365.428 53.4245C365.242 55.2165 365.055 56.4671 364.868 57.1765C364.682 57.8485 364.402 58.3898 364.028 58.8005C363.356 59.5098 362.535 59.8645 361.564 59.8645C360.706 59.8645 359.94 59.5845 359.268 59.0245C358.634 58.5018 358.316 57.6618 358.316 56.5045C358.316 56.3551 358.316 56.0938 358.316 55.7205C358.354 55.3471 358.372 55.0485 358.372 54.8245C358.447 52.3605 358.708 49.7658 359.156 47.0405C359.604 44.3151 360.071 42.5045 360.556 41.6085C361.975 38.8458 363.599 37.4645 365.428 37.4645C366.362 37.4645 367.09 37.7071 367.612 38.1925C368.172 38.6405 368.956 39.7231 369.964 41.4405C373.586 47.7125 376.479 50.8485 378.644 50.8485C379.242 50.8485 380.492 46.8911 382.396 38.9765C383.068 36.3258 383.554 34.5898 383.852 33.7685C384.188 32.9471 384.692 32.2751 385.364 31.7525Z" fill="#393939"/>
<path d="M413.507 35.1685C418.099 34.8698 420.768 34.7018 421.515 34.6645H421.683C422.504 34.6645 423.344 35.0751 424.203 35.8965C424.987 36.6805 425.379 37.3898 425.379 38.0245C425.379 38.3978 425.267 38.9018 425.043 39.5365C424.744 40.3951 424.128 40.9738 423.195 41.2725C422.299 41.5338 420.488 41.7391 417.763 41.8885L412.835 42.1125L412.611 47.4325C412.574 48.1791 412.555 49.2618 412.555 50.6805C412.555 53.6298 412.798 56.6911 413.283 59.8645C413.358 60.3125 413.395 60.6111 413.395 60.7605C413.395 61.2831 413.003 61.8805 412.219 62.5525C411.398 63.2618 410.614 63.6165 409.867 63.6165C409.046 63.6165 408.187 63.1685 407.291 62.2725C406.656 61.6378 406.246 61.0591 406.059 60.5365C405.872 59.9765 405.704 58.8191 405.555 57.0645C405.406 55.0485 405.331 52.9205 405.331 50.6805C405.331 49.4858 405.35 48.6271 405.387 48.1045L405.555 42.9525L403.875 42.8405C401.112 42.6911 399.246 42.3738 398.275 41.8885C397.304 41.3658 396.819 40.5071 396.819 39.3125C396.819 37.8938 397.23 36.8671 398.051 36.2325C398.872 35.5978 400.216 35.2805 402.083 35.2805C402.718 35.2805 403.203 35.2991 403.539 35.3365C403.95 35.3738 404.808 35.3925 406.115 35.3925C408.915 35.3925 411.379 35.3178 413.507 35.1685Z" fill="#393939"/>
</svg>
