<svg
  version="1.0"
  xmlns="http://www.w3.org/2000/svg"
  width="712.000000pt"
  height="712.000000pt"
  viewBox="0 0 712.000000 712.000000"
  preserveAspectRatio="xMidYMid meet"
>
  <metadata>
    Created by potrace 1.14, written by Peter Selinger 2001-2017
  </metadata>
  <g
    transform="translate(0.000000,712.000000) scale(0.100000,-0.100000)"
    fill="#000000"
    stroke="none"
  >
    <path
      d="M3425 7050 c-855 -83 -1595 -438 -2190 -1052 -594 -612 -951 -1365
-1072 -2266 -13 -98 -17 -202 -17 -452 0 -287 2 -342 22 -465 84 -538 295
-1018 633 -1447 101 -127 391 -418 519 -519 515 -407 1107 -668 1753 -773 247
-40 368 -50 632 -50 278 0 428 14 673 65 1091 226 1995 1012 2377 2065 234
644 255 1380 64 2164 -178 728 -533 1376 -1018 1860 -477 475 -1054 767 -1691
855 -135 19 -551 28 -685 15z m475 -1101 c85 -10 172 -19 193 -19 21 0 51 -6
66 -14 15 -8 59 -20 97 -26 83 -14 489 -147 559 -183 28 -14 85 -42 129 -63
130 -63 162 -110 127 -189 -37 -84 -102 -99 -190 -45 -29 18 -119 57 -200 85
-80 29 -193 72 -250 95 -110 44 -301 90 -376 90 -25 0 -62 7 -83 16 -54 23
-293 34 -549 23 -277 -11 -395 -24 -491 -54 -43 -13 -115 -31 -162 -41 -47 -9
-105 -25 -130 -35 -25 -10 -101 -39 -170 -64 -69 -25 -171 -68 -227 -95 -60
-30 -115 -50 -135 -50 -66 0 -128 62 -128 128 0 37 36 71 120 112 36 18 76 40
90 50 14 10 57 29 95 43 39 13 113 41 165 61 148 58 332 116 367 116 18 0 56
9 85 19 48 17 167 35 398 60 118 13 414 3 600 -20z m-35 -598 c75 -5 157 -18
220 -34 55 -15 116 -27 135 -27 19 0 54 -9 78 -20 24 -11 62 -24 85 -30 111
-28 373 -134 459 -186 31 -19 76 -41 100 -50 23 -8 52 -23 63 -33 11 -10 46
-35 79 -56 32 -20 75 -52 95 -69 20 -18 70 -58 112 -89 42 -31 96 -79 120
-108 24 -28 71 -81 105 -118 73 -79 209 -253 231 -294 19 -37 8 -64 -40 -101
-94 -72 -135 -57 -234 80 -107 148 -372 400 -538 511 -109 73 -401 218 -468
233 -27 6 -70 21 -95 34 -82 41 -175 64 -374 91 -386 53 -380 53 -673 37 -180
-9 -214 -14 -335 -46 -74 -20 -169 -43 -210 -51 -106 -20 -159 -40 -382 -148
-208 -101 -343 -188 -467 -301 -36 -34 -81 -72 -98 -84 -36 -26 -198 -210
-274 -313 -73 -98 -123 -113 -184 -56 -29 26 -37 41 -42 84 -5 49 -3 56 40
126 32 50 93 119 194 218 227 223 307 296 333 304 14 4 61 35 105 67 44 33
103 70 131 83 28 12 68 35 90 51 73 53 307 145 487 193 65 17 134 38 155 46
51 19 135 35 185 35 23 0 58 5 78 10 102 28 395 33 734 11z m-17 -591 c62 -10
150 -30 197 -45 46 -14 105 -28 132 -32 26 -3 66 -16 88 -29 22 -13 82 -39
133 -59 125 -48 276 -127 337 -175 28 -22 86 -68 130 -102 78 -60 185 -166
312 -306 67 -75 220 -318 263 -421 16 -37 31 -84 35 -106 4 -22 18 -65 30 -95
13 -30 28 -91 35 -135 7 -44 17 -111 24 -150 7 -38 12 -133 12 -210 -1 -165
-25 -268 -80 -350 -19 -27 -41 -64 -49 -81 -43 -84 -180 -194 -303 -243 -56
-21 -190 -55 -267 -66 -47 -6 -108 1 -266 31 -98 19 -208 83 -323 187 -71 65
-93 93 -124 156 -21 42 -47 90 -59 106 -12 18 -22 55 -26 95 -20 197 -29 250
-47 286 -11 22 -26 59 -33 83 -10 35 -27 55 -79 98 -103 86 -171 120 -280 139
-88 16 -102 16 -189 1 -117 -20 -223 -69 -282 -129 -25 -26 -59 -79 -85 -136
l-43 -93 -1 -157 c0 -115 3 -168 14 -197 8 -22 15 -62 16 -88 0 -26 8 -64 19
-85 10 -20 31 -77 46 -127 15 -49 47 -121 70 -160 23 -38 54 -92 68 -120 37
-72 89 -142 127 -170 18 -13 45 -42 59 -63 33 -49 116 -123 201 -178 36 -23
76 -54 90 -69 14 -16 68 -48 120 -73 52 -24 108 -53 123 -64 15 -11 55 -26 88
-34 33 -8 76 -23 97 -33 21 -11 58 -22 84 -26 87 -13 128 -54 128 -130 0 -27
-8 -40 -37 -64 -51 -42 -87 -47 -148 -21 -28 12 -99 35 -160 52 -173 46 -258
92 -632 346 -35 24 -63 47 -63 53 0 5 -45 56 -100 114 -55 57 -100 108 -100
113 0 4 -25 37 -55 72 -61 71 -180 300 -215 415 -12 39 -35 110 -52 159 -35
100 -53 250 -52 436 0 131 22 220 80 325 33 60 141 200 185 242 13 12 87 50
164 84 l140 63 180 0 c178 0 181 0 275 -33 55 -19 116 -49 145 -71 28 -20 68
-47 90 -60 64 -36 152 -158 202 -280 52 -128 65 -192 57 -279 -6 -59 -3 -74
24 -139 17 -40 45 -93 62 -118 42 -60 132 -130 188 -144 24 -6 66 -22 93 -35
57 -29 130 -32 251 -11 135 25 222 76 305 181 64 81 73 99 94 187 17 69 19
101 14 188 -12 182 -75 438 -129 520 -12 19 -29 53 -36 75 -38 119 -129 243
-321 435 -157 157 -204 196 -284 239 -44 24 -119 68 -168 98 -97 61 -110 66
-352 129 -295 78 -284 76 -540 70 -247 -6 -368 -25 -530 -82 -38 -14 -96 -34
-127 -44 -66 -21 -246 -118 -363 -196 -104 -69 -295 -236 -337 -294 -17 -25
-45 -60 -60 -78 -15 -18 -40 -56 -54 -85 -14 -29 -37 -63 -49 -77 -22 -23 -67
-118 -137 -289 -19 -48 -33 -104 -39 -160 -4 -47 -13 -115 -18 -151 -17 -107
-14 -499 4 -550 8 -23 15 -61 15 -85 0 -42 53 -236 85 -310 31 -71 56 -174 49
-203 -25 -102 -145 -135 -212 -58 -20 23 -32 50 -37 82 -4 27 -23 92 -42 144
-47 125 -63 185 -63 241 0 26 -7 66 -15 89 -8 23 -15 68 -15 99 0 31 -5 76
-11 101 -25 101 -14 488 16 580 8 25 19 77 24 115 16 121 140 387 278 596 90
137 344 387 447 441 21 11 70 43 110 72 102 76 222 144 291 165 33 11 103 36
155 56 76 29 143 45 330 75 288 46 474 52 658 20z m-73 -568 c44 -5 118 -20
165 -35 133 -41 339 -135 397 -181 143 -114 196 -162 257 -233 37 -43 89 -104
117 -135 28 -33 58 -80 69 -110 10 -29 33 -80 49 -112 17 -32 40 -89 50 -125
22 -75 61 -298 61 -351 0 -73 -85 -149 -150 -135 -16 3 -45 24 -64 46 -32 35
-36 45 -36 94 0 64 -33 241 -59 317 -24 70 -57 134 -91 178 -15 19 -40 59 -55
88 -84 156 -321 313 -645 426 -55 19 -344 41 -431 33 -97 -9 -386 -103 -491
-159 -65 -35 -235 -185 -315 -279 -130 -153 -216 -403 -214 -624 2 -219 19
-346 77 -595 19 -80 90 -240 138 -310 20 -29 36 -58 36 -65 0 -7 22 -46 49
-87 27 -40 74 -113 106 -161 32 -49 73 -103 93 -120 81 -73 208 -211 220 -239
16 -38 7 -90 -22 -122 -25 -26 -113 -50 -143 -39 -24 9 -298 288 -332 338 -24
35 -157 254 -282 466 -22 36 -39 77 -39 92 0 15 -16 69 -36 120 -20 50 -40
117 -46 147 -5 30 -18 86 -29 123 -35 117 -50 425 -29 597 18 152 30 204 60
265 16 33 39 85 50 116 27 74 118 209 204 305 89 98 319 290 365 305 20 6 83
33 141 59 228 104 482 136 805 102z m-150 -1202 c26 -25 28 -31 45 -185 28
-261 142 -502 294 -625 18 -14 59 -53 92 -86 38 -38 84 -72 120 -89 33 -15 75
-38 94 -51 53 -36 212 -80 335 -94 107 -12 222 -9 375 8 41 4 89 4 107 0 66
-18 99 -99 67 -164 -35 -70 -55 -77 -231 -84 -87 -4 -165 -10 -173 -14 -9 -3
-47 -2 -85 4 -39 6 -108 15 -155 20 -204 23 -303 61 -505 198 -158 107 -243
178 -274 228 -14 23 -48 68 -74 100 -26 33 -62 88 -79 124 -17 36 -39 77 -49
91 -54 76 -109 308 -109 455 0 104 11 138 57 173 37 29 113 24 148 -9z"
    />
  </g>
</svg>
