<svg
  width="104"
  height="104"
  viewBox="0 0 104 104"
  fill="none"
  xmlns="http://www.w3.org/2000/svg"
>
  <rect width="104" height="104" rx="24" fill="#F99D1F" />
  <path
    fill-rule="evenodd"
    clip-rule="evenodd"
    d="M59.7535 33.5C59.7535 29.3579 56.3957 26 52.2535 26C48.1114 26 44.7535 29.3579 44.7535 33.5V44.2735H33.5C29.3579 44.2735 26 47.6314 26 51.7735C26 55.9156 29.3579 59.2735 33.5 59.2735H44.7535V70.5C44.7535 74.6421 48.1114 78 52.2535 78C56.3957 78 59.7535 74.6421 59.7535 70.5V59.2735H70.5C74.6421 59.2735 78 55.9156 78 51.7735C78 47.6314 74.6421 44.2735 70.5 44.2735H59.7535V33.5Z"
    fill="white"
  />
</svg>
