<svg width="48" height="48" viewBox="0 0 48 48" fill="none" xmlns="http://www.w3.org/2000/svg">
<g clip-path="url(#clip0_218_2253)">
<path fill-rule="evenodd" clip-rule="evenodd" d="M43.215 0.124986C46.5973 0.1396 48.8744 3.65747 47.5525 6.85915C46.2613 9.9869 44.9567 13.1091 43.652 16.2313L43.6515 16.2325L43.6509 16.234C43.2685 17.149 42.8862 18.0639 42.5042 18.979C38.9155 27.5966 35.3268 36.2119 31.738 44.825C30.9688 46.6729 29.6284 47.7809 27.6197 47.9762C25.8196 48.1502 24.3928 47.4129 23.3007 45.9981C22.6534 45.1607 22.4915 44.1626 22.3294 43.1637C22.3158 43.0802 22.3023 42.9967 22.2884 42.9133L21.9772 41.033L21.977 41.0321L21.9769 41.0312L21.9767 41.0303C21.4037 37.5672 20.8305 34.1038 20.2412 30.6433C20.2047 30.4951 20.2102 30.3396 20.2571 30.1943C20.304 30.049 20.3905 29.9197 20.5069 29.8209C23.0567 27.2932 25.5955 24.7554 28.1232 22.2073C28.3956 21.9442 28.6061 21.6238 28.7396 21.2694C28.8409 20.9404 28.8276 20.5868 28.7019 20.2663C28.5761 19.9458 28.3454 19.6775 28.0475 19.5051C27.7494 19.3167 27.3958 19.236 27.0455 19.2767C26.6953 19.3173 26.3695 19.4767 26.1225 19.7283C25.7344 20.0991 25.357 20.4799 24.9794 20.8608L24.9794 20.8608L24.9793 20.8609L24.9792 20.8609L24.9788 20.8614C24.8073 21.0344 24.6358 21.2075 24.4632 21.3796C22.3969 23.4468 20.332 25.5148 18.2684 27.5837C18.0412 27.8122 17.8472 27.9105 17.4939 27.8494C13.0478 27.0913 8.59823 26.3487 4.1451 25.6215C1.97832 25.2629 0.382791 23.585 0.0998206 21.3531C-0.153923 19.3484 1.05767 17.2919 3.04776 16.4589C9.89662 13.5946 16.7521 10.7379 23.6143 7.88874C29.3977 5.47707 35.182 3.0685 40.9671 0.663029C41.4483 0.463909 41.9563 0.330173 42.4647 0.196341C42.7059 0.13284 42.9472 0.0693176 43.1857 -0.0012207L43.215 0.124986ZM16.0418 33.9047C16.0144 33.9542 15.9847 34.0213 15.9506 34.0986C15.8571 34.3102 15.7299 34.598 15.5237 34.8081C13.4353 36.939 11.3296 39.0531 9.20666 41.1504C8.90717 41.4498 8.50097 41.6181 8.07743 41.6181C7.65389 41.6181 7.2477 41.4498 6.94821 41.1504C6.64872 40.8509 6.48047 40.4447 6.48047 40.0211C6.48047 39.5976 6.64872 39.1914 6.94821 38.8919C9.06318 36.7663 11.1866 34.646 13.3184 32.5311C13.5421 32.2933 13.8356 32.1328 14.1565 32.0726C14.4774 32.0124 14.8092 32.0557 15.1039 32.1963C15.7136 32.4899 16.0165 32.9867 16.0418 33.9047ZM12.9541 43.9628C13.2291 44.5487 13.7247 44.8516 14.4155 44.9472C14.5145 44.9051 14.6206 44.8705 14.7269 44.8358L14.7269 44.8358L14.727 44.8358C14.9558 44.7611 15.1849 44.6864 15.3428 44.5367C16.5517 43.3823 17.7474 42.2065 18.8965 40.991C19.4545 40.3998 19.3323 39.43 18.757 38.8747C18.1818 38.3193 17.2545 38.2317 16.6779 38.779C15.4769 39.9233 14.3034 41.0933 13.1574 42.2889C12.7057 42.7592 12.6791 43.3769 12.9541 43.9628ZM9.57357 30.8955L9.57355 30.8955C9.48029 31.1076 9.3539 31.3951 9.15057 31.6091C8.10637 32.7024 7.03028 33.7652 5.9449 34.8201C5.80203 34.9855 5.62665 35.1199 5.42966 35.2147C5.23268 35.3095 5.0183 35.3628 4.79984 35.3712C4.58139 35.3797 4.36353 35.3431 4.15981 35.2638C3.95609 35.1845 3.77087 35.0641 3.61564 34.9101C3.46042 34.7562 3.33852 34.572 3.25752 34.3689C3.17651 34.1659 3.13814 33.9483 3.14478 33.7298C3.15142 33.5113 3.20293 33.2965 3.29612 33.0987C3.3893 32.9009 3.52216 32.7245 3.68645 32.5802C4.74925 31.4882 5.82843 30.4081 6.924 29.34C7.43414 28.8378 8.04658 28.709 8.7095 29.0039C9.3339 29.2802 9.63547 29.7797 9.6647 30.7004C9.63732 30.7505 9.60765 30.818 9.57357 30.8955ZM6.33346 43.8368C6.41231 43.6409 6.45146 43.4313 6.44865 43.2201C6.44778 43.0136 6.40617 42.8093 6.3262 42.6188C6.24623 42.4284 6.12948 42.2556 5.98262 42.1103C5.83577 41.9651 5.6617 41.8502 5.47039 41.7724C5.27908 41.6945 5.07429 41.6551 4.86774 41.6565C4.65727 41.6548 4.44854 41.6947 4.25358 41.774C4.05863 41.8534 3.88132 41.9705 3.73187 42.1187C3.58243 42.2669 3.46381 42.4433 3.38286 42.6376C3.30192 42.8318 3.26025 43.0402 3.26025 43.2507C3.26915 43.6699 3.44025 44.0692 3.73757 44.3648C4.03489 44.6604 4.43525 44.8292 4.85445 44.8356C5.06561 44.8356 5.27466 44.7937 5.46948 44.7122C5.66429 44.6308 5.84099 44.5115 5.9893 44.3612C6.13762 44.2109 6.2546 44.0326 6.33346 43.8368Z" fill="#393939"/>
</g>
<defs>
<clipPath id="clip0_218_2253">
<rect width="48" height="48" fill="white"/>
</clipPath>
</defs>
</svg>
