<svg width="48" height="48" viewBox="0 0 48 48" fill="none" xmlns="http://www.w3.org/2000/svg">
<path fill-rule="evenodd" clip-rule="evenodd" d="M15.0833 5.05142H23.9811L32.7284 5.04476C32.9617 5.04857 33.1951 5.03699 33.4269 5.0101C33.9894 4.92862 34.5007 4.63874 34.8595 4.19794C35.2183 3.75714 35.3984 3.1976 35.364 2.63027C35.3296 2.06294 35.0833 1.52925 34.6739 1.13502C34.2644 0.740781 33.7218 0.514787 33.1536 0.501846C29.0773 0.496514 25.0009 0.498291 20.9246 0.500068C18.8864 0.500957 16.8482 0.501846 14.81 0.501846H14.71C13.7903 0.60982 13.1144 1.06438 12.7652 1.93484C12.4159 2.80529 12.5852 3.60777 13.1971 4.30493C13.6916 4.8688 14.3488 5.05142 15.0833 5.05142ZM3.47033 11.9993C3.66848 11.9985 3.8704 11.9978 4.0777 11.9978C4.14615 12.9666 4.21368 13.9268 4.28078 14.8809C4.42667 16.9555 4.57054 19.0015 4.71755 21.0449C4.8709 23.1879 5.02557 25.331 5.18025 27.4743C5.49213 31.7955 5.80403 36.1172 6.10521 40.4389C6.38514 44.4286 9.42042 47.4626 13.2862 47.4799C20.4347 47.5092 27.5832 47.5092 34.7317 47.4799C36.3811 47.4663 37.9751 46.8825 39.2431 45.8275C40.5112 44.7725 41.3752 43.3114 41.6887 41.692C41.8879 40.6307 41.9555 39.5436 42.0231 38.4588C42.0437 38.1279 42.0643 37.7973 42.0886 37.4676C42.2559 35.2094 42.4147 32.9501 42.5736 30.6911C42.659 29.4764 42.7444 28.2618 42.8311 27.0475C43.1208 23.0093 43.4114 18.9712 43.7029 14.9331C43.7497 14.288 43.7994 13.643 43.8498 12.9903C43.8754 12.6582 43.9012 12.3242 43.9268 11.9871C44.1557 11.9871 44.378 11.9899 44.596 11.9926C45.0192 11.9979 45.4256 12.0029 45.8303 11.9871C46.3675 11.9613 46.8783 11.7464 47.2724 11.3806C47.6666 11.0147 47.9188 10.5213 47.9845 9.98757C48.0476 9.45261 47.9167 8.91275 47.6156 8.46609C47.3145 8.01943 46.8631 7.69562 46.3436 7.55349C46.002 7.48103 45.6527 7.45192 45.3038 7.46684H4.71088C4.44428 7.46684 4.17768 7.46521 3.91107 7.46359C3.37787 7.46033 2.84466 7.45707 2.31146 7.46684C0.982443 7.49217 0.00401088 8.44127 1.18445e-05 9.7183C-0.0039872 10.9953 1.0051 11.9791 2.34478 11.9978C2.71367 12.0022 3.08488 12.0007 3.47033 11.9993ZM21.7148 36.5425V27.4434C21.7139 24.4281 21.7117 21.4119 21.7081 18.3949C21.7095 17.4338 22.1027 16.6753 22.9732 16.2341C23.785 15.8222 24.5941 15.9022 25.3299 16.4354C26.0191 16.9352 26.2697 17.6497 26.2697 18.4829V31.0305C26.2697 31.6467 26.2715 32.2631 26.2733 32.8795C26.2768 34.1127 26.2804 35.3463 26.2697 36.5799C26.255 38.1675 24.97 39.2232 23.4784 38.9006C22.4226 38.6754 21.7148 37.7422 21.7148 36.5425ZM13.3995 33.4219V27.4754V27.47C13.3998 26.8833 13.399 26.2962 13.3982 25.7089C13.3961 24.2666 13.394 22.8227 13.4101 21.3782C13.4208 20.2118 14.2193 19.3347 15.375 19.1454C15.8903 19.0678 16.4164 19.1727 16.8626 19.4419C17.3087 19.7111 17.6468 20.1277 17.8184 20.6197C17.9161 20.9023 17.967 21.1991 17.969 21.4981C17.9788 25.4803 17.9788 29.4616 17.969 33.4419C17.9677 34.5283 17.3932 35.3575 16.4601 35.6921C16.0256 35.8471 15.5545 35.8672 15.1084 35.7497C14.6624 35.6321 14.2623 35.3825 13.9607 35.0336C13.5782 34.5857 13.3779 34.0105 13.3995 33.4219ZM34.5944 21.5368V27.4834H34.589C34.589 28.2259 34.5903 28.9686 34.5916 29.7114C34.5937 30.9847 34.5959 32.2583 34.5917 33.5313C34.5967 34.0611 34.4166 34.5761 34.0824 34.9874C33.7483 35.3986 33.2811 35.6804 32.7615 35.784C31.7177 35.984 30.6513 35.4628 30.2514 34.4977C30.1081 34.1436 30.0343 33.7653 30.0341 33.3833C30.0217 29.4358 30.0195 25.4879 30.0275 21.5395C30.0301 20.1265 31.0312 19.0947 32.3349 19.116C33.6386 19.1374 34.5944 20.1491 34.5944 21.5368Z" fill="#393939"/>
</svg>
